{"glyphs":{"0":{"ha":794,"x_min":139,"x_max":694,"o":"m 139 535 q 156 577 139 560 q 198 594 174 594 q 241 577 223 594 q 258 535 258 560 l 258 258 q 305 146 258 192 q 417 99 351 99 q 529 146 482 99 q 575 258 575 192 l 575 535 q 593 577 575 560 q 635 594 610 594 q 677 577 660 594 q 694 535 694 560 l 694 258 q 613 62 694 143 q 417 -20 532 -20 q 220 62 302 -20 q 139 258 139 143 l 139 535 m 694 776 q 677 734 694 751 q 635 716 660 716 q 593 734 610 716 q 575 776 575 751 l 575 1053 q 529 1165 575 1118 q 417 1211 482 1211 q 305 1165 351 1211 q 258 1053 258 1118 l 258 776 q 241 734 258 751 q 198 716 223 716 q 156 734 174 716 q 139 776 139 751 l 139 1053 q 220 1249 139 1168 q 417 1330 302 1330 q 613 1249 532 1330 q 694 1053 694 1168 l 694 776 z "},"1":{"ha":614,"x_min":61,"x_max":538,"o":"m 120 0 q 78 17 95 0 q 61 60 61 35 q 78 102 61 84 q 120 119 95 119 l 259 119 l 259 1191 l 121 1191 q 79 1209 96 1191 q 62 1251 62 1226 q 79 1293 62 1276 q 121 1311 96 1311 l 319 1311 q 361 1294 343 1311 q 378 1251 378 1276 l 378 119 l 478 119 q 520 102 503 119 q 538 60 538 84 q 520 17 538 35 q 478 0 503 0 l 120 0 z "},"2":{"ha":734,"x_min":99,"x_max":655,"o":"m 262 1161 q 219 1143 244 1143 q 177 1160 194 1143 q 160 1202 160 1178 q 178 1244 160 1226 q 377 1329 262 1329 q 573 1248 492 1329 q 655 1052 655 1167 l 655 1051 q 437 653 655 871 q 218 278 218 436 l 218 119 l 595 119 q 637 102 620 119 q 655 60 655 84 q 637 18 655 36 q 595 0 620 0 l 159 0 q 117 18 134 0 q 99 60 99 36 l 99 278 q 317 703 99 486 q 536 1051 536 921 q 490 1163 536 1116 q 377 1209 443 1209 q 262 1161 312 1209 z "},"3":{"ha":714,"x_min":101,"x_max":596,"o":"m 358 596 q 316 614 333 596 q 299 656 299 632 q 316 698 299 681 q 358 715 333 715 l 359 715 q 443 750 409 715 q 477 834 477 785 l 477 1053 q 431 1164 477 1117 q 318 1210 385 1210 q 203 1162 254 1210 q 161 1144 186 1144 q 119 1161 136 1144 q 101 1203 101 1179 q 119 1245 101 1227 q 318 1330 203 1330 q 515 1249 434 1330 q 596 1053 596 1168 l 596 834 q 527 667 596 736 q 515 656 521 661 q 527 646 521 651 q 596 477 596 575 l 596 258 q 515 62 596 143 q 318 -20 434 -20 q 119 65 203 -20 q 101 107 101 83 q 119 149 101 132 q 161 167 136 167 q 203 150 186 167 q 318 100 253 100 q 431 147 385 100 q 477 258 477 193 l 477 477 q 443 562 477 527 q 359 596 409 596 l 358 596 z "},"4":{"ha":813,"x_min":99,"x_max":675,"o":"m 556 1011 q 573 1053 556 1036 q 615 1070 590 1070 q 657 1053 640 1070 q 675 1011 675 1036 l 675 59 q 657 16 675 34 q 615 -1 640 -1 q 573 16 590 -1 q 556 59 556 34 l 556 356 l 159 356 q 117 374 134 356 q 99 416 99 392 q 102 434 99 426 l 258 1248 q 277 1292 261 1275 q 317 1310 294 1310 q 360 1292 342 1310 q 377 1250 377 1275 q 375 1231 377 1240 l 231 475 l 556 475 l 556 1011 z "},"5":{"ha":754,"x_min":139,"x_max":635,"o":"m 258 897 q 356 914 304 914 q 553 832 471 914 q 634 636 634 751 l 634 257 q 552 61 633 142 q 355 -21 470 -21 q 158 63 240 -21 q 140 105 140 81 q 157 147 140 130 q 199 165 175 165 q 242 148 224 165 q 355 99 290 99 q 468 146 422 99 q 515 258 514 192 l 515 636 q 469 747 515 700 q 356 794 423 794 q 241 745 292 794 q 198 727 223 727 q 157 745 174 727 q 139 785 140 761 l 139 1251 q 156 1293 139 1276 q 198 1311 174 1311 l 575 1311 q 618 1293 600 1311 q 635 1251 635 1276 q 618 1209 635 1227 q 575 1191 600 1191 l 258 1191 l 258 897 z "},"6":{"ha":794,"x_min":119,"x_max":675,"o":"m 411 714 q 375 732 390 716 q 357 774 357 749 q 375 815 357 798 q 423 833 392 833 q 593 753 521 825 q 675 557 675 672 l 675 257 q 593 61 675 142 q 397 -21 512 -21 q 200 61 282 -21 q 119 257 119 142 l 119 1051 l 120 1051 l 120 1052 q 201 1248 120 1167 q 398 1329 283 1329 q 594 1248 513 1329 q 613 1203 613 1227 q 596 1161 613 1179 q 554 1144 578 1144 q 510 1163 529 1144 q 398 1209 463 1209 q 285 1163 331 1209 q 239 1051 239 1116 l 238 1051 l 238 257 q 285 145 238 191 q 397 98 331 98 q 509 145 462 98 q 556 257 556 191 l 556 557 q 509 669 556 622 q 411 714 467 710 z "},"7":{"ha":575,"x_min":40,"x_max":515,"o":"m 456 1310 q 498 1293 480 1310 q 515 1250 515 1275 q 513 1234 515 1242 l 514 1234 l 256 44 q 242 18 252 30 q 199 0 224 0 q 157 18 175 0 q 140 60 140 36 q 142 78 140 69 l 383 1190 l 99 1190 q 57 1208 74 1190 q 40 1250 40 1225 q 57 1292 40 1275 q 99 1310 74 1310 l 456 1310 z "},"8":{"ha":795,"x_min":119,"x_max":675,"o":"m 456 685 q 473 727 456 709 q 482 734 477 731 q 509 756 496 743 q 556 868 556 803 l 556 1067 q 509 1180 556 1133 q 490 1196 500 1188 q 473 1208 481 1200 q 456 1250 456 1225 q 474 1292 456 1275 q 516 1310 491 1310 q 552 1299 536 1310 q 593 1264 573 1284 q 675 1067 675 1183 l 675 868 q 605 685 675 762 q 675 500 675 606 l 675 240 q 593 44 675 125 q 552 9 573 24 q 516 -2 536 -2 q 474 15 491 -2 q 456 58 456 33 q 473 100 456 82 q 490 112 481 107 q 509 128 500 119 q 556 240 556 175 l 556 500 q 509 612 556 565 q 482 634 496 625 q 473 642 477 638 q 456 685 456 659 m 188 684 q 119 867 119 761 l 119 1066 q 200 1263 119 1182 q 246 1301 222 1285 q 278 1310 260 1310 q 320 1292 303 1310 q 337 1250 337 1274 q 320 1208 337 1225 q 312 1200 315 1203 q 285 1179 298 1191 q 238 1066 238 1132 l 238 867 q 285 755 238 802 q 304 738 294 746 q 320 727 313 734 q 337 685 337 709 q 320 642 337 660 q 312 635 315 638 q 285 613 298 626 q 238 501 238 566 l 238 241 q 285 129 238 176 q 304 112 294 119 q 320 100 313 108 q 337 59 337 83 q 320 16 337 34 q 278 -1 303 -1 q 242 10 258 -1 q 200 45 220 25 q 119 241 119 126 l 119 501 q 188 684 119 607 z "},"9":{"ha":794,"x_min":119,"x_max":675,"o":"m 383 594 q 419 576 404 592 q 437 535 437 560 q 419 493 437 511 q 371 475 402 475 q 200 556 273 483 q 119 752 119 637 l 119 1052 q 200 1248 119 1167 q 397 1329 282 1329 q 593 1248 512 1329 q 675 1052 675 1167 l 675 258 l 674 258 l 674 257 q 592 61 674 142 q 396 -21 511 -21 q 199 61 281 -21 q 181 105 181 81 q 198 147 181 130 q 240 165 215 165 q 284 146 265 165 q 396 99 330 99 q 508 146 462 99 q 555 258 555 192 l 556 258 l 556 1052 q 509 1164 556 1117 q 397 1210 462 1210 q 285 1164 331 1210 q 238 1052 238 1117 l 238 752 q 285 640 238 687 q 383 594 326 598 z "}," ":{"ha":516,"x_min":0,"x_max":0,"o":""}," ":{"ha":516,"x_min":0,"x_max":0,"o":""},"!":{"ha":437,"x_min":139,"x_max":298,"o":"m 159 1250 q 176 1292 159 1275 q 218 1310 193 1310 q 260 1292 243 1310 q 278 1250 278 1275 l 278 337 q 260 295 278 313 q 218 278 243 278 q 176 295 193 278 q 159 337 159 313 l 159 1250 m 218 159 q 274 135 251 159 q 298 79 298 112 q 274 23 298 47 q 218 0 251 0 q 162 23 186 0 q 139 79 139 47 q 162 135 139 112 q 218 159 186 159 z "},"\"":{"ha":437,"x_min":40,"x_max":397,"o":"m 72 1382 q 100 1419 78 1406 q 130 1427 114 1427 q 145 1425 137 1427 q 182 1397 169 1418 q 189 1366 189 1382 q 188 1351 189 1359 l 157 1236 q 130 1201 151 1213 q 99 1192 115 1192 q 84 1194 92 1192 q 49 1222 61 1201 q 40 1252 40 1236 q 42 1268 40 1260 l 72 1382 m 280 1381 q 308 1418 286 1405 q 337 1426 321 1426 q 352 1424 344 1426 q 389 1396 376 1417 q 397 1365 397 1381 q 395 1350 397 1358 l 364 1235 q 337 1200 358 1212 q 307 1191 322 1191 q 292 1193 300 1191 q 256 1221 268 1200 q 247 1251 247 1235 q 249 1267 247 1259 l 280 1381 z "},"#":{"ha":873,"x_min":99,"x_max":774,"o":"m 218 1250 q 236 1292 218 1275 q 278 1310 253 1310 q 320 1292 303 1310 q 337 1250 337 1275 l 337 952 l 536 952 l 536 1250 q 554 1292 536 1275 q 595 1310 571 1310 q 637 1292 620 1310 q 656 1250 655 1275 l 656 952 l 714 952 q 756 935 739 952 q 774 893 774 918 q 756 851 774 868 q 714 833 739 833 l 655 833 l 655 774 q 637 732 655 749 q 595 714 620 714 q 553 732 570 714 q 536 774 536 749 l 536 833 l 337 833 l 337 774 q 319 732 337 749 q 278 714 302 714 q 236 732 253 714 q 218 774 219 749 l 218 833 l 159 833 q 117 851 134 833 q 99 893 99 868 q 117 935 99 918 q 159 952 134 952 l 218 952 l 218 1250 m 655 60 q 637 17 655 35 q 595 0 620 0 q 553 17 570 0 q 536 60 536 35 l 536 357 l 337 357 l 337 60 q 320 17 337 35 q 278 0 303 0 q 236 17 253 0 q 218 60 218 35 l 218 357 l 159 357 q 117 375 134 357 q 99 417 99 392 q 117 459 99 441 q 159 476 134 476 l 218 476 l 218 536 q 236 578 218 561 q 278 595 253 595 q 319 578 302 595 q 337 536 337 561 l 337 476 l 536 476 l 536 536 q 553 577 536 560 q 595 595 570 595 q 637 577 620 595 q 655 536 655 560 l 655 476 l 714 476 q 756 459 739 476 q 774 417 774 441 q 756 375 774 392 q 714 357 739 357 l 655 357 l 655 60 z "},"$":{"ha":675,"x_min":63,"x_max":581,"o":"m 263 1319 l 263 1448 q 280 1491 263 1473 q 322 1508 298 1508 q 365 1491 347 1508 q 382 1448 382 1473 l 382 1327 q 548 1238 480 1313 q 552 1234 550 1236 q 566 1194 566 1216 l 566 1191 q 547 1151 564 1167 q 507 1135 530 1135 l 504 1135 q 460 1158 479 1136 q 349 1209 415 1206 l 338 1209 q 235 1170 280 1209 q 183 1060 187 1125 l 183 1051 q 384 691 183 913 q 581 266 581 473 q 580 244 581 255 q 488 51 573 128 q 382 -10 439 7 l 382 -138 q 365 -180 382 -163 q 322 -197 347 -197 q 280 -180 298 -197 q 263 -138 263 -163 l 263 -19 q 96 71 165 -5 q 93 75 94 73 q 77 115 77 93 l 77 118 q 97 160 79 143 q 137 175 114 175 l 140 175 q 185 152 165 173 q 295 99 229 103 l 303 99 q 409 141 363 99 q 461 250 457 185 l 461 263 q 262 647 461 427 q 63 1050 63 866 l 63 1065 q 156 1259 70 1182 q 263 1319 204 1303 z "},"%":{"ha":1786,"x_min":119,"x_max":1666,"o":"m 489 1197 q 472 1209 480 1201 q 455 1251 455 1226 q 473 1293 455 1276 q 515 1311 490 1311 q 551 1300 535 1311 q 592 1265 572 1285 q 674 1068 674 1184 l 674 760 q 592 563 674 645 q 547 526 570 542 q 515 517 532 517 q 473 535 490 517 q 455 576 455 553 q 472 619 455 601 q 481 626 476 623 q 508 648 495 635 q 555 760 555 694 l 555 1068 q 508 1181 555 1134 q 489 1197 498 1189 m 304 630 q 320 619 313 626 q 337 576 337 601 q 320 534 337 552 q 278 517 303 517 q 242 528 258 517 q 200 563 220 543 q 119 759 119 644 l 119 1067 q 200 1264 119 1183 q 246 1302 222 1286 q 278 1311 260 1311 q 320 1293 303 1311 q 337 1251 337 1275 q 320 1209 337 1226 q 312 1201 315 1204 q 285 1180 298 1192 q 238 1067 238 1133 l 238 759 q 285 647 238 693 q 304 630 294 638 m 1481 681 q 1464 692 1472 685 q 1447 734 1447 709 q 1465 776 1447 759 q 1507 794 1482 794 q 1543 783 1527 794 q 1584 748 1564 768 q 1666 552 1666 667 l 1666 243 q 1584 47 1666 128 q 1539 9 1563 25 q 1507 0 1524 0 q 1465 18 1482 0 q 1447 60 1447 36 q 1464 102 1447 84 q 1473 109 1468 106 q 1500 131 1487 118 q 1547 243 1547 178 l 1547 552 q 1500 664 1547 617 q 1481 681 1490 673 m 1296 113 q 1313 102 1305 109 q 1329 60 1329 84 q 1312 17 1329 35 q 1270 0 1295 0 q 1234 11 1250 0 q 1192 46 1212 26 q 1111 242 1111 127 l 1111 551 q 1192 747 1111 666 q 1238 785 1214 769 q 1270 794 1252 794 q 1312 776 1295 794 q 1329 734 1329 758 q 1313 692 1329 709 q 1304 685 1308 688 q 1277 663 1290 676 q 1230 551 1230 616 l 1230 242 q 1277 130 1230 177 q 1296 113 1286 121 m 963 1256 q 983 1293 968 1276 q 1025 1310 1000 1310 q 1066 1292 1050 1310 q 1082 1250 1082 1275 q 1081 1240 1082 1245 l 805 55 q 785 18 801 34 q 742 0 767 0 q 701 17 717 0 q 686 60 686 35 q 688 75 686 67 l 963 1256 z "},"&":{"ha":952,"x_min":118,"x_max":849,"o":"m 639 862 q 627 848 633 854 q 584 830 609 830 q 542 848 560 830 q 525 890 525 865 q 543 933 525 911 q 574 980 565 962 q 594 1052 594 1012 q 554 1150 594 1109 q 455 1190 513 1190 q 358 1150 398 1190 q 317 1052 317 1109 q 328 993 317 1023 q 583 543 352 930 q 591 513 591 529 q 574 471 591 488 q 532 453 557 453 q 490 471 508 453 q 476 490 481 479 l 420 590 l 283 418 q 237 298 239 367 q 289 171 237 223 q 416 119 341 119 q 543 172 490 119 q 576 219 564 193 l 605 275 l 726 566 q 741 588 731 578 q 783 605 758 605 q 825 588 808 605 q 842 546 842 570 q 834 516 842 530 l 732 281 l 840 90 q 849 59 849 76 q 832 16 849 34 q 790 -1 814 -1 q 748 17 765 -1 q 733 38 738 26 l 673 145 q 626 87 654 115 q 416 0 539 0 q 205 87 293 0 q 118 298 118 175 q 185 484 118 405 l 356 702 q 222 938 250 874 q 197 1052 197 990 q 273 1234 197 1159 q 455 1310 348 1310 q 638 1234 563 1310 q 713 1052 713 1159 q 670 907 713 970 q 639 862 659 890 z "},"'":{"ha":218,"x_min":40,"x_max":189,"o":"m 72 1382 q 100 1419 78 1406 q 130 1427 114 1427 q 145 1425 137 1427 q 182 1397 169 1418 q 189 1366 189 1382 q 188 1351 189 1359 l 157 1236 q 130 1201 151 1213 q 99 1192 115 1192 q 84 1194 92 1192 q 49 1222 61 1201 q 40 1252 40 1236 q 42 1268 40 1260 l 72 1382 z "},"(":{"ha":397,"x_min":79,"x_max":337,"o":"m 218 1379 q 236 1412 224 1397 q 278 1429 253 1429 q 320 1411 303 1429 q 337 1369 337 1394 q 334 1350 337 1359 q 196 656 196 1003 q 334 -40 196 309 q 337 -59 337 -49 q 320 -101 337 -83 q 278 -118 303 -118 q 236 -100 253 -118 q 218 -68 225 -87 q 79 656 79 294 q 218 1379 79 1018 z "},")":{"ha":397,"x_min":61,"x_max":318,"o":"m 180 1379 q 162 1412 174 1397 q 120 1429 145 1429 q 78 1411 95 1429 q 61 1369 61 1394 q 63 1350 61 1359 q 201 656 201 1003 q 63 -40 201 309 q 61 -59 61 -49 q 78 -101 61 -83 q 120 -118 95 -118 q 162 -100 145 -118 q 180 -68 173 -87 q 318 656 318 294 q 180 1379 318 1018 z "},"*":{"ha":615,"x_min":80,"x_max":538,"o":"m 205 1159 l 121 1187 q 87 1216 98 1194 q 80 1243 80 1229 q 83 1262 80 1252 q 113 1297 90 1285 q 139 1303 126 1303 q 158 1300 149 1303 l 249 1270 l 249 1367 q 266 1409 249 1392 q 309 1427 284 1427 q 351 1409 333 1427 q 368 1367 368 1392 l 368 1271 l 460 1301 q 479 1304 469 1304 q 506 1298 492 1304 q 535 1263 528 1286 q 538 1244 538 1253 q 532 1217 538 1230 q 497 1188 520 1195 l 410 1160 l 469 1089 q 483 1053 483 1073 l 483 1047 q 461 1006 480 1022 q 424 992 444 992 l 419 992 q 378 1013 394 994 l 309 1095 l 239 1013 q 199 992 223 994 l 193 992 q 156 1006 173 992 q 134 1054 135 1023 q 147 1089 134 1073 l 205 1159 z "},"+":{"ha":675,"x_min":80,"x_max":596,"o":"m 278 556 l 140 556 q 98 573 115 556 q 80 615 80 590 q 98 657 80 640 q 140 675 115 675 l 278 675 l 278 813 q 295 856 278 838 q 337 873 313 873 q 379 856 362 873 q 397 813 397 838 l 397 675 l 537 675 q 579 657 562 675 q 596 615 596 640 q 579 573 596 590 q 537 556 562 556 l 397 556 l 397 417 q 379 375 397 392 q 337 357 362 357 q 295 375 313 357 q 278 417 278 392 l 278 556 z "},",":{"ha":238,"x_min":40,"x_max":189,"o":"m 72 75 q 100 112 78 99 q 130 120 114 120 q 145 118 137 120 q 182 90 169 111 q 189 60 189 75 q 188 45 189 53 l 157 -70 q 130 -105 151 -93 q 99 -114 115 -114 q 84 -112 92 -114 q 49 -84 61 -105 q 40 -55 40 -70 q 42 -39 40 -47 l 72 75 z "},"-":{"ha":516,"x_min":78,"x_max":437,"o":"m 138 595 q 96 613 113 595 q 78 655 78 630 q 96 697 78 680 q 138 714 113 714 l 377 714 q 419 697 402 714 q 437 655 437 680 q 419 613 437 630 q 377 595 402 595 l 138 595 z "},"­":{"ha":516,"x_min":78,"x_max":437,"o":"m 138 595 q 96 613 113 595 q 78 655 78 630 q 96 697 78 680 q 138 714 113 714 l 377 714 q 419 697 402 714 q 437 655 437 680 q 419 613 437 630 q 377 595 402 595 l 138 595 z "},".":{"ha":317,"x_min":79,"x_max":238,"o":"m 159 159 q 215 135 191 159 q 238 79 238 112 q 215 23 238 47 q 159 0 191 0 q 103 23 126 0 q 79 79 79 47 q 103 135 79 112 q 159 159 126 159 z "},"/":{"ha":516,"x_min":20,"x_max":496,"o":"m 379 1266 q 395 1293 383 1281 q 437 1310 413 1310 q 479 1292 461 1310 q 496 1250 496 1275 q 493 1230 496 1239 l 136 41 q 122 18 132 28 q 79 0 104 0 q 37 18 55 0 q 20 60 20 36 q 23 79 20 70 l 379 1266 z "},":":{"ha":317,"x_min":79,"x_max":238,"o":"m 159 357 q 215 334 191 357 q 238 278 238 311 q 215 222 238 245 q 159 198 191 198 q 103 222 126 198 q 79 278 79 245 q 103 334 79 311 q 159 357 126 357 m 159 962 q 215 939 191 962 q 238 883 238 916 q 215 827 238 850 q 159 804 191 804 q 103 827 126 804 q 79 883 79 850 q 103 939 79 916 q 159 962 126 962 z "},";":{"ha":317,"x_min":40,"x_max":237,"o":"m 72 75 q 100 112 78 99 q 130 120 114 120 q 145 118 137 120 q 182 90 169 111 q 189 60 189 75 q 188 45 189 53 l 157 -70 q 130 -105 151 -93 q 99 -114 115 -114 q 84 -112 92 -114 q 49 -84 61 -105 q 40 -55 40 -70 q 42 -39 40 -47 l 72 75 m 158 962 q 214 939 190 962 q 237 883 237 916 q 214 827 237 850 q 158 804 190 804 q 102 827 125 804 q 78 883 78 850 q 102 939 78 916 q 158 962 125 962 z "},"<":{"ha":595,"x_min":120,"x_max":492,"o":"m 474 444 q 492 403 492 427 q 474 360 492 378 q 433 342 457 342 q 390 360 408 342 l 138 612 q 120 655 120 630 q 137 696 120 680 l 390 949 q 432 966 407 966 q 473 949 456 966 q 491 907 491 932 q 472 864 491 882 l 264 655 l 474 444 z "},"=":{"ha":675,"x_min":80,"x_max":596,"o":"z "},">":{"ha":635,"x_min":119,"x_max":491,"o":"m 137 860 q 119 902 119 878 q 137 944 119 927 q 179 962 154 962 q 221 944 203 962 l 473 692 q 491 650 491 675 q 474 608 491 625 l 221 355 q 180 338 204 338 q 138 355 155 338 q 120 398 120 373 q 139 440 120 423 l 347 650 l 137 860 z "},"?":{"ha":595,"x_min":40,"x_max":535,"o":"m 316 336 q 299 293 316 311 q 257 276 282 276 q 215 293 232 276 q 197 336 197 311 q 307 708 197 525 q 416 1021 416 891 q 370 1143 416 1096 q 257 1189 323 1189 q 142 1141 191 1189 q 99 1123 124 1123 q 57 1140 74 1123 q 40 1183 40 1158 q 58 1224 40 1206 q 257 1310 142 1310 q 453 1228 372 1310 q 535 1022 535 1147 l 535 1021 q 426 658 535 841 q 316 336 316 474 m 258 159 q 314 135 291 159 q 337 79 337 112 q 314 23 337 47 q 258 0 291 0 q 202 23 225 0 q 179 79 179 47 q 202 135 179 112 q 258 159 225 159 z "},"@":{"ha":1429,"x_min":119,"x_max":1310,"o":"m 992 298 q 975 255 992 273 q 933 238 957 238 q 890 255 908 238 q 873 298 873 273 l 873 713 q 826 825 873 779 q 714 872 780 872 q 602 825 649 872 q 556 713 556 779 l 556 278 q 602 166 556 212 q 714 119 649 119 l 952 119 q 1121 189 1065 129 q 1190 357 1190 259 l 1190 713 l 1189 713 q 1051 1051 1189 911 q 713 1189 911 1189 q 378 1051 517 1189 q 238 713 238 911 l 238 279 q 377 -58 238 81 q 714 -198 517 -197 l 1012 -198 q 1054 -216 1037 -198 q 1071 -258 1071 -233 q 1054 -300 1071 -283 q 1012 -317 1037 -317 l 714 -317 q 294 -142 467 -316 q 119 278 119 32 l 119 713 q 294 1135 119 960 q 713 1309 467 1309 l 714 1309 q 1135 1135 960 1309 q 1309 713 1309 960 l 1310 713 l 1310 357 q 1205 105 1310 209 q 952 0 1100 0 l 714 0 q 518 81 599 0 q 437 278 437 163 l 437 713 q 518 910 437 828 q 714 991 599 991 q 911 910 829 991 q 992 713 992 828 l 992 298 z "},"A":{"ha":794,"x_min":20,"x_max":774,"o":"m 397 394 q 439 376 422 394 q 456 334 456 359 q 439 292 456 310 q 397 275 422 275 l 199 275 l 139 50 q 122 18 134 31 q 79 0 104 0 q 37 17 55 0 q 20 60 20 35 q 21 72 20 66 l 338 1257 q 355 1291 342 1276 q 397 1309 373 1309 q 439 1291 422 1309 q 455 1257 451 1276 l 773 72 q 774 60 774 66 q 756 17 774 35 q 714 0 739 0 q 673 18 689 0 q 655 50 660 31 l 397 1016 l 231 394 l 397 394 z "},"B":{"ha":833,"x_min":159,"x_max":714,"o":"m 159 1250 q 176 1292 159 1275 q 218 1310 193 1310 q 260 1292 243 1310 q 278 1250 278 1275 l 278 60 q 260 17 278 35 q 218 0 243 0 q 176 17 193 0 q 159 60 159 35 l 159 1250 m 714 276 q 633 79 714 161 q 460 -1 561 6 q 414 16 432 -1 q 397 59 397 34 q 415 100 397 83 q 451 118 430 116 q 549 164 508 123 q 595 276 595 210 l 595 438 q 549 551 595 504 q 460 595 511 588 q 415 613 432 595 q 397 655 397 630 l 397 656 q 415 698 397 681 q 460 715 432 715 q 549 760 511 722 q 595 872 595 807 l 595 1033 q 549 1145 595 1098 q 451 1190 508 1186 q 415 1208 430 1192 q 397 1250 397 1225 q 414 1292 397 1275 q 460 1310 432 1310 q 633 1229 561 1303 q 714 1033 714 1148 l 714 872 q 611 655 714 737 q 714 438 714 573 l 714 276 z "},"C":{"ha":675,"x_min":119,"x_max":613,"o":"m 512 149 q 554 166 529 166 q 596 148 578 166 q 613 106 613 131 q 596 64 613 82 q 397 -21 512 -21 q 200 61 282 -21 q 119 257 119 142 l 119 1053 q 200 1249 119 1168 q 397 1330 282 1330 q 596 1245 512 1330 q 613 1203 613 1227 q 596 1161 613 1179 q 554 1144 578 1144 q 512 1162 529 1144 q 397 1210 462 1210 q 284 1164 330 1210 q 238 1052 238 1117 l 238 258 q 284 146 238 192 q 397 99 330 99 q 512 149 462 99 z "},"D":{"ha":794,"x_min":159,"x_max":714,"o":"m 451 119 q 549 165 508 124 q 595 276 595 210 l 595 1032 q 549 1144 595 1097 q 437 1190 502 1190 l 278 1190 l 278 60 q 260 17 278 35 q 218 0 243 0 q 176 17 193 0 q 159 60 159 35 l 159 1250 q 176 1292 159 1275 q 218 1310 193 1310 l 437 1310 q 633 1228 552 1310 q 714 1032 714 1147 l 714 276 q 633 80 714 161 q 460 0 561 7 q 414 17 432 0 q 397 60 397 35 q 415 101 397 84 q 451 119 430 117 z "},"E":{"ha":714,"x_min":159,"x_max":656,"o":"m 159 1250 q 176 1292 159 1275 q 218 1310 193 1310 l 596 1310 q 638 1292 621 1310 q 656 1250 656 1275 q 638 1208 656 1226 q 596 1190 621 1190 l 278 1190 l 278 714 l 536 714 q 578 697 561 714 q 595 655 595 680 q 578 613 595 630 q 536 595 561 595 l 278 595 l 278 119 l 596 119 q 638 102 621 119 q 656 60 656 84 q 638 18 656 36 q 596 0 621 0 l 218 0 q 176 17 193 0 q 159 60 159 35 l 159 1250 z "},"F":{"ha":675,"x_min":159,"x_max":656,"o":"m 536 714 q 578 697 561 714 q 595 655 595 680 q 578 613 595 630 q 536 595 561 595 l 278 595 l 278 60 q 260 17 278 35 q 218 0 243 0 q 176 17 193 0 q 159 60 159 35 l 159 1250 q 176 1292 159 1275 q 218 1310 193 1310 l 596 1310 q 638 1292 621 1310 q 656 1250 656 1275 q 638 1208 656 1226 q 596 1190 621 1190 l 278 1190 l 278 714 l 536 714 z "},"G":{"ha":795,"x_min":119,"x_max":675,"o":"m 596 1245 q 613 1203 613 1227 q 596 1161 613 1179 q 554 1144 578 1144 q 512 1162 529 1144 q 397 1210 462 1210 q 284 1164 330 1210 q 238 1052 238 1117 l 238 278 q 284 166 238 212 q 397 119 330 119 l 556 119 l 556 575 l 496 575 q 454 593 471 575 q 437 635 437 611 q 454 677 437 660 q 496 694 471 694 l 616 694 q 658 677 641 694 q 675 635 675 660 l 675 60 q 657 18 675 36 q 615 0 640 0 l 397 0 q 200 81 282 0 q 119 277 119 162 l 119 1053 q 200 1249 119 1168 q 397 1330 282 1330 q 596 1245 512 1330 z "},"H":{"ha":913,"x_min":159,"x_max":753,"o":"m 159 1250 q 176 1292 159 1275 q 218 1310 193 1310 q 260 1292 243 1310 q 278 1250 278 1275 l 278 714 l 634 714 l 634 1250 q 651 1292 634 1275 q 693 1310 669 1310 q 736 1292 718 1310 q 753 1250 753 1275 l 753 60 q 736 17 753 35 q 693 0 718 0 q 651 17 669 0 q 634 60 634 35 l 634 595 l 278 595 l 278 60 q 260 17 278 35 q 218 0 243 0 q 176 17 193 0 q 159 60 159 35 l 159 1250 z "},"I":{"ha":437,"x_min":159,"x_max":278,"o":"m 159 1250 q 176 1292 159 1275 q 218 1310 193 1310 q 260 1292 243 1310 q 278 1250 278 1275 l 278 60 q 260 17 278 35 q 218 0 243 0 q 176 17 193 0 q 159 60 159 35 l 159 1250 z "},"J":{"ha":496,"x_min":59,"x_max":356,"o":"m 158 1190 q 116 1208 133 1190 q 98 1250 98 1225 q 116 1292 98 1275 q 158 1310 133 1310 l 297 1310 q 339 1292 321 1310 q 356 1250 356 1275 l 356 237 q 287 69 356 139 q 119 0 218 0 q 76 18 93 0 q 59 60 59 36 q 76 102 59 84 q 118 119 93 119 q 202 153 171 121 q 237 237 237 188 l 237 1190 l 158 1190 z "},"K":{"ha":833,"x_min":159,"x_max":745,"o":"m 159 1250 q 176 1292 159 1275 q 218 1310 193 1310 q 260 1292 243 1310 q 278 1250 278 1275 l 278 60 q 260 17 278 35 q 218 0 243 0 q 176 17 193 0 q 159 60 159 35 l 159 1250 m 634 1277 q 646 1293 638 1285 q 688 1310 663 1310 q 729 1293 712 1310 q 745 1251 745 1276 q 737 1217 745 1232 l 482 645 l 737 93 q 745 59 745 77 q 729 17 745 34 q 688 0 712 0 q 646 17 663 0 q 634 33 638 25 l 365 614 q 357 645 357 628 q 365 676 357 662 l 634 1277 z "},"L":{"ha":635,"x_min":159,"x_max":615,"o":"m 159 1250 q 176 1292 159 1275 q 218 1310 193 1310 q 260 1292 243 1310 q 278 1250 278 1275 l 278 119 l 556 119 q 598 102 580 119 q 615 60 615 84 q 598 17 615 35 q 556 0 580 0 l 218 0 q 176 17 193 0 q 159 60 159 35 l 159 1250 z "},"M":{"ha":1230,"x_min":159,"x_max":1071,"o":"m 958 1277 q 970 1293 963 1285 q 1012 1310 988 1310 q 1054 1292 1037 1310 q 1071 1250 1071 1275 l 1071 59 q 1055 18 1071 35 q 1012 0 1037 0 q 970 18 988 0 q 952 59 952 35 l 952 975 l 673 362 q 641 328 663 339 q 616 322 629 322 q 596 326 606 322 q 563 356 572 334 l 278 977 l 278 60 q 260 17 278 35 q 218 0 243 0 q 176 17 193 0 q 159 60 159 35 l 159 1250 q 176 1292 159 1274 q 218 1310 193 1310 q 261 1292 243 1310 q 271 1279 267 1286 l 616 527 l 958 1277 z "},"N":{"ha":992,"x_min":159,"x_max":833,"o":"m 278 60 q 260 17 278 35 q 218 0 243 0 q 176 17 193 0 q 159 60 159 35 l 159 1251 q 176 1293 159 1276 q 218 1311 193 1311 q 261 1294 243 1311 q 271 1280 267 1287 l 714 326 l 714 1251 q 732 1293 714 1276 q 774 1311 749 1311 q 816 1293 799 1311 q 833 1251 833 1276 l 833 59 q 816 18 833 35 q 774 0 799 0 q 732 18 749 0 q 717 40 723 27 l 278 989 l 278 60 z "},"O":{"ha":794,"x_min":119,"x_max":675,"o":"m 490 1195 q 474 1207 481 1199 q 456 1249 456 1224 q 474 1291 456 1274 q 516 1309 491 1309 q 552 1298 536 1309 q 593 1263 573 1283 q 675 1066 675 1182 l 675 242 q 593 46 675 127 q 548 8 571 24 q 516 -1 534 -1 q 474 17 491 -1 q 456 59 456 35 q 474 101 456 83 q 482 108 478 105 q 509 130 496 117 q 556 242 556 177 l 556 1066 q 509 1179 556 1132 q 490 1195 500 1188 m 243 1299 q 278 1310 258 1310 q 320 1292 303 1310 q 337 1250 337 1274 q 320 1208 337 1225 q 311 1199 315 1203 q 285 1179 297 1190 q 238 1066 238 1132 l 238 242 q 285 130 238 177 q 311 109 297 118 q 319 102 315 106 q 337 60 337 84 q 319 17 337 35 q 278 0 302 0 q 245 9 260 0 q 200 46 221 25 q 119 242 119 127 l 119 1066 q 200 1263 119 1182 q 243 1299 221 1284 z "},"P":{"ha":794,"x_min":159,"x_max":714,"o":"m 451 475 q 415 457 430 473 q 397 416 397 440 q 414 374 397 391 q 460 356 432 356 q 633 437 561 363 q 714 633 714 518 l 714 1031 q 633 1227 714 1146 q 437 1309 552 1309 l 218 1309 q 176 1291 193 1309 q 159 1249 159 1274 l 159 59 q 176 16 159 34 q 218 -1 193 -1 q 260 16 243 -1 q 278 59 278 34 l 278 1189 l 437 1189 q 549 1143 502 1189 q 595 1031 595 1096 l 595 633 q 549 521 595 567 q 451 475 508 480 z "},"Q":{"ha":794,"x_min":119,"x_max":722,"o":"m 668 191 q 652 162 665 175 q 609 144 634 144 q 567 161 584 144 q 550 203 550 179 q 551 217 550 210 q 556 258 556 236 l 556 1052 q 509 1164 556 1117 q 397 1210 462 1210 q 285 1164 331 1210 q 238 1052 238 1117 l 238 258 q 281 153 238 192 q 377 99 324 113 l 682 -7 q 716 -37 705 -15 q 722 -63 722 -51 q 719 -82 722 -72 q 689 -117 711 -106 q 663 -123 676 -123 q 643 -120 653 -123 l 324 -11 q 200 62 248 16 q 119 258 119 143 l 119 1052 q 200 1248 119 1167 q 397 1329 282 1329 q 593 1248 512 1329 q 675 1052 675 1167 l 675 258 q 668 191 675 223 z "},"R":{"ha":833,"x_min":159,"x_max":754,"o":"m 509 540 q 561 570 537 548 q 595 655 595 605 l 595 1071 q 560 1156 595 1121 q 476 1190 525 1190 l 278 1190 l 278 60 q 260 17 278 35 q 218 0 243 0 q 176 17 193 0 q 159 60 159 35 l 159 1250 q 176 1292 159 1275 q 218 1310 193 1310 l 476 1310 q 644 1240 574 1310 q 714 1071 714 1170 l 714 655 q 645 487 714 557 q 599 450 623 465 l 748 85 q 754 60 754 72 q 751 42 754 51 q 721 7 743 18 q 694 0 708 0 q 677 2 686 0 q 641 33 653 10 l 471 453 q 464 482 464 466 q 482 525 464 507 q 509 540 494 537 z "},"S":{"ha":635,"x_min":63,"x_max":581,"o":"m 96 71 q 77 118 77 93 q 97 160 79 143 q 140 175 114 175 q 185 152 165 173 q 295 99 229 103 l 303 99 q 409 141 363 99 q 461 250 457 185 l 461 263 q 262 647 461 427 q 63 1050 63 866 l 63 1065 q 156 1259 70 1182 q 339 1329 235 1329 l 356 1329 q 548 1238 471 1323 q 566 1191 566 1216 q 547 1151 564 1167 q 507 1135 530 1135 q 460 1158 479 1136 q 349 1209 415 1206 l 338 1209 q 235 1170 280 1209 q 183 1060 187 1125 l 183 1051 q 384 691 183 913 q 581 266 581 473 q 580 244 581 255 q 488 51 573 128 q 304 -21 409 -21 l 288 -21 q 96 71 173 -14 z "},"T":{"ha":595,"x_min":10,"x_max":565,"o":"m 69 1190 q 27 1208 45 1190 q 10 1250 10 1225 q 27 1292 10 1275 q 69 1310 45 1310 l 506 1310 q 548 1292 531 1310 q 565 1250 565 1275 q 548 1208 565 1225 q 506 1190 531 1190 l 347 1190 l 347 60 q 330 17 347 35 q 288 0 313 0 q 246 17 263 0 q 228 60 228 35 l 228 1190 l 69 1190 z "},"U":{"ha":833,"x_min":139,"x_max":694,"o":"m 139 1249 q 156 1291 139 1274 q 198 1309 174 1309 q 241 1291 223 1309 q 258 1249 258 1274 l 258 258 q 305 146 258 192 q 417 99 351 99 q 529 146 482 99 q 575 258 575 192 l 575 1249 q 593 1291 575 1274 q 635 1309 610 1309 q 677 1291 660 1309 q 694 1249 694 1274 l 694 258 q 613 62 694 143 q 417 -20 532 -20 q 220 62 302 -20 q 139 258 139 143 l 139 1249 z "},"V":{"ha":794,"x_min":20,"x_max":774,"o":"m 21 1237 q 20 1250 20 1243 q 37 1292 20 1275 q 79 1310 55 1310 q 122 1293 104 1310 q 139 1260 135 1279 l 397 293 l 655 1260 q 673 1293 659 1279 q 714 1310 689 1310 q 756 1292 739 1310 q 774 1250 774 1275 q 773 1237 774 1243 l 455 52 q 439 18 451 33 q 397 0 422 0 q 355 18 373 0 q 338 52 342 33 l 21 1237 z "},"W":{"ha":1190,"x_min":4,"x_max":1185,"o":"m 896 52 q 879 18 893 33 q 837 0 861 0 q 796 18 813 0 q 779 52 783 33 l 594 802 l 411 53 q 393 18 407 33 q 351 0 375 0 q 310 18 326 0 q 292 52 296 33 l 5 1237 q 4 1250 4 1243 q 21 1292 4 1275 q 63 1310 39 1310 q 106 1293 88 1310 q 123 1260 119 1279 l 351 314 l 531 1052 q 554 1095 538 1079 q 595 1111 570 1111 q 636 1094 620 1111 q 658 1052 652 1077 l 837 314 l 1065 1260 q 1083 1293 1069 1279 q 1125 1310 1100 1310 q 1167 1292 1150 1310 q 1185 1250 1185 1275 q 1184 1237 1185 1243 l 896 52 z "},"X":{"ha":690,"x_min":10,"x_max":670,"o":"m 340 800 l 557 1277 q 592 1307 568 1299 q 610 1310 601 1310 q 637 1303 624 1310 q 667 1269 659 1292 q 670 1250 670 1259 q 663 1223 670 1236 l 405 655 l 664 85 q 670 60 670 72 q 667 42 670 51 q 637 7 659 18 q 610 0 624 0 q 592 3 601 0 q 557 33 568 11 l 340 510 l 123 33 q 88 3 112 11 q 70 0 79 0 q 44 7 57 0 q 14 42 22 18 q 11 60 11 51 q 17 86 11 73 l 275 655 l 15 1227 q 10 1250 10 1238 q 13 1269 10 1259 q 43 1303 21 1292 q 69 1310 56 1310 q 87 1307 78 1310 q 123 1277 111 1299 l 340 800 z "},"Y":{"ha":635,"x_min":21,"x_max":616,"o":"m 23 1231 q 21 1250 21 1240 q 38 1292 21 1275 q 79 1310 55 1310 q 122 1293 104 1310 q 136 1270 132 1282 l 318 627 l 500 1264 q 517 1293 504 1280 q 559 1310 535 1310 q 600 1292 583 1310 q 616 1250 616 1275 q 613 1226 616 1237 l 377 409 l 377 60 q 360 17 377 35 q 317 0 342 0 q 276 17 294 0 q 258 60 258 35 l 258 410 l 23 1231 z "},"Z":{"ha":670,"x_min":40,"x_max":615,"o":"m 99 1190 q 57 1208 74 1190 q 40 1250 40 1225 q 57 1292 40 1275 q 99 1310 74 1310 l 556 1310 q 598 1292 580 1310 q 615 1250 615 1275 q 611 1227 615 1238 l 187 119 l 556 119 q 598 102 580 119 q 615 60 615 84 q 598 18 615 36 q 556 0 580 0 l 99 0 q 58 18 75 0 q 41 60 41 36 q 46 86 41 74 l 468 1190 l 99 1190 z "},"[":{"ha":516,"x_min":159,"x_max":457,"o":"m 159 1448 q 176 1491 159 1473 q 218 1508 193 1508 l 398 1508 q 440 1491 423 1508 q 457 1448 457 1473 q 440 1406 457 1424 q 398 1389 423 1389 l 278 1389 l 278 -79 l 397 -79 q 439 -97 422 -79 q 456 -139 456 -114 q 439 -181 456 -164 q 397 -198 422 -198 l 218 -198 q 176 -181 193 -198 q 159 -139 159 -164 l 159 1448 z "},"\\":{"ha":516,"x_min":19,"x_max":495,"o":"m 136 1266 q 120 1293 132 1281 q 78 1310 102 1310 q 36 1292 54 1310 q 19 1250 19 1275 q 22 1230 19 1239 l 379 41 q 393 18 383 28 q 436 0 411 0 q 478 18 460 0 q 495 60 495 36 q 492 79 495 70 l 136 1266 z "},"]":{"ha":516,"x_min":60,"x_max":358,"o":"m 358 -139 q 341 -181 358 -164 q 299 -198 323 -198 l 119 -198 q 77 -181 94 -198 q 60 -139 60 -164 q 77 -97 60 -114 q 119 -79 94 -79 l 239 -79 l 239 1389 l 120 1389 q 78 1406 95 1389 q 61 1448 61 1424 q 78 1491 61 1473 q 120 1508 95 1508 l 299 1508 q 341 1491 323 1508 q 358 1448 358 1473 l 358 -139 z "},"^":{"ha":794,"x_min":85,"x_max":709,"o":"m 1908 324 q 1949 342 1926 342 q 1992 324 1974 342 q 2010 283 2010 308 q 1992 240 2010 258 l 1740 -12 q 1697 -30 1722 -30 q 1656 -13 1673 -30 l 1403 240 q 1386 282 1386 257 q 1403 323 1386 307 q 1445 341 1421 341 q 1488 322 1470 341 l 1697 114 l 1908 324 z "},"_":{"ha":714,"x_min":78,"x_max":633,"o":"m 138 -119 q 96 -102 113 -119 q 78 -60 78 -84 q 96 -17 78 -35 q 138 0 113 0 l 573 0 q 616 -17 598 0 q 633 -60 633 -35 q 616 -102 633 -84 q 573 -119 598 -119 l 138 -119 z "},"`":{"ha":238,"x_min":39,"x_max":188,"o":"m 156 1301 q 128 1337 150 1324 q 98 1345 114 1345 q 83 1343 91 1345 q 47 1315 60 1336 q 39 1285 39 1301 q 41 1270 39 1278 l 71 1155 q 98 1120 77 1132 q 129 1111 113 1111 q 144 1113 136 1111 q 180 1141 168 1120 q 188 1171 188 1155 q 187 1187 188 1179 l 156 1301 z "},"a":{"ha":774,"x_min":119,"x_max":675,"o":"m 397 0 q 200 81 282 0 q 119 278 119 163 l 119 358 q 200 555 119 473 q 371 635 273 627 q 419 617 402 635 q 437 575 437 599 q 420 534 437 551 q 383 516 404 518 q 285 470 326 512 q 238 358 238 424 l 238 278 q 285 166 238 212 q 397 119 331 119 l 556 119 l 556 693 q 508 806 555 759 q 396 852 462 852 q 282 805 330 852 q 240 787 265 787 q 198 804 215 787 q 181 846 181 821 q 197 888 181 870 q 396 972 281 972 q 592 891 511 972 q 675 693 674 810 l 675 60 q 657 17 675 35 q 615 0 640 0 l 397 0 z "},"b":{"ha":833,"x_min":159,"x_max":714,"o":"m 451 833 q 415 851 430 835 q 397 893 397 868 q 414 935 397 918 q 460 952 432 952 q 633 872 561 945 q 714 676 714 791 l 714 278 q 633 81 714 163 q 437 0 552 0 l 218 0 q 176 17 193 0 q 159 60 159 35 l 159 1250 q 176 1292 159 1275 q 218 1310 193 1310 q 260 1292 243 1310 q 278 1250 278 1275 l 278 119 l 437 119 q 549 166 502 119 q 595 278 595 212 l 595 676 q 549 788 595 741 q 451 833 508 828 z "},"c":{"ha":694,"x_min":119,"x_max":613,"o":"m 509 146 q 554 166 529 166 q 596 148 578 166 q 613 106 613 131 q 593 61 613 82 q 397 -21 512 -21 q 200 61 282 -21 q 119 257 119 142 l 119 695 q 200 892 119 811 q 397 973 282 973 q 593 892 512 973 q 613 846 613 870 q 596 804 613 821 q 554 787 578 787 q 509 807 529 787 q 397 853 462 853 q 284 807 330 853 q 238 694 238 760 l 238 258 q 284 146 238 192 q 397 99 330 99 q 509 146 462 99 z "},"d":{"ha":833,"x_min":120,"x_max":676,"o":"m 383 833 q 420 851 405 835 q 438 893 438 868 q 420 935 438 918 q 374 952 403 952 q 201 872 274 945 q 120 676 120 791 l 120 278 q 201 81 120 163 q 398 0 283 0 l 616 0 q 658 17 641 0 q 676 60 676 35 l 676 1250 q 658 1292 676 1275 q 616 1310 641 1310 q 574 1292 591 1310 q 557 1250 557 1275 l 557 119 l 398 119 q 286 166 332 119 q 239 278 239 212 l 239 676 q 286 788 239 741 q 383 833 326 828 z "},"e":{"ha":774,"x_min":119,"x_max":675,"o":"m 417 397 q 375 414 392 397 q 357 456 357 432 q 375 499 357 481 q 417 516 392 516 l 556 516 l 556 694 q 509 807 556 760 q 397 853 462 853 q 285 807 331 853 q 238 694 238 760 l 238 258 q 284 146 238 192 q 397 99 330 99 q 509 146 462 99 q 553 165 528 165 q 595 147 577 165 q 612 105 612 130 q 593 61 612 81 q 397 -21 512 -21 q 200 61 282 -21 q 119 257 119 142 l 119 694 q 200 891 119 810 q 397 972 282 972 q 593 891 512 972 q 675 694 675 810 l 675 456 q 658 416 675 434 q 615 397 640 398 l 417 397 z "},"f":{"ha":437,"x_min":59,"x_max":417,"o":"m 238 952 l 356 952 q 398 935 381 952 q 416 893 416 918 q 398 851 416 868 q 356 833 381 833 l 238 833 l 238 60 q 220 17 237 35 q 178 0 202 0 q 136 17 154 0 q 119 60 119 35 l 119 833 l 118 833 q 76 851 93 833 q 59 893 59 869 q 76 935 59 918 q 118 952 93 952 l 119 952 l 119 1070 q 188 1240 119 1170 q 357 1310 258 1310 q 399 1292 382 1310 q 417 1250 417 1275 q 399 1208 417 1225 q 357 1190 382 1190 q 272 1156 307 1190 q 238 1070 238 1121 l 238 952 z "},"g":{"ha":833,"x_min":119,"x_max":675,"o":"m 375 120 q 420 101 403 117 q 437 61 437 84 q 419 18 437 36 q 377 1 402 1 l 372 1 q 200 81 273 9 q 119 278 119 163 l 119 675 q 200 871 119 790 q 397 952 282 952 l 615 952 q 657 935 640 952 q 675 893 675 918 l 675 -40 l 674 -40 l 674 -41 q 592 -237 674 -156 q 396 -318 511 -318 q 199 -237 281 -318 q 181 -192 181 -216 q 198 -150 181 -168 q 240 -133 215 -133 q 284 -152 265 -133 q 396 -198 330 -198 q 508 -152 462 -198 q 555 -40 555 -105 l 556 -40 l 556 833 l 397 833 q 285 787 331 833 q 238 675 238 740 l 238 278 q 285 166 238 212 q 375 120 323 127 z "},"h":{"ha":853,"x_min":159,"x_max":714,"o":"m 278 832 l 278 60 q 260 17 278 35 q 218 0 243 0 q 176 17 193 0 q 159 60 159 35 l 159 1250 q 176 1292 159 1275 q 218 1310 193 1310 q 260 1292 243 1310 q 278 1250 278 1275 l 278 951 l 437 951 q 633 870 552 951 q 714 674 714 789 l 714 60 q 697 17 714 35 q 655 0 680 0 q 613 17 630 0 q 595 60 595 35 l 595 674 q 549 786 595 739 q 437 832 502 832 l 278 832 z "},"i":{"ha":437,"x_min":136,"x_max":295,"o":"m 275 60 q 257 17 275 35 q 215 0 240 0 q 173 17 190 0 q 156 60 156 35 l 156 893 q 173 935 156 918 q 215 952 190 952 q 257 935 240 952 q 275 893 275 918 l 275 60 m 215 1270 q 271 1247 248 1270 q 295 1190 295 1223 q 271 1134 295 1158 q 215 1111 248 1111 q 159 1134 183 1111 q 136 1190 136 1158 q 159 1247 136 1223 q 215 1270 183 1270 z "},"j":{"ha":437,"x_min":-21,"x_max":303,"o":"m 158 0 l 158 893 q 175 935 158 918 q 217 952 192 952 q 259 935 242 952 q 277 893 277 918 l 277 0 q 207 -168 277 -98 q 39 -238 137 -238 q -3 -220 14 -238 q -21 -179 -21 -202 q -3 -136 -21 -154 q 39 -119 14 -119 q 123 -84 88 -119 q 158 0 158 -50 m 223 1270 q 279 1247 256 1270 q 303 1190 303 1223 q 279 1134 303 1158 q 223 1111 256 1111 q 167 1134 190 1111 q 144 1190 144 1158 q 167 1247 144 1223 q 223 1270 190 1270 z "},"k":{"ha":774,"x_min":159,"x_max":686,"o":"m 676 91 q 686 60 686 73 q 683 42 686 51 q 653 7 675 18 q 626 0 640 0 q 608 3 617 0 q 572 33 584 11 l 354 428 q 341 474 341 451 q 356 525 341 500 l 574 922 q 585 936 578 929 q 627 952 602 952 q 669 935 652 952 q 686 893 686 918 q 677 859 686 874 l 486 516 q 475 474 475 495 q 485 436 475 455 l 676 91 m 159 1250 q 176 1292 159 1275 q 218 1310 193 1310 q 260 1292 243 1310 q 278 1250 278 1275 l 278 60 q 260 17 278 35 q 218 0 243 0 q 176 17 193 0 q 159 60 159 35 l 159 1250 z "},"l":{"ha":437,"x_min":159,"x_max":278,"o":"m 159 1250 q 176 1292 159 1275 q 218 1310 193 1310 q 260 1292 243 1310 q 278 1250 278 1275 l 278 60 q 260 17 278 35 q 218 0 243 0 q 176 17 193 0 q 159 60 159 35 l 159 1250 z "},"m":{"ha":1210,"x_min":159,"x_max":1071,"o":"m 278 60 q 260 17 278 35 q 218 0 243 0 q 176 17 193 0 q 159 60 159 35 l 159 893 q 176 935 159 918 q 218 952 193 952 l 794 952 q 990 871 909 952 q 1071 675 1071 790 l 1071 60 q 1054 17 1071 35 q 1012 0 1037 0 q 970 17 987 0 q 952 60 952 35 l 952 675 q 906 787 952 740 q 794 833 859 833 l 675 833 l 675 60 q 657 17 675 35 q 615 0 640 0 q 573 17 590 0 q 556 60 556 35 l 556 833 l 278 833 l 278 60 z "},"n":{"ha":853,"x_min":159,"x_max":714,"o":"m 278 60 q 260 17 278 35 q 218 0 243 0 q 176 17 193 0 q 159 60 159 35 l 159 893 q 176 935 159 918 q 218 952 193 952 l 437 952 q 633 871 552 952 q 714 675 714 790 l 714 60 q 697 17 714 35 q 655 0 680 0 q 613 17 630 0 q 595 60 595 35 l 595 675 q 549 787 595 740 q 437 833 502 833 l 278 833 l 278 60 z "},"o":{"ha":794,"x_min":119,"x_max":675,"o":"m 490 839 q 474 851 481 843 q 456 893 456 868 q 474 935 456 918 q 516 952 491 952 q 552 941 536 952 q 593 907 573 927 q 675 710 675 825 l 675 243 q 593 47 675 128 q 548 9 571 25 q 516 0 534 0 q 474 18 491 0 q 456 60 456 36 q 474 102 456 84 q 482 109 478 106 q 509 131 496 118 q 556 243 556 178 l 556 710 q 509 822 556 776 q 490 839 500 831 m 243 942 q 278 953 258 953 q 320 936 303 953 q 337 894 337 918 q 320 852 337 869 q 311 843 315 847 q 285 822 297 834 q 238 710 238 776 l 238 243 q 285 131 238 178 q 311 110 297 119 q 319 103 315 107 q 337 61 337 85 q 319 18 337 36 q 278 1 302 1 q 245 10 260 1 q 200 47 221 26 q 119 243 119 128 l 119 710 q 200 907 119 825 q 243 942 221 928 z "},"p":{"ha":833,"x_min":159,"x_max":714,"o":"m 451 118 q 415 100 430 116 q 397 59 397 83 q 414 16 397 34 q 460 -1 432 -1 q 633 79 561 6 q 714 276 714 161 l 714 674 q 633 870 714 789 q 437 951 552 951 l 218 951 q 176 934 193 951 q 159 892 159 917 l 159 -299 q 176 -341 159 -323 q 218 -358 193 -358 q 260 -341 243 -358 q 278 -299 278 -323 l 278 832 l 437 832 q 549 786 502 832 q 595 674 595 739 l 595 276 q 549 164 595 210 q 451 118 508 123 z "},"q":{"ha":833,"x_min":119,"x_max":675,"o":"m 382 118 q 419 100 404 116 q 437 59 437 83 q 419 16 437 34 q 373 -1 402 -1 q 200 79 273 6 q 119 276 119 161 l 119 674 q 200 870 119 789 q 397 951 282 951 l 615 951 q 657 934 640 951 q 675 892 675 917 l 675 -299 q 657 -341 675 -323 q 615 -358 640 -358 q 573 -341 590 -358 q 556 -299 556 -323 l 556 832 l 397 832 q 285 786 331 832 q 238 674 238 739 l 238 276 q 285 164 238 210 q 382 118 325 123 z "},"r":{"ha":476,"x_min":139,"x_max":438,"o":"m 258 59 q 241 16 258 34 q 198 -1 223 -1 q 156 16 174 -1 q 139 59 139 34 l 139 714 q 209 882 139 813 q 377 952 279 952 q 420 935 403 952 q 438 893 438 918 q 420 851 438 868 q 377 833 403 833 q 293 799 327 833 q 258 714 258 764 l 258 59 z "},"s":{"ha":694,"x_min":89,"x_max":609,"o":"m 564 880 q 584 833 584 857 q 565 792 583 809 q 526 776 549 776 q 477 799 498 777 q 361 851 433 845 q 339 852 349 852 q 253 824 283 852 q 204 724 206 792 q 407 519 204 624 q 609 238 609 415 q 529 46 605 113 q 337 -21 453 -21 q 133 67 212 -17 q 114 114 114 89 q 133 156 115 139 q 173 172 150 172 q 222 147 200 171 q 336 98 268 102 l 353 98 q 445 123 411 98 q 494 243 492 166 l 494 246 q 296 456 494 354 q 89 728 89 568 q 175 909 93 844 q 358 968 251 968 l 371 968 q 564 880 486 963 z "},"t":{"ha":516,"x_min":98,"x_max":457,"o":"m 397 952 q 439 935 422 952 q 456 893 456 918 q 439 851 456 868 q 397 833 422 833 l 278 833 l 278 238 q 313 154 278 188 q 397 119 347 119 q 440 101 423 119 q 457 60 457 83 q 440 17 457 35 q 397 0 423 0 q 229 70 299 0 q 159 238 159 140 l 159 833 l 158 833 q 116 851 133 833 q 98 893 98 869 q 116 935 98 918 q 158 952 133 952 l 159 952 l 159 1130 q 177 1172 159 1155 q 218 1189 194 1189 q 260 1172 243 1189 q 278 1130 278 1155 l 278 952 l 397 952 z "},"u":{"ha":853,"x_min":139,"x_max":694,"o":"m 575 893 q 593 935 575 918 q 635 952 610 952 q 677 935 660 952 q 694 893 694 918 l 694 60 q 677 17 694 35 q 635 0 660 0 l 417 0 q 220 81 302 0 q 139 278 139 163 l 139 893 q 156 935 139 918 q 198 952 174 952 q 241 935 223 952 q 258 893 258 918 l 258 278 q 305 166 258 212 q 417 119 351 119 l 575 119 l 575 893 z "},"v":{"ha":675,"x_min":40,"x_max":636,"o":"m 396 48 q 380 18 391 31 q 337 0 362 0 q 296 18 313 0 q 279 51 284 32 l 43 874 q 40 893 40 883 q 57 935 40 918 q 99 952 74 952 q 142 936 124 952 q 156 913 152 925 l 338 270 l 520 907 q 537 936 524 923 q 578 952 555 952 q 620 935 603 952 q 636 893 636 918 q 633 869 636 880 l 396 48 z "},"w":{"ha":1130,"x_min":20,"x_max":1095,"o":"m 376 48 q 360 18 371 31 q 317 0 342 0 q 276 18 294 0 q 259 51 264 32 l 23 874 q 20 893 20 883 q 37 935 20 918 q 79 952 55 952 q 122 936 104 952 q 136 913 132 925 l 318 270 l 500 906 q 517 936 504 923 q 559 952 534 952 q 601 936 583 952 q 615 913 611 925 l 798 270 l 979 907 q 996 936 983 923 q 1038 952 1014 952 q 1079 935 1063 952 q 1095 893 1095 918 q 1092 869 1095 880 l 855 48 q 839 18 850 31 q 797 0 821 0 q 755 18 773 0 q 738 51 743 32 l 558 679 l 376 48 z "},"x":{"ha":694,"x_min":59,"x_max":639,"o":"m 417 475 l 628 91 q 637 60 637 73 q 634 42 637 51 q 605 7 627 18 q 578 0 592 0 q 561 3 569 0 q 525 33 537 11 l 349 352 l 175 36 q 137 2 161 10 q 119 -1 128 -1 q 92 6 105 -1 q 63 41 70 17 q 60 59 60 50 q 66 86 60 72 l 281 475 l 68 859 q 59 893 59 874 q 76 935 59 918 q 118 952 93 952 q 161 936 143 952 q 171 922 167 929 l 349 597 l 527 922 q 538 936 531 929 q 579 952 555 952 q 622 935 604 952 q 639 893 639 918 q 629 859 639 874 l 417 475 z "},"y":{"ha":833,"x_min":139,"x_max":694,"o":"m 575 893 q 593 935 575 918 q 635 952 610 952 q 677 935 660 952 q 694 893 694 918 l 694 -99 q 625 -267 694 -197 q 456 -337 555 -337 q 289 -268 358 -337 q 246 -212 263 -242 q 238 -179 238 -196 q 254 -137 238 -154 q 296 -120 271 -120 q 336 -135 320 -120 q 347 -150 343 -143 q 373 -184 357 -168 q 456 -218 408 -218 q 541 -184 506 -218 q 575 -99 575 -149 l 575 0 l 417 0 q 220 81 302 0 q 139 278 139 163 l 139 893 q 156 935 139 918 q 198 952 174 952 q 241 935 223 952 q 258 893 258 918 l 258 278 q 305 166 258 212 q 417 119 351 119 l 575 119 l 575 893 z "},"z":{"ha":635,"x_min":40,"x_max":595,"o":"m 99 833 q 57 851 74 833 q 40 893 40 868 q 57 935 40 918 q 99 952 74 952 l 536 952 q 578 935 561 952 q 595 893 595 918 q 591 870 595 881 l 197 119 l 536 119 q 578 102 561 119 q 595 60 595 84 q 578 18 595 36 q 536 0 561 0 l 99 0 q 58 18 75 0 q 40 60 40 36 q 46 86 40 74 l 438 833 l 99 833 z "},"{":{"ha":496,"x_min":0,"x_max":477,"o":"m 417 1310 q 460 1292 442 1310 q 477 1250 477 1275 q 460 1208 477 1225 q 417 1190 442 1190 q 332 1156 367 1190 q 298 1071 298 1121 l 298 774 q 228 606 298 676 q 216 595 222 600 q 228 585 222 590 q 298 417 298 515 l 298 119 q 332 35 298 69 q 417 0 367 0 q 460 -17 442 0 q 477 -60 477 -35 q 460 -102 477 -84 q 417 -119 442 -119 q 249 -49 318 -119 q 179 119 179 21 l 179 417 q 144 501 179 466 q 60 536 110 536 q 17 554 35 536 q 0 595 0 571 q 17 637 0 620 q 60 655 35 655 q 144 689 110 655 q 179 774 179 724 l 179 1071 q 249 1240 179 1170 q 417 1310 318 1310 z "},"|":{"ha":437,"x_min":159,"x_max":278,"o":"m 159 1409 q 176 1451 159 1434 q 218 1468 193 1468 q 260 1451 243 1468 q 278 1409 278 1434 l 278 -100 q 260 -142 278 -125 q 218 -160 243 -160 q 176 -142 193 -160 q 159 -100 159 -125 l 159 1409 z "},"}":{"ha":496,"x_min":20,"x_max":497,"o":"m 80 -60 q 37 -42 55 -60 q 20 0 20 -25 q 37 42 20 25 q 80 60 55 60 q 165 94 130 60 q 199 179 199 129 l 199 476 q 269 644 199 574 q 281 655 275 650 q 269 665 275 660 q 199 833 199 735 l 199 1131 q 165 1215 199 1181 q 80 1250 130 1250 q 37 1267 55 1250 q 20 1310 20 1285 q 37 1352 20 1334 q 80 1369 55 1369 q 249 1299 179 1369 q 318 1131 318 1229 l 318 833 q 353 749 318 784 q 438 714 387 714 q 480 696 462 714 q 497 655 497 679 q 480 613 497 630 q 438 595 462 595 q 353 561 387 595 q 318 476 318 526 l 318 179 q 249 10 318 80 q 80 -60 179 -60 z "},"~":{"ha":556,"x_min":40,"x_max":515,"o":"m 98 595 q 56 613 72 595 q 40 655 40 630 q 58 695 40 680 q 89 714 70 708 q 172 728 128 728 q 268 713 217 728 q 360 698 316 698 q 429 708 396 698 q 455 714 441 713 q 499 697 483 714 q 515 655 515 680 q 497 613 515 630 q 466 595 484 601 q 382 580 427 580 q 288 595 337 580 q 194 610 238 610 q 122 599 157 610 q 98 595 111 595 z "},"¡":{"ha":437,"x_min":139,"x_max":298,"o":"m 278 -298 q 260 -340 278 -322 q 218 -357 243 -357 q 176 -340 193 -357 q 159 -298 159 -322 l 159 615 q 176 657 159 640 q 218 675 193 675 q 260 657 243 675 q 278 615 278 640 l 278 -298 m 218 794 q 162 817 186 794 q 139 873 139 840 q 162 929 139 906 q 218 952 186 952 q 274 929 251 952 q 298 873 298 906 q 274 817 298 840 q 218 794 251 794 z "},"¢":{"ha":694,"x_min":119,"x_max":613,"o":"m 316 962 l 316 1091 q 334 1133 316 1116 q 376 1151 351 1151 q 418 1133 401 1151 q 436 1091 436 1116 l 436 971 q 593 892 526 959 q 613 846 613 870 q 596 804 613 821 q 554 787 578 787 q 509 807 529 787 q 397 853 462 853 q 284 807 330 853 q 238 694 238 760 l 238 258 q 284 146 238 192 q 397 99 330 99 q 509 146 462 99 q 554 166 529 166 q 596 148 578 166 q 613 106 613 131 q 593 61 613 82 q 436 -19 526 -7 l 436 -139 q 418 -181 436 -164 q 376 -198 401 -198 q 334 -181 351 -198 q 316 -139 316 -164 l 316 -10 q 200 61 252 9 q 119 257 119 142 l 119 695 q 200 892 119 811 q 316 962 252 943 z "},"£":{"ha":675,"x_min":80,"x_max":616,"o":"m 135 873 q 121 1024 121 957 q 202 1228 121 1147 q 399 1310 284 1310 q 595 1228 514 1310 q 599 1224 597 1226 q 616 1183 616 1206 q 599 1140 616 1158 q 557 1123 581 1123 q 515 1141 532 1123 q 512 1144 513 1142 l 511 1143 q 399 1189 464 1189 q 286 1143 332 1189 q 240 1023 240 1096 q 258 873 240 963 l 537 873 q 579 856 562 873 q 596 813 596 838 q 579 771 596 789 q 537 754 562 754 l 287 754 q 331 556 315 643 l 537 556 q 579 538 562 556 q 596 496 596 521 q 579 454 596 471 q 537 437 562 437 l 349 437 q 358 332 358 358 q 297 119 358 213 l 557 119 q 599 101 581 119 q 616 60 616 83 q 599 17 616 35 q 557 0 581 0 l 160 0 q 118 16 135 0 q 100 58 100 33 q 129 110 100 86 q 158 136 144 122 q 239 332 239 217 q 226 437 239 356 l 140 437 q 98 454 115 437 q 80 496 80 471 q 98 538 80 521 q 140 556 115 556 l 203 556 q 162 744 187 638 q 159 754 160 749 l 140 754 q 98 771 115 754 q 80 813 80 789 q 98 856 80 838 q 135 873 113 871 z "},"¤":{"ha":833,"x_min":117,"x_max":714,"o":"m 135 752 q 117 794 117 769 q 135 836 117 818 q 177 853 153 853 q 219 836 201 853 l 280 776 q 297 778 288 778 q 339 760 321 778 q 356 718 356 743 q 339 677 356 693 q 322 664 331 669 q 304 648 313 657 q 257 536 257 601 q 304 424 257 470 q 322 408 313 415 q 339 395 331 402 q 356 353 356 378 q 339 311 356 328 q 297 294 321 294 q 264 303 279 294 q 254 310 259 306 l 219 275 q 177 257 201 257 q 135 275 153 257 q 118 317 118 293 q 135 359 118 341 l 174 398 q 138 536 138 459 q 189 697 138 627 l 135 752 m 696 359 q 714 317 713 341 q 696 275 714 293 q 654 258 679 258 q 612 275 630 258 l 577 310 q 572 307 574 309 q 535 293 557 293 q 493 310 510 293 q 475 352 475 327 q 493 394 475 377 q 505 404 498 399 q 528 424 517 413 q 574 536 574 470 q 528 648 574 601 q 506 667 517 659 q 493 678 499 671 q 475 719 475 694 q 493 761 475 744 q 535 779 510 779 q 553 777 544 779 l 612 836 q 654 854 629 854 q 696 836 679 854 q 713 794 713 818 q 696 752 713 770 l 642 697 q 693 536 693 627 q 658 398 693 459 l 696 359 z "},"¥":{"ha":675,"x_min":40,"x_max":635,"o":"m 396 198 l 396 60 q 378 17 396 35 q 336 0 361 0 q 295 17 313 0 q 277 60 277 35 l 277 198 l 120 198 q 78 216 95 198 q 61 258 61 233 q 78 300 61 283 q 120 317 95 317 l 277 317 l 277 410 l 258 476 l 120 476 q 78 494 95 476 q 61 536 61 511 q 78 578 61 561 q 120 595 95 595 l 223 595 l 42 1231 q 40 1250 40 1240 q 57 1292 40 1275 q 98 1310 73 1310 q 141 1293 123 1310 q 155 1270 151 1282 l 337 627 l 519 1264 q 536 1293 523 1280 q 577 1310 554 1310 q 619 1292 602 1310 q 635 1250 635 1275 q 632 1226 635 1237 l 449 595 l 556 595 q 598 578 580 595 q 615 536 615 561 q 598 494 615 511 q 556 476 580 476 l 416 476 l 396 409 l 396 317 l 556 317 q 598 300 580 317 q 615 258 615 283 q 598 216 615 233 q 556 198 580 198 l 396 198 z "},"¦":{"ha":437,"x_min":159,"x_max":279,"o":"m 278 -298 q 260 -340 278 -322 q 218 -357 243 -357 q 176 -340 193 -357 q 159 -298 159 -322 l 159 536 q 176 578 159 561 q 218 595 193 595 q 260 578 243 595 q 278 536 278 561 l 278 -298 m 279 774 q 261 732 279 749 q 219 714 244 714 q 177 732 194 714 q 160 774 160 749 l 160 1607 q 177 1649 160 1632 q 219 1667 194 1667 q 261 1649 244 1667 q 279 1607 279 1632 l 279 774 z "},"§":{"ha":694,"x_min":79,"x_max":608,"o":"m 241 676 l 356 561 q 574 164 574 353 l 574 163 q 493 -34 574 48 q 297 -115 412 -115 q 97 -30 182 -115 q 79 12 79 -12 q 97 54 79 37 q 139 71 114 71 q 182 54 164 71 q 297 5 231 5 q 409 52 363 5 q 455 164 455 98 q 237 511 455 304 l 157 592 q 139 635 139 610 q 156 677 139 660 q 198 694 174 694 q 241 676 222 694 m 446 638 l 331 754 q 113 1151 113 961 l 113 1152 q 194 1348 113 1267 q 391 1430 276 1430 q 590 1344 506 1430 q 608 1303 608 1326 q 591 1260 608 1278 q 549 1243 573 1243 q 506 1261 524 1243 q 391 1310 456 1310 q 278 1263 324 1310 q 232 1151 232 1216 q 450 804 232 1011 l 531 722 q 549 680 549 704 q 531 637 549 655 q 489 620 514 620 q 446 638 465 620 z "},"¨":{"ha":595,"x_min":79,"x_max":527,"o":"m 159 1270 q 215 1247 191 1270 q 238 1190 238 1223 q 215 1134 238 1158 q 159 1111 191 1111 q 103 1134 126 1111 q 79 1190 79 1158 q 103 1247 79 1223 q 159 1270 126 1270 m 447 1270 q 503 1247 480 1270 q 527 1190 527 1223 q 503 1134 527 1158 q 447 1111 480 1111 q 391 1134 415 1111 q 368 1190 368 1158 q 391 1247 368 1223 q 447 1270 415 1270 z "},"©":{"ha":1468,"x_min":79,"x_max":1389,"o":"m 943 423 q 902 367 927 393 q 733 298 831 298 q 565 368 635 298 q 495 536 495 438 l 495 774 q 565 942 495 872 q 733 1012 635 1012 q 902 941 831 1012 q 944 885 928 916 q 953 853 953 871 q 936 811 953 828 q 894 794 919 794 q 852 812 869 794 q 838 830 843 819 q 817 858 830 845 q 733 893 782 893 q 649 858 684 893 q 614 774 614 823 l 614 536 q 649 451 614 486 q 733 417 684 417 q 817 451 782 417 q 842 486 833 467 q 852 498 846 492 q 894 515 870 515 q 936 498 919 515 q 953 455 953 480 q 943 423 953 438 m 844 1181 q 812 1197 825 1184 q 794 1239 794 1214 q 811 1281 794 1264 q 853 1299 828 1299 q 866 1298 860 1299 q 1197 1118 1054 1261 q 1389 655 1389 926 q 1197 192 1389 384 q 869 13 1055 50 q 853 11 862 11 q 811 28 828 11 q 794 70 794 46 q 812 113 794 95 q 840 129 823 125 q 1113 276 995 158 q 1270 655 1270 433 q 1113 1034 1270 877 q 844 1181 997 1150 m 603 1298 q 615 1299 609 1299 q 657 1281 640 1299 q 675 1239 675 1264 q 658 1197 675 1214 q 628 1181 645 1185 q 355 1034 473 1152 q 198 655 198 877 q 355 276 198 433 q 628 129 473 158 q 658 113 645 125 q 675 70 675 95 q 657 28 675 46 q 615 11 640 11 q 603 12 609 11 q 272 192 415 49 q 79 655 79 384 q 272 1118 79 926 q 603 1298 415 1261 z "},"ª":{"ha":734,"x_min":119,"x_max":675,"o":"m 179 0 q 136 17 154 0 q 119 60 119 35 q 136 102 119 84 q 179 119 154 119 l 615 119 q 656 102 638 119 q 674 60 674 84 q 656 17 674 35 q 615 0 638 0 l 179 0 m 397 416 q 200 497 282 416 q 119 694 119 578 q 200 891 119 810 q 371 971 273 963 q 419 953 402 971 q 437 912 437 936 q 420 870 437 887 q 383 852 404 854 q 285 807 326 848 q 238 693 238 760 q 285 581 238 628 q 397 535 331 535 l 556 535 l 556 1050 q 508 1162 555 1115 q 396 1208 462 1208 q 282 1161 330 1208 q 240 1143 265 1143 q 198 1160 215 1143 q 181 1202 181 1178 q 197 1244 181 1226 q 396 1328 281 1328 q 592 1247 511 1328 q 675 1050 674 1166 l 675 475 q 657 433 675 450 q 615 416 640 416 l 397 416 z "},"«":{"ha":952,"x_min":119,"x_max":846,"o":"z "},"¬":{"ha":754,"x_min":79,"x_max":675,"o":"m 139 595 q 97 613 114 595 q 79 655 79 630 q 97 697 79 680 q 139 714 114 714 l 615 714 q 657 697 640 714 q 675 655 675 680 l 675 417 q 658 376 675 393 q 615 358 640 358 q 573 376 590 358 q 556 417 556 393 l 556 595 l 139 595 z "},"®":{"ha":1468,"x_min":79,"x_max":1389,"o":"m 844 1181 q 812 1197 825 1184 q 794 1239 794 1214 q 811 1281 794 1264 q 853 1299 828 1299 q 866 1298 860 1299 q 1197 1118 1054 1261 q 1389 655 1389 926 q 1197 192 1389 384 q 869 13 1055 50 q 853 11 862 11 q 811 28 828 11 q 794 70 794 46 q 812 113 794 95 q 840 129 823 125 q 1113 276 995 158 q 1270 655 1270 433 q 1113 1034 1270 877 q 844 1181 997 1150 m 603 1298 q 615 1299 609 1299 q 657 1281 640 1299 q 675 1239 675 1264 q 658 1197 675 1214 q 628 1181 645 1185 q 355 1034 473 1152 q 198 655 198 877 q 355 276 198 433 q 628 129 473 158 q 658 113 645 125 q 675 70 675 95 q 657 28 675 46 q 615 11 640 11 q 603 12 609 11 q 272 192 415 49 q 79 655 79 384 q 272 1118 79 926 q 603 1298 415 1261 m 799 468 q 781 526 781 502 q 805 575 781 556 q 839 608 819 589 q 874 694 874 645 l 874 775 q 839 859 874 824 q 755 894 804 894 l 635 894 l 635 358 q 617 316 635 333 q 574 299 599 299 q 532 316 550 299 q 515 358 515 333 l 515 953 q 532 996 515 978 q 574 1013 550 1013 l 755 1013 q 923 943 853 1013 q 993 775 993 873 l 993 694 q 924 527 993 596 q 910 514 917 520 l 968 378 q 971 357 971 368 q 966 332 971 344 q 933 302 955 310 q 911 298 922 298 q 887 304 899 298 q 856 337 865 313 l 799 468 z "},"°":{"ha":794,"x_min":119,"x_max":675,"o":"m 490 1196 q 474 1208 481 1200 q 456 1250 456 1225 q 474 1292 456 1275 q 516 1310 491 1310 q 552 1299 536 1310 q 593 1264 573 1284 q 675 1067 675 1183 q 593 876 675 957 q 548 838 571 854 q 516 829 534 829 q 474 847 491 829 q 456 889 456 865 q 474 932 456 914 q 482 938 478 936 q 509 960 496 947 q 556 1067 556 1007 q 509 1180 556 1133 q 490 1196 500 1188 m 243 1300 q 278 1311 258 1311 q 320 1293 303 1311 q 337 1251 337 1275 q 320 1209 337 1226 q 311 1200 315 1204 q 285 1180 297 1191 q 238 1067 238 1133 q 285 960 238 1007 q 311 939 297 948 q 319 933 315 937 q 337 890 337 915 q 319 848 337 865 q 278 830 302 830 q 245 839 260 830 q 200 876 221 855 q 119 1067 119 957 q 200 1264 119 1183 q 243 1300 221 1285 z "},"±":{"ha":675,"x_min":80,"x_max":596,"o":"m 278 556 l 140 556 q 98 573 115 556 q 80 615 80 590 q 98 657 80 640 q 140 675 115 675 l 278 675 l 278 813 q 295 856 278 838 q 337 873 313 873 q 379 856 362 873 q 397 813 397 838 l 397 675 l 537 675 q 579 657 562 675 q 596 615 596 640 q 579 573 596 590 q 537 556 562 556 l 397 556 l 397 417 q 379 375 397 392 q 337 357 362 357 q 295 375 313 357 q 278 417 278 392 l 278 556 m 140 79 q 98 97 115 79 q 80 139 80 114 q 98 181 80 164 q 140 198 115 198 l 537 198 q 579 181 562 198 q 596 139 596 164 q 579 97 596 114 q 537 79 562 79 l 140 79 z "},"²":{"ha":635,"x_min":79,"x_max":559,"o":"m 141 438 q 99 455 116 438 q 81 497 81 472 q 255 848 81 732 q 419 1063 419 963 l 419 1072 q 384 1157 419 1122 q 300 1191 349 1191 q 215 1157 251 1191 q 194 1129 202 1144 q 182 1110 189 1118 q 139 1092 164 1092 q 97 1110 114 1092 q 79 1152 79 1127 q 88 1184 79 1170 q 131 1240 105 1214 q 300 1311 201 1311 q 468 1241 398 1311 q 538 1072 538 1171 q 369 797 538 915 q 206 557 208 688 l 499 557 q 541 539 524 557 q 559 497 559 522 q 541 455 559 472 q 499 438 524 438 l 141 438 z "},"³":{"ha":635,"x_min":79,"x_max":538,"o":"m 89 562 q 79 594 79 576 q 97 636 79 619 q 139 654 114 654 q 181 637 163 654 q 190 625 187 631 q 215 590 199 606 q 300 556 251 556 q 384 590 349 556 q 419 675 419 625 l 419 694 q 384 779 419 744 q 301 813 350 813 l 300 813 q 257 831 275 813 q 240 873 240 849 q 257 915 240 898 q 300 933 275 933 l 301 933 q 384 967 350 933 q 419 1052 419 1002 l 419 1071 q 384 1156 419 1121 q 300 1190 349 1190 q 215 1156 251 1190 q 194 1128 202 1143 q 182 1109 189 1117 q 139 1091 164 1091 q 97 1109 114 1091 q 79 1151 79 1126 q 88 1183 79 1169 q 131 1239 105 1213 q 300 1310 201 1310 q 468 1240 398 1310 q 538 1071 538 1170 l 538 1052 q 468 884 538 953 q 456 873 462 878 q 468 863 462 868 q 538 694 538 793 l 538 675 q 468 506 538 576 q 300 437 398 437 q 131 506 201 437 q 89 562 106 532 z "},"´":{"ha":238,"x_min":39,"x_max":188,"o":"m 71 1300 q 99 1336 77 1323 q 129 1344 113 1344 q 144 1342 136 1344 q 181 1314 168 1335 q 188 1284 188 1300 q 187 1269 188 1277 l 156 1154 q 129 1119 150 1131 q 98 1110 114 1110 q 83 1112 91 1110 q 48 1140 60 1119 q 39 1170 39 1154 q 41 1186 39 1178 l 71 1300 z "},"µ":{"ha":852,"x_min":139,"x_max":694,"o":"m 575 120 l 575 893 q 593 935 575 918 q 635 952 610 952 q 677 935 660 952 q 694 893 694 918 l 694 -298 q 677 -340 694 -322 q 635 -357 660 -357 q 593 -340 610 -357 q 575 -298 575 -322 l 575 1 l 417 1 q 220 82 302 1 q 139 279 139 164 l 139 893 q 156 935 139 918 q 198 952 174 952 q 241 935 223 952 q 258 893 258 918 l 258 279 q 305 167 258 213 q 417 120 351 120 l 575 120 z "},"¶":{"ha":1111,"x_min":78,"x_max":1070,"o":"m 341 637 q 360 622 351 630 q 377 582 377 607 q 360 540 377 558 q 317 523 342 523 q 287 531 301 523 q 200 598 241 558 q 78 893 78 720 q 200 1188 78 1065 q 495 1310 322 1310 l 1011 1310 q 1053 1292 1036 1310 q 1070 1250 1070 1275 q 1053 1208 1070 1225 q 1011 1190 1036 1190 l 892 1190 l 892 60 q 874 17 892 35 q 832 0 856 0 q 790 17 808 0 q 773 60 773 35 l 773 1190 l 614 1190 l 614 60 q 597 17 614 35 q 555 0 579 0 q 512 17 530 0 q 495 60 495 35 l 495 1190 q 285 1103 372 1190 q 197 893 197 1016 q 285 683 197 770 q 341 637 312 656 z "},"·":{"ha":397,"x_min":117,"x_max":276,"o":"m 196 713 q 252 690 229 713 q 276 634 276 667 q 252 578 276 601 q 196 555 229 555 q 140 578 164 555 q 117 634 117 601 q 140 690 117 667 q 196 713 164 713 z "},"∙":{"ha":397,"x_min":117,"x_max":276,"o":"m 196 713 q 252 690 229 713 q 276 634 276 667 q 252 578 276 601 q 196 555 229 555 q 140 578 164 555 q 117 634 117 601 q 140 690 117 667 q 196 713 164 713 z "},"¸":{"ha":357,"x_min":0,"x_max":358,"o":"m 119 20 q 136 62 119 45 q 179 79 154 79 q 221 62 203 79 q 238 20 238 45 l 238 -68 q 307 -111 276 -81 q 358 -238 358 -164 q 306 -365 358 -312 q 180 -417 254 -417 l 60 -417 q 17 -399 35 -417 q 0 -357 0 -382 q 17 -315 0 -332 q 60 -298 35 -298 l 179 -298 q 221 -280 203 -298 q 238 -238 238 -263 q 221 -196 238 -213 q 179 -179 203 -179 q 136 -161 154 -179 q 119 -119 119 -143 l 119 20 z "},"¹":{"ha":516,"x_min":79,"x_max":437,"o":"m 139 1190 q 97 1208 115 1190 q 79 1250 79 1225 q 97 1292 79 1275 q 139 1310 115 1310 l 260 1310 q 301 1292 284 1310 q 317 1250 317 1275 l 317 556 l 377 556 q 419 538 402 556 q 437 496 437 521 q 419 454 437 471 q 377 437 402 437 l 139 437 q 97 454 114 437 q 79 496 79 471 q 97 538 79 521 q 139 556 114 556 l 198 556 l 198 1190 l 139 1190 z "},"º":{"ha":794,"x_min":119,"x_max":675,"o":"m 179 0 q 136 17 154 0 q 119 60 119 35 q 136 102 119 84 q 179 119 154 119 l 614 119 q 656 102 639 119 q 674 60 674 84 q 656 17 674 35 q 614 0 639 0 l 179 0 m 490 1189 q 474 1201 481 1193 q 456 1243 456 1218 q 474 1285 456 1268 q 516 1303 491 1303 q 552 1292 536 1303 q 593 1257 573 1277 q 675 1061 675 1176 l 675 593 q 593 397 675 478 q 548 359 571 375 q 516 350 534 350 q 474 368 491 350 q 456 410 456 386 q 474 452 456 435 q 482 459 478 456 q 509 481 496 468 q 556 593 556 528 l 556 1061 q 509 1173 556 1126 q 490 1189 500 1182 m 243 1293 q 278 1304 258 1304 q 320 1286 303 1304 q 337 1244 337 1268 q 320 1202 337 1219 q 311 1193 315 1197 q 285 1173 297 1185 q 238 1061 238 1126 l 238 593 q 285 481 238 528 q 311 460 297 469 q 319 453 315 457 q 337 411 337 436 q 319 369 337 386 q 278 351 302 351 q 245 360 260 351 q 200 397 221 376 q 119 593 119 478 l 119 1061 q 200 1257 119 1176 q 243 1293 221 1278 z "},"»":{"ha":952,"x_min":119,"x_max":846,"o":"z "},"¼":{"ha":1548,"x_min":79,"x_max":1468,"o":"m 139 1190 q 97 1208 115 1190 q 79 1250 79 1225 q 97 1292 79 1275 q 139 1310 115 1310 l 260 1310 q 301 1292 284 1310 q 317 1250 317 1275 l 317 556 l 377 556 q 419 538 402 556 q 437 496 437 521 q 419 454 437 471 q 377 437 402 437 l 139 437 q 97 454 114 437 q 79 496 79 471 q 97 538 79 521 q 139 556 114 556 l 198 556 l 198 1190 l 139 1190 m 794 1256 q 813 1293 799 1276 q 855 1310 830 1310 q 896 1292 880 1310 q 913 1250 913 1275 q 912 1240 913 1245 l 635 55 q 615 18 631 34 q 572 0 597 0 q 532 17 548 0 q 516 60 516 35 q 518 75 516 67 l 794 1256 m 1349 676 q 1367 718 1349 700 q 1409 735 1384 735 q 1451 718 1434 735 q 1468 676 1468 700 l 1468 60 q 1451 17 1468 35 q 1409 0 1434 0 q 1367 17 1384 0 q 1349 60 1349 35 l 1349 198 l 1012 198 q 970 216 987 198 q 952 258 952 234 q 956 281 952 270 l 1111 819 q 1133 858 1116 841 q 1175 875 1151 875 q 1215 858 1199 875 q 1230 815 1230 840 q 1228 797 1230 806 l 1091 317 l 1349 317 l 1349 676 z "},"½":{"ha":1548,"x_min":79,"x_max":1471,"o":"m 139 1190 q 97 1208 115 1190 q 79 1250 79 1225 q 97 1292 79 1275 q 139 1310 115 1310 l 260 1310 q 301 1292 284 1310 q 317 1250 317 1275 l 317 556 l 377 556 q 419 538 402 556 q 437 496 437 521 q 419 454 437 471 q 377 437 402 437 l 139 437 q 97 454 114 437 q 79 496 79 471 q 97 538 79 521 q 139 556 114 556 l 198 556 l 198 1190 l 139 1190 m 794 1256 q 813 1293 799 1276 q 855 1310 830 1310 q 896 1292 880 1310 q 913 1250 913 1275 q 912 1240 913 1245 l 635 55 q 615 18 631 34 q 572 0 597 0 q 532 17 548 0 q 516 60 516 35 q 518 75 516 67 l 794 1256 m 1054 0 q 1011 17 1029 0 q 994 60 994 35 q 1168 411 994 295 q 1331 625 1331 526 l 1331 635 q 1297 719 1331 685 q 1212 754 1262 754 q 1128 719 1164 754 q 1107 691 1115 706 q 1094 673 1102 681 q 1052 655 1076 655 q 1009 672 1027 655 q 992 714 992 689 q 1001 746 992 732 q 1044 803 1018 777 q 1212 873 1114 873 q 1380 803 1311 873 q 1450 635 1450 733 q 1282 359 1450 477 q 1119 119 1121 251 l 1412 119 q 1454 102 1437 119 q 1471 60 1471 84 q 1454 17 1471 35 q 1412 0 1437 0 l 1054 0 z "},"¾":{"ha":1667,"x_min":79,"x_max":1587,"o":"m 89 562 q 79 594 79 576 q 97 636 79 619 q 139 654 114 654 q 181 637 163 654 q 190 625 187 631 q 215 590 199 606 q 300 556 251 556 q 384 590 349 556 q 419 675 419 625 l 419 694 q 384 779 419 744 q 301 813 350 813 l 300 813 q 257 831 275 813 q 240 873 240 849 q 257 915 240 898 q 300 933 275 933 l 301 933 q 384 967 350 933 q 419 1052 419 1002 l 419 1071 q 384 1156 419 1121 q 300 1190 349 1190 q 215 1156 251 1190 q 194 1128 202 1143 q 182 1109 189 1117 q 139 1091 164 1091 q 97 1109 114 1091 q 79 1151 79 1126 q 88 1183 79 1169 q 131 1239 105 1213 q 300 1310 201 1310 q 468 1240 398 1310 q 538 1071 538 1170 l 538 1052 q 468 884 538 953 q 456 873 462 878 q 468 863 462 868 q 538 694 538 793 l 538 675 q 468 506 538 576 q 300 437 398 437 q 131 506 201 437 q 89 562 106 532 m 913 1256 q 933 1293 918 1276 q 974 1310 949 1310 q 1015 1292 999 1310 q 1032 1250 1032 1275 q 1031 1240 1032 1245 l 754 55 q 734 18 750 34 q 691 0 716 0 q 651 17 667 0 q 635 60 635 35 q 637 75 635 67 l 913 1256 m 1468 676 q 1486 718 1468 700 q 1528 735 1503 735 q 1570 718 1553 735 q 1587 676 1587 700 l 1587 60 q 1570 17 1587 35 q 1528 0 1553 0 q 1486 17 1503 0 q 1468 60 1468 35 l 1468 198 l 1131 198 q 1089 216 1106 198 q 1071 258 1071 234 q 1075 281 1071 270 l 1230 819 q 1252 858 1235 841 q 1294 875 1270 875 q 1334 858 1318 875 q 1349 815 1349 840 q 1347 797 1349 806 l 1210 317 l 1468 317 l 1468 676 z "},"¿":{"ha":635,"x_min":79,"x_max":574,"o":"m 298 616 q 315 659 298 642 q 357 677 332 677 q 399 659 382 677 q 417 616 417 642 q 308 245 417 428 q 198 -68 198 62 q 245 -190 198 -144 q 357 -237 291 -237 q 472 -188 423 -237 q 515 -171 490 -171 q 557 -188 540 -171 q 574 -230 574 -205 q 557 -272 574 -254 q 357 -357 472 -357 q 161 -276 242 -357 q 79 -69 79 -194 l 79 -68 q 188 295 79 111 q 298 616 298 478 m 356 794 q 300 817 323 794 q 277 873 277 840 q 300 929 277 906 q 356 952 323 952 q 412 929 389 952 q 436 873 436 906 q 412 817 436 840 q 356 794 389 794 z "},"À":{"ha":794,"x_min":20,"x_max":774,"o":"m 397 394 q 439 376 422 394 q 456 334 456 359 q 439 292 456 310 q 397 275 422 275 l 199 275 l 139 50 q 122 18 134 31 q 79 0 104 0 q 37 17 55 0 q 20 60 20 35 q 21 72 20 66 l 338 1257 q 355 1291 342 1276 q 397 1309 373 1309 q 439 1291 422 1309 q 455 1257 451 1276 l 773 72 q 774 60 774 66 q 756 17 774 35 q 714 0 739 0 q 673 18 689 0 q 655 50 660 31 l 397 1016 l 231 394 l 397 394 m 414 1658 q 386 1694 408 1682 q 356 1702 372 1702 q 341 1700 349 1702 q 305 1673 317 1693 q 297 1642 297 1658 q 299 1627 297 1635 l 329 1512 q 356 1477 335 1489 q 387 1468 371 1468 q 402 1470 394 1468 q 438 1498 426 1477 q 446 1528 446 1512 q 444 1544 446 1536 l 414 1658 z "},"Á":{"ha":794,"x_min":20,"x_max":774,"o":"m 397 394 q 439 376 422 394 q 456 334 456 359 q 439 292 456 310 q 397 275 422 275 l 199 275 l 139 50 q 122 18 134 31 q 79 0 104 0 q 37 17 55 0 q 20 60 20 35 q 21 72 20 66 l 338 1257 q 355 1291 342 1276 q 397 1309 373 1309 q 439 1291 422 1309 q 455 1257 451 1276 l 773 72 q 774 60 774 66 q 756 17 774 35 q 714 0 739 0 q 673 18 689 0 q 655 50 660 31 l 397 1016 l 231 394 l 397 394 m 380 1657 q 408 1693 386 1681 q 438 1701 422 1701 q 452 1699 444 1701 q 489 1672 476 1692 q 497 1641 497 1657 q 495 1626 497 1634 l 464 1511 q 438 1476 458 1488 q 407 1467 423 1467 q 392 1469 400 1467 q 356 1497 368 1476 q 347 1527 347 1511 q 349 1543 347 1535 l 380 1657 z "},"Â":{"ha":794,"x_min":20,"x_max":774,"o":"m 397 394 q 439 376 422 394 q 456 334 456 359 q 439 292 456 310 q 397 275 422 275 l 199 275 l 139 50 q 122 18 134 31 q 79 0 104 0 q 37 17 55 0 q 20 60 20 35 q 21 72 20 66 l 338 1257 q 355 1291 342 1276 q 397 1309 373 1309 q 439 1291 422 1309 q 455 1257 451 1276 l 773 72 q 774 60 774 66 q 756 17 774 35 q 714 0 739 0 q 673 18 689 0 q 655 50 660 31 l 397 1016 l 231 394 l 397 394 m 548 1572 q 568 1528 568 1553 q 551 1485 568 1503 q 509 1468 534 1468 q 466 1485 484 1468 l 397 1556 l 326 1485 q 285 1468 310 1468 q 243 1485 260 1468 q 225 1528 225 1503 q 242 1569 225 1553 l 354 1682 q 397 1698 372 1698 q 438 1682 422 1698 l 548 1572 z "},"Ã":{"ha":794,"x_min":20,"x_max":774,"o":"m 397 394 q 439 376 422 394 q 456 334 456 359 q 439 292 456 310 q 397 275 422 275 l 199 275 l 139 50 q 122 18 134 31 q 79 0 104 0 q 37 17 55 0 q 20 60 20 35 q 21 72 20 66 l 338 1257 q 355 1291 342 1276 q 397 1309 373 1309 q 439 1291 422 1309 q 455 1257 451 1276 l 773 72 q 774 60 774 66 q 756 17 774 35 q 714 0 739 0 q 673 18 689 0 q 655 50 660 31 l 397 1016 l 231 394 l 397 394 m 252 1510 q 225 1503 239 1503 q 205 1507 215 1503 q 171 1537 182 1515 q 164 1564 164 1551 q 168 1583 164 1573 q 197 1618 175 1607 q 294 1639 238 1639 q 411 1622 345 1639 q 495 1609 461 1609 q 541 1618 524 1609 q 569 1625 555 1625 q 587 1623 578 1625 q 623 1593 612 1616 q 631 1564 631 1579 q 628 1548 631 1556 q 599 1512 621 1523 q 495 1488 557 1488 q 380 1505 443 1488 q 294 1518 327 1518 q 252 1510 267 1518 z "},"Ä":{"ha":794,"x_min":20,"x_max":774,"o":"m 397 394 q 439 376 422 394 q 456 334 456 359 q 439 292 456 310 q 397 275 422 275 l 199 275 l 139 50 q 122 18 134 31 q 79 0 104 0 q 37 17 55 0 q 20 60 20 35 q 21 72 20 66 l 338 1257 q 355 1291 342 1276 q 397 1309 373 1309 q 439 1291 422 1309 q 455 1257 451 1276 l 773 72 q 774 60 774 66 q 756 17 774 35 q 714 0 739 0 q 673 18 689 0 q 655 50 660 31 l 397 1016 l 231 394 l 397 394 m 253 1627 q 309 1604 286 1627 q 332 1548 332 1580 q 309 1492 332 1515 q 253 1468 286 1468 q 197 1492 220 1468 q 174 1548 174 1515 q 197 1604 174 1580 q 253 1627 220 1627 m 542 1627 q 598 1604 574 1627 q 621 1548 621 1580 q 598 1492 621 1515 q 542 1468 574 1468 q 486 1492 509 1468 q 462 1548 462 1515 q 486 1604 462 1580 q 542 1627 509 1627 z "},"Å":{"ha":794,"x_min":20,"x_max":774,"o":"m 397 394 q 439 376 422 394 q 456 334 456 359 q 439 292 456 310 q 397 275 422 275 l 199 275 l 139 50 q 122 18 134 31 q 79 0 104 0 q 37 17 55 0 q 20 60 20 35 q 21 72 20 66 l 338 1257 q 355 1291 342 1276 q 397 1309 373 1309 q 439 1291 422 1309 q 455 1257 451 1276 l 773 72 q 774 60 774 66 q 756 17 774 35 q 714 0 739 0 q 673 18 689 0 q 655 50 660 31 l 397 1016 l 231 394 l 397 394 m 397 1705 q 481 1671 446 1705 q 516 1586 516 1636 q 481 1502 516 1537 q 397 1467 446 1467 q 313 1502 347 1467 q 278 1586 278 1537 q 313 1671 278 1636 q 397 1705 347 1705 z "},"Æ":{"ha":1012,"x_min":20,"x_max":961,"o":"m 377 275 l 199 275 l 139 50 q 119 18 132 31 q 76 0 101 0 q 36 17 52 0 q 20 60 20 35 q 21 72 20 66 l 338 1259 q 356 1292 341 1277 q 398 1310 374 1310 l 900 1310 q 943 1293 926 1310 q 961 1249 961 1275 q 943 1206 961 1224 q 900 1188 926 1188 l 674 1188 l 674 714 l 842 714 q 885 696 868 714 q 903 654 903 680 q 885 611 903 629 q 842 593 868 593 l 674 593 l 674 122 l 900 122 q 943 103 926 122 q 961 61 961 86 q 943 18 961 36 q 900 0 926 0 l 616 0 q 572 18 590 0 q 555 61 555 36 l 555 1190 l 443 1190 l 231 394 l 377 394 q 419 376 402 394 q 437 334 437 359 q 419 292 437 310 q 377 275 402 275 z "},"Ç":{"ha":675,"x_min":119,"x_max":613,"o":"m 307 -7 q 200 61 248 13 q 119 257 119 142 l 119 1053 q 200 1249 119 1168 q 397 1330 282 1330 q 596 1245 512 1330 q 613 1203 613 1227 q 596 1161 613 1179 q 554 1144 578 1144 q 512 1162 529 1144 q 397 1210 462 1210 q 284 1164 330 1210 q 238 1052 238 1117 l 238 258 q 284 146 238 192 q 397 99 330 99 q 512 149 462 99 q 554 166 529 166 q 596 148 578 166 q 613 106 613 131 q 596 64 613 82 q 426 -20 523 -10 l 426 -68 q 494 -111 463 -81 q 546 -238 546 -164 q 494 -365 546 -312 q 367 -417 441 -417 l 247 -417 q 205 -399 222 -417 q 188 -357 188 -382 q 205 -315 188 -332 q 247 -298 222 -298 l 366 -298 q 408 -280 391 -298 q 426 -238 426 -263 q 408 -196 426 -213 q 366 -179 391 -179 q 324 -161 341 -179 q 307 -119 307 -143 l 307 -7 z "},"È":{"ha":714,"x_min":159,"x_max":656,"o":"m 159 1250 q 176 1292 159 1275 q 218 1310 193 1310 l 596 1310 q 638 1292 621 1310 q 656 1250 656 1275 q 638 1208 656 1226 q 596 1190 621 1190 l 278 1190 l 278 714 l 536 714 q 578 697 561 714 q 595 655 595 680 q 578 613 595 630 q 536 595 561 595 l 278 595 l 278 119 l 596 119 q 638 102 621 119 q 656 60 656 84 q 638 18 656 36 q 596 0 621 0 l 218 0 q 176 17 193 0 q 159 60 159 35 l 159 1250 m 425 1658 q 397 1694 419 1682 q 367 1702 383 1702 q 352 1700 360 1702 q 315 1673 328 1693 q 308 1642 308 1658 q 310 1627 308 1635 l 340 1512 q 367 1477 346 1489 q 398 1468 382 1468 q 413 1470 405 1468 q 448 1498 437 1477 q 457 1528 457 1512 q 455 1544 457 1536 l 425 1658 z "},"É":{"ha":714,"x_min":159,"x_max":656,"o":"m 159 1250 q 176 1292 159 1275 q 218 1310 193 1310 l 596 1310 q 638 1292 621 1310 q 656 1250 656 1275 q 638 1208 656 1226 q 596 1190 621 1190 l 278 1190 l 278 714 l 536 714 q 578 697 561 714 q 595 655 595 680 q 578 613 595 630 q 536 595 561 595 l 278 595 l 278 119 l 596 119 q 638 102 621 119 q 656 60 656 84 q 638 18 656 36 q 596 0 621 0 l 218 0 q 176 17 193 0 q 159 60 159 35 l 159 1250 m 390 1657 q 418 1693 396 1681 q 447 1701 432 1701 q 462 1699 454 1701 q 499 1672 486 1692 q 507 1641 507 1657 q 505 1626 507 1634 l 474 1511 q 447 1476 468 1488 q 417 1467 433 1467 q 402 1469 410 1467 q 366 1497 378 1476 q 357 1527 357 1511 q 359 1543 357 1535 l 390 1657 z "},"Ê":{"ha":714,"x_min":159,"x_max":656,"o":"m 159 1250 q 176 1292 159 1275 q 218 1310 193 1310 l 596 1310 q 638 1292 621 1310 q 656 1250 656 1275 q 638 1208 656 1226 q 596 1190 621 1190 l 278 1190 l 278 714 l 536 714 q 578 697 561 714 q 595 655 595 680 q 578 613 595 630 q 536 595 561 595 l 278 595 l 278 119 l 596 119 q 638 102 621 119 q 656 60 656 84 q 638 18 656 36 q 596 0 621 0 l 218 0 q 176 17 193 0 q 159 60 159 35 l 159 1250 m 559 1572 q 579 1528 579 1553 q 562 1485 579 1503 q 520 1468 545 1468 q 477 1485 495 1468 l 408 1556 l 337 1485 q 296 1468 320 1468 q 254 1485 271 1468 q 236 1528 236 1503 q 253 1569 236 1553 l 365 1682 q 408 1698 383 1698 q 449 1682 433 1698 l 559 1572 z "},"Ë":{"ha":714,"x_min":159,"x_max":656,"o":"m 159 1250 q 176 1292 159 1275 q 218 1310 193 1310 l 596 1310 q 638 1292 621 1310 q 656 1250 656 1275 q 638 1208 656 1226 q 596 1190 621 1190 l 278 1190 l 278 714 l 536 714 q 578 697 561 714 q 595 655 595 680 q 578 613 595 630 q 536 595 561 595 l 278 595 l 278 119 l 596 119 q 638 102 621 119 q 656 60 656 84 q 638 18 656 36 q 596 0 621 0 l 218 0 q 176 17 193 0 q 159 60 159 35 l 159 1250 m 263 1627 q 319 1604 296 1627 q 342 1548 342 1580 q 319 1492 342 1515 q 263 1468 296 1468 q 207 1492 230 1468 q 184 1548 184 1515 q 207 1604 184 1580 q 263 1627 230 1627 m 552 1627 q 608 1604 584 1627 q 631 1548 631 1580 q 608 1492 631 1515 q 552 1468 584 1468 q 496 1492 519 1468 q 472 1548 472 1515 q 496 1604 472 1580 q 552 1627 519 1627 z "},"Ì":{"ha":437,"x_min":118,"x_max":278,"o":"m 159 1250 q 176 1292 159 1275 q 218 1310 193 1310 q 260 1292 243 1310 q 278 1250 278 1275 l 278 60 q 260 17 278 35 q 218 0 243 0 q 176 17 193 0 q 159 60 159 35 l 159 1250 m 235 1658 q 207 1694 229 1682 q 178 1702 193 1702 q 163 1700 171 1702 q 126 1673 139 1693 q 118 1642 118 1658 q 120 1627 118 1635 l 151 1512 q 178 1477 157 1489 q 208 1468 192 1468 q 223 1470 215 1468 q 259 1498 247 1477 q 268 1528 268 1512 q 266 1544 268 1536 l 235 1658 z "},"Í":{"ha":437,"x_min":159,"x_max":318,"o":"m 159 1250 q 176 1292 159 1275 q 218 1310 193 1310 q 260 1292 243 1310 q 278 1250 278 1275 l 278 60 q 260 17 278 35 q 218 0 243 0 q 176 17 193 0 q 159 60 159 35 l 159 1250 m 201 1657 q 229 1693 207 1681 q 259 1701 243 1701 q 274 1699 266 1701 q 311 1672 298 1692 q 318 1641 318 1657 q 316 1626 318 1634 l 286 1511 q 259 1476 280 1488 q 228 1467 244 1467 q 213 1469 221 1467 q 178 1497 189 1476 q 169 1527 169 1511 q 171 1543 169 1535 l 201 1657 z "},"Î":{"ha":437,"x_min":47,"x_max":390,"o":"m 159 1250 q 176 1292 159 1275 q 218 1310 193 1310 q 260 1292 243 1310 q 278 1250 278 1275 l 278 60 q 260 17 278 35 q 218 0 243 0 q 176 17 193 0 q 159 60 159 35 l 159 1250 m 369 1572 q 390 1528 390 1553 q 372 1485 390 1503 q 330 1468 355 1468 q 288 1485 306 1468 l 218 1556 l 148 1485 q 106 1468 131 1468 q 64 1485 81 1468 q 47 1528 47 1503 q 63 1569 47 1553 l 176 1682 q 218 1698 193 1698 q 260 1682 243 1698 l 369 1572 z "},"Ï":{"ha":437,"x_min":-5,"x_max":442,"o":"m 160 1250 q 177 1292 160 1275 q 219 1310 194 1310 q 261 1292 244 1310 q 279 1250 279 1275 l 279 60 q 261 17 279 35 q 219 0 244 0 q 177 17 194 0 q 160 60 160 35 l 160 1250 m 74 1627 q 130 1604 107 1627 q 154 1548 154 1580 q 130 1492 154 1515 q 74 1468 107 1468 q 18 1492 42 1468 q -5 1548 -5 1515 q 18 1604 -5 1580 q 74 1627 42 1627 m 363 1627 q 419 1604 396 1627 q 442 1548 442 1580 q 419 1492 442 1515 q 363 1468 396 1468 q 307 1492 330 1468 q 284 1548 284 1515 q 307 1604 284 1580 q 363 1627 330 1627 z "},"Ð":{"ha":794,"x_min":41,"x_max":714,"o":"m 159 714 l 159 1250 q 176 1292 159 1275 q 218 1310 193 1310 l 437 1310 q 633 1228 552 1310 q 714 1032 714 1147 l 714 276 q 633 80 714 161 q 460 0 561 7 q 414 17 432 0 q 397 60 397 35 q 415 101 397 84 q 451 119 430 117 q 549 165 508 124 q 595 276 595 210 l 595 1032 q 549 1144 595 1097 q 437 1190 502 1190 l 278 1190 l 278 714 l 337 714 q 379 697 362 714 q 397 655 397 680 q 379 613 397 630 q 337 595 362 595 l 278 595 l 278 60 q 260 17 278 35 q 218 0 243 0 q 176 17 193 0 q 159 60 159 35 l 159 595 l 100 595 q 58 613 75 595 q 41 655 41 630 q 58 697 41 680 q 100 714 75 714 l 159 714 z "},"Ñ":{"ha":992,"x_min":159,"x_max":833,"o":"m 278 60 q 260 17 278 35 q 218 0 243 0 q 176 17 193 0 q 159 60 159 35 l 159 1251 q 176 1293 159 1276 q 218 1311 193 1311 q 261 1294 243 1311 q 271 1280 267 1287 l 714 326 l 714 1251 q 732 1293 714 1276 q 774 1311 749 1311 q 816 1293 799 1311 q 833 1251 833 1276 l 833 59 q 816 18 833 35 q 774 0 799 0 q 732 18 749 0 q 717 40 723 27 l 278 989 l 278 60 m 351 1510 q 324 1503 338 1503 q 305 1507 314 1503 q 270 1537 281 1515 q 263 1564 263 1551 q 267 1583 263 1573 q 297 1618 274 1607 q 393 1639 337 1639 q 510 1622 444 1639 q 594 1609 561 1609 q 640 1618 623 1609 q 669 1625 654 1625 q 687 1623 678 1625 q 722 1593 711 1616 q 730 1564 730 1579 q 727 1548 730 1556 q 698 1512 720 1523 q 594 1488 656 1488 q 479 1505 543 1488 q 393 1518 427 1518 q 351 1510 366 1518 z "},"Ò":{"ha":794,"x_min":119,"x_max":675,"o":"m 490 1195 q 474 1207 481 1199 q 456 1249 456 1224 q 474 1291 456 1274 q 516 1309 491 1309 q 552 1298 536 1309 q 593 1263 573 1283 q 675 1066 675 1182 l 675 242 q 593 46 675 127 q 548 8 571 24 q 516 -1 534 -1 q 474 17 491 -1 q 456 59 456 35 q 474 101 456 83 q 482 108 478 105 q 509 130 496 117 q 556 242 556 177 l 556 1066 q 509 1179 556 1132 q 490 1195 500 1188 m 243 1299 q 278 1310 258 1310 q 320 1292 303 1310 q 337 1250 337 1274 q 320 1208 337 1225 q 311 1199 315 1203 q 285 1179 297 1190 q 238 1066 238 1132 l 238 242 q 285 130 238 177 q 311 109 297 118 q 319 102 315 106 q 337 60 337 84 q 319 17 337 35 q 278 0 302 0 q 245 9 260 0 q 200 46 221 25 q 119 242 119 127 l 119 1066 q 200 1263 119 1182 q 243 1299 221 1284 m 414 1658 q 386 1694 408 1682 q 356 1702 372 1702 q 341 1700 349 1702 q 305 1673 317 1693 q 297 1642 297 1658 q 299 1627 297 1635 l 329 1512 q 356 1477 335 1489 q 387 1468 371 1468 q 402 1470 394 1468 q 438 1498 426 1477 q 446 1528 446 1512 q 444 1544 446 1536 l 414 1658 z "},"Ó":{"ha":794,"x_min":119,"x_max":675,"o":"m 490 1195 q 474 1207 481 1199 q 456 1249 456 1224 q 474 1291 456 1274 q 516 1309 491 1309 q 552 1298 536 1309 q 593 1263 573 1283 q 675 1066 675 1182 l 675 242 q 593 46 675 127 q 548 8 571 24 q 516 -1 534 -1 q 474 17 491 -1 q 456 59 456 35 q 474 101 456 83 q 482 108 478 105 q 509 130 496 117 q 556 242 556 177 l 556 1066 q 509 1179 556 1132 q 490 1195 500 1188 m 243 1299 q 278 1310 258 1310 q 320 1292 303 1310 q 337 1250 337 1274 q 320 1208 337 1225 q 311 1199 315 1203 q 285 1179 297 1190 q 238 1066 238 1132 l 238 242 q 285 130 238 177 q 311 109 297 118 q 319 102 315 106 q 337 60 337 84 q 319 17 337 35 q 278 0 302 0 q 245 9 260 0 q 200 46 221 25 q 119 242 119 127 l 119 1066 q 200 1263 119 1182 q 243 1299 221 1284 m 380 1657 q 408 1693 386 1681 q 438 1701 422 1701 q 452 1699 444 1701 q 489 1672 476 1692 q 497 1641 497 1657 q 495 1626 497 1634 l 464 1511 q 438 1476 458 1488 q 407 1467 423 1467 q 392 1469 400 1467 q 356 1497 368 1476 q 347 1527 347 1511 q 349 1543 347 1535 l 380 1657 z "},"Ô":{"ha":794,"x_min":119,"x_max":675,"o":"m 490 1195 q 474 1207 481 1199 q 456 1249 456 1224 q 474 1291 456 1274 q 516 1309 491 1309 q 552 1298 536 1309 q 593 1263 573 1283 q 675 1066 675 1182 l 675 242 q 593 46 675 127 q 548 8 571 24 q 516 -1 534 -1 q 474 17 491 -1 q 456 59 456 35 q 474 101 456 83 q 482 108 478 105 q 509 130 496 117 q 556 242 556 177 l 556 1066 q 509 1179 556 1132 q 490 1195 500 1188 m 243 1299 q 278 1310 258 1310 q 320 1292 303 1310 q 337 1250 337 1274 q 320 1208 337 1225 q 311 1199 315 1203 q 285 1179 297 1190 q 238 1066 238 1132 l 238 242 q 285 130 238 177 q 311 109 297 118 q 319 102 315 106 q 337 60 337 84 q 319 17 337 35 q 278 0 302 0 q 245 9 260 0 q 200 46 221 25 q 119 242 119 127 l 119 1066 q 200 1263 119 1182 q 243 1299 221 1284 m 548 1572 q 568 1528 568 1553 q 551 1485 568 1503 q 509 1468 534 1468 q 466 1485 484 1468 l 397 1556 l 326 1485 q 285 1468 310 1468 q 243 1485 260 1468 q 225 1528 225 1503 q 242 1569 225 1553 l 354 1682 q 397 1698 372 1698 q 438 1682 422 1698 l 548 1572 z "},"Õ":{"ha":794,"x_min":119,"x_max":675,"o":"m 490 1195 q 474 1207 481 1199 q 456 1249 456 1224 q 474 1291 456 1274 q 516 1309 491 1309 q 552 1298 536 1309 q 593 1263 573 1283 q 675 1066 675 1182 l 675 242 q 593 46 675 127 q 548 8 571 24 q 516 -1 534 -1 q 474 17 491 -1 q 456 59 456 35 q 474 101 456 83 q 482 108 478 105 q 509 130 496 117 q 556 242 556 177 l 556 1066 q 509 1179 556 1132 q 490 1195 500 1188 m 243 1299 q 278 1310 258 1310 q 320 1292 303 1310 q 337 1250 337 1274 q 320 1208 337 1225 q 311 1199 315 1203 q 285 1179 297 1190 q 238 1066 238 1132 l 238 242 q 285 130 238 177 q 311 109 297 118 q 319 102 315 106 q 337 60 337 84 q 319 17 337 35 q 278 0 302 0 q 245 9 260 0 q 200 46 221 25 q 119 242 119 127 l 119 1066 q 200 1263 119 1182 q 243 1299 221 1284 m 252 1510 q 225 1503 239 1503 q 205 1507 215 1503 q 171 1537 182 1515 q 164 1564 164 1551 q 168 1583 164 1573 q 197 1618 175 1607 q 294 1639 238 1639 q 411 1622 345 1639 q 495 1609 461 1609 q 541 1618 524 1609 q 569 1625 555 1625 q 587 1623 578 1625 q 623 1593 612 1616 q 631 1564 631 1579 q 628 1548 631 1556 q 599 1512 621 1523 q 495 1488 557 1488 q 380 1505 443 1488 q 294 1518 327 1518 q 252 1510 267 1518 z "},"Ö":{"ha":794,"x_min":119,"x_max":675,"o":"m 490 1195 q 474 1207 481 1199 q 456 1249 456 1224 q 474 1291 456 1274 q 516 1309 491 1309 q 552 1298 536 1309 q 593 1263 573 1283 q 675 1066 675 1182 l 675 242 q 593 46 675 127 q 548 8 571 24 q 516 -1 534 -1 q 474 17 491 -1 q 456 59 456 35 q 474 101 456 83 q 482 108 478 105 q 509 130 496 117 q 556 242 556 177 l 556 1066 q 509 1179 556 1132 q 490 1195 500 1188 m 243 1299 q 278 1310 258 1310 q 320 1292 303 1310 q 337 1250 337 1274 q 320 1208 337 1225 q 311 1199 315 1203 q 285 1179 297 1190 q 238 1066 238 1132 l 238 242 q 285 130 238 177 q 311 109 297 118 q 319 102 315 106 q 337 60 337 84 q 319 17 337 35 q 278 0 302 0 q 245 9 260 0 q 200 46 221 25 q 119 242 119 127 l 119 1066 q 200 1263 119 1182 q 243 1299 221 1284 m 253 1627 q 309 1604 286 1627 q 332 1548 332 1580 q 309 1492 332 1515 q 253 1468 286 1468 q 197 1492 220 1468 q 174 1548 174 1515 q 197 1604 174 1580 q 253 1627 220 1627 m 542 1627 q 598 1604 574 1627 q 621 1548 621 1580 q 598 1492 621 1515 q 542 1468 574 1468 q 486 1492 509 1468 q 462 1548 462 1515 q 486 1604 462 1580 q 542 1627 509 1627 z "},"×":{"ha":556,"x_min":79,"x_max":480,"o":"m 1065 196 l 968 294 q 950 336 950 311 q 968 378 950 361 q 1010 396 985 396 q 1052 378 1035 396 l 1150 281 l 1248 379 q 1290 396 1265 396 q 1332 379 1314 396 q 1350 337 1350 361 q 1332 295 1350 312 l 1234 196 l 1333 98 q 1350 55 1350 80 q 1333 13 1350 31 q 1291 -4 1315 -4 q 1249 13 1266 -4 l 1150 112 l 1051 14 q 1009 -4 1034 -4 q 967 14 985 -4 q 950 56 950 32 q 967 98 950 81 l 1065 196 z "},"Ø":{"ha":794,"x_min":139,"x_max":694,"o":"m 476 1324 q 613 1249 554 1309 q 694 1053 694 1168 l 694 776 q 677 734 694 751 q 635 716 660 716 q 593 734 610 716 q 575 776 575 751 l 575 1053 q 529 1165 575 1118 q 417 1211 482 1211 q 305 1165 351 1211 q 258 1053 258 1118 l 258 776 q 241 734 258 751 q 198 716 223 716 q 156 734 174 716 q 139 776 139 751 l 139 1053 q 220 1249 139 1168 q 357 1324 280 1309 l 357 1448 q 375 1491 357 1473 q 417 1508 392 1508 q 459 1491 441 1508 q 476 1448 476 1473 l 476 1324 m 357 -14 q 220 62 280 2 q 139 258 139 143 l 139 535 q 156 577 139 560 q 198 594 174 594 q 241 577 223 594 q 258 535 258 560 l 258 258 q 305 146 258 192 q 417 99 351 99 q 529 146 482 99 q 575 258 575 192 l 575 535 q 593 577 575 560 q 635 594 610 594 q 677 577 660 594 q 694 535 694 560 l 694 258 q 613 62 694 143 q 476 -14 554 2 l 476 -137 q 459 -179 476 -162 q 417 -196 441 -196 q 375 -179 392 -196 q 357 -137 357 -162 l 357 -14 z "},"Ù":{"ha":833,"x_min":139,"x_max":694,"o":"m 139 1249 q 156 1291 139 1274 q 198 1309 174 1309 q 241 1291 223 1309 q 258 1249 258 1274 l 258 258 q 305 146 258 192 q 417 99 351 99 q 529 146 482 99 q 575 258 575 192 l 575 1249 q 593 1291 575 1274 q 635 1309 610 1309 q 677 1291 660 1309 q 694 1249 694 1274 l 694 258 q 613 62 694 143 q 417 -20 532 -20 q 220 62 302 -20 q 139 258 139 143 l 139 1249 m 434 1658 q 406 1694 428 1682 q 376 1702 392 1702 q 361 1700 369 1702 q 324 1673 337 1693 q 316 1642 316 1658 q 318 1627 316 1635 l 349 1512 q 376 1477 355 1489 q 407 1468 391 1468 q 422 1470 414 1468 q 457 1498 445 1477 q 466 1528 466 1512 q 464 1544 466 1536 l 434 1658 z "},"Ú":{"ha":833,"x_min":139,"x_max":694,"o":"m 139 1249 q 156 1291 139 1274 q 198 1309 174 1309 q 241 1291 223 1309 q 258 1249 258 1274 l 258 258 q 305 146 258 192 q 417 99 351 99 q 529 146 482 99 q 575 258 575 192 l 575 1249 q 593 1291 575 1274 q 635 1309 610 1309 q 677 1291 660 1309 q 694 1249 694 1274 l 694 258 q 613 62 694 143 q 417 -20 532 -20 q 220 62 302 -20 q 139 258 139 143 l 139 1249 m 400 1657 q 428 1693 406 1681 q 457 1701 441 1701 q 472 1699 464 1701 q 509 1672 496 1692 q 517 1641 517 1657 q 515 1626 517 1634 l 484 1511 q 457 1476 478 1488 q 427 1467 442 1467 q 412 1469 420 1467 q 376 1497 388 1476 q 367 1527 367 1511 q 369 1543 367 1535 l 400 1657 z "},"Û":{"ha":833,"x_min":139,"x_max":694,"o":"m 139 1249 q 156 1291 139 1274 q 198 1309 174 1309 q 241 1291 223 1309 q 258 1249 258 1274 l 258 258 q 305 146 258 192 q 417 99 351 99 q 529 146 482 99 q 575 258 575 192 l 575 1249 q 593 1291 575 1274 q 635 1309 610 1309 q 677 1291 660 1309 q 694 1249 694 1274 l 694 258 q 613 62 694 143 q 417 -20 532 -20 q 220 62 302 -20 q 139 258 139 143 l 139 1249 m 567 1572 q 588 1528 588 1553 q 570 1485 588 1503 q 529 1468 554 1468 q 486 1485 504 1468 l 417 1556 l 346 1485 q 305 1468 329 1468 q 263 1485 280 1468 q 245 1528 245 1503 q 262 1569 245 1553 l 374 1682 q 417 1698 392 1698 q 458 1682 441 1698 l 567 1572 z "},"Ü":{"ha":833,"x_min":139,"x_max":694,"o":"m 139 1249 q 156 1291 139 1274 q 198 1309 174 1309 q 241 1291 223 1309 q 258 1249 258 1274 l 258 258 q 305 146 258 192 q 417 99 351 99 q 529 146 482 99 q 575 258 575 192 l 575 1249 q 593 1291 575 1274 q 635 1309 610 1309 q 677 1291 660 1309 q 694 1249 694 1274 l 694 258 q 613 62 694 143 q 417 -20 532 -20 q 220 62 302 -20 q 139 258 139 143 l 139 1249 m 273 1627 q 329 1604 306 1627 q 352 1548 352 1580 q 329 1492 352 1515 q 273 1468 306 1468 q 217 1492 240 1468 q 193 1548 193 1515 q 217 1604 193 1580 q 273 1627 240 1627 m 562 1627 q 618 1604 594 1627 q 641 1548 641 1580 q 618 1492 641 1515 q 562 1468 594 1468 q 505 1492 529 1468 q 482 1548 482 1515 q 505 1604 482 1580 q 562 1627 529 1627 z "},"Ý":{"ha":635,"x_min":21,"x_max":616,"o":"m 23 1231 q 21 1250 21 1240 q 38 1292 21 1275 q 79 1310 55 1310 q 122 1293 104 1310 q 136 1270 132 1282 l 318 627 l 500 1264 q 517 1293 504 1280 q 559 1310 535 1310 q 600 1292 583 1310 q 616 1250 616 1275 q 613 1226 616 1237 l 377 409 l 377 60 q 360 17 377 35 q 317 0 342 0 q 276 17 294 0 q 258 60 258 35 l 258 410 l 23 1231 m 302 1657 q 329 1693 308 1681 q 359 1701 343 1701 q 374 1699 366 1701 q 411 1672 398 1692 q 419 1641 419 1657 q 417 1626 419 1634 l 386 1511 q 359 1476 380 1488 q 328 1467 344 1467 q 313 1469 321 1467 q 278 1497 290 1476 q 269 1527 269 1511 q 271 1543 269 1535 l 302 1657 z "},"Þ":{"ha":794,"x_min":159,"x_max":714,"o":"m 278 1173 l 437 1173 q 633 1091 552 1173 q 714 895 714 1010 l 714 497 q 633 301 714 382 q 460 220 561 227 q 414 238 432 220 q 397 280 397 255 q 415 321 397 305 q 451 339 430 337 q 549 385 508 344 q 595 497 595 432 l 595 895 q 549 1007 595 960 q 437 1054 502 1054 l 278 1054 l 278 -77 q 260 -120 278 -102 q 218 -137 243 -137 q 176 -120 193 -137 q 159 -77 159 -102 l 159 1250 q 176 1292 159 1275 q 218 1310 193 1310 q 260 1292 243 1310 q 278 1250 278 1275 l 278 1173 z "},"ß":{"ha":794,"x_min":119,"x_max":675,"o":"m 435 595 q 392 613 410 595 q 375 655 375 631 q 392 697 375 680 q 435 714 410 714 l 436 714 q 520 749 485 714 q 556 833 556 784 l 556 1032 q 509 1144 556 1097 q 397 1190 462 1190 q 285 1144 331 1190 q 238 1032 238 1097 l 238 60 q 221 18 238 36 q 179 0 203 0 q 136 18 154 0 q 119 60 119 36 l 119 1032 q 200 1228 119 1147 q 397 1310 282 1310 q 593 1228 512 1310 q 675 1032 675 1147 l 675 833 q 603 666 675 735 q 591 655 597 660 q 603 645 597 650 q 675 476 675 574 l 675 237 q 604 69 675 139 q 437 0 534 0 q 393 18 411 0 q 376 60 376 36 q 393 102 376 84 q 437 119 411 119 q 521 153 486 119 q 556 237 556 188 l 556 476 q 520 561 556 526 q 436 595 485 595 l 435 595 z "},"à":{"ha":774,"x_min":119,"x_max":675,"o":"m 397 0 q 200 81 282 0 q 119 278 119 163 l 119 358 q 200 555 119 473 q 371 635 273 627 q 419 617 402 635 q 437 575 437 599 q 420 534 437 551 q 383 516 404 518 q 285 470 326 512 q 238 358 238 424 l 238 278 q 285 166 238 212 q 397 119 331 119 l 556 119 l 556 693 q 508 806 555 759 q 396 852 462 852 q 282 805 330 852 q 240 787 265 787 q 198 804 215 787 q 181 846 181 821 q 197 888 181 870 q 396 972 281 972 q 592 891 511 972 q 675 693 674 810 l 675 60 q 657 17 675 35 q 615 0 640 0 l 397 0 m 414 1301 q 386 1337 408 1324 q 356 1345 372 1345 q 341 1343 349 1345 q 305 1315 317 1336 q 297 1285 297 1301 q 299 1270 297 1278 l 329 1155 q 356 1120 335 1132 q 387 1111 371 1111 q 402 1113 394 1111 q 438 1141 426 1120 q 446 1171 446 1155 q 444 1187 446 1179 l 414 1301 z "},"á":{"ha":774,"x_min":119,"x_max":675,"o":"m 397 0 q 200 81 282 0 q 119 278 119 163 l 119 358 q 200 555 119 473 q 371 635 273 627 q 419 617 402 635 q 437 575 437 599 q 420 534 437 551 q 383 516 404 518 q 285 470 326 512 q 238 358 238 424 l 238 278 q 285 166 238 212 q 397 119 331 119 l 556 119 l 556 693 q 508 806 555 759 q 396 852 462 852 q 282 805 330 852 q 240 787 265 787 q 198 804 215 787 q 181 846 181 821 q 197 888 181 870 q 396 972 281 972 q 592 891 511 972 q 675 693 674 810 l 675 60 q 657 17 675 35 q 615 0 640 0 l 397 0 m 380 1300 q 408 1336 386 1323 q 438 1344 422 1344 q 452 1342 444 1344 q 489 1314 476 1335 q 497 1284 497 1300 q 495 1269 497 1277 l 464 1154 q 438 1119 458 1131 q 407 1110 423 1110 q 392 1112 400 1110 q 356 1140 368 1119 q 347 1170 347 1154 q 349 1186 347 1178 l 380 1300 z "},"â":{"ha":774,"x_min":119,"x_max":675,"o":"m 397 0 q 200 81 282 0 q 119 278 119 163 l 119 358 q 200 555 119 473 q 371 635 273 627 q 419 617 402 635 q 437 575 437 599 q 420 534 437 551 q 383 516 404 518 q 285 470 326 512 q 238 358 238 424 l 238 278 q 285 166 238 212 q 397 119 331 119 l 556 119 l 556 693 q 508 806 555 759 q 396 852 462 852 q 282 805 330 852 q 240 787 265 787 q 198 804 215 787 q 181 846 181 821 q 197 888 181 870 q 396 972 281 972 q 592 891 511 972 q 675 693 674 810 l 675 60 q 657 17 675 35 q 615 0 640 0 l 397 0 m 548 1215 q 568 1171 568 1195 q 551 1128 568 1146 q 509 1111 534 1111 q 466 1128 484 1111 l 397 1198 l 326 1128 q 285 1111 310 1111 q 243 1128 260 1111 q 225 1171 225 1146 q 242 1212 225 1195 l 354 1324 q 397 1341 372 1341 q 438 1324 422 1341 l 548 1215 z "},"ã":{"ha":774,"x_min":119,"x_max":675,"o":"m 397 0 q 200 81 282 0 q 119 278 119 163 l 119 358 q 200 555 119 473 q 371 635 273 627 q 419 617 402 635 q 437 575 437 599 q 420 534 437 551 q 383 516 404 518 q 285 470 326 512 q 238 358 238 424 l 238 278 q 285 166 238 212 q 397 119 331 119 l 556 119 l 556 693 q 508 806 555 759 q 396 852 462 852 q 282 805 330 852 q 240 787 265 787 q 198 804 215 787 q 181 846 181 821 q 197 888 181 870 q 396 972 281 972 q 592 891 511 972 q 675 693 674 810 l 675 60 q 657 17 675 35 q 615 0 640 0 l 397 0 m 252 1153 q 225 1146 239 1146 q 205 1150 215 1146 q 171 1180 182 1158 q 164 1207 164 1193 q 168 1226 164 1216 q 197 1261 175 1250 q 294 1282 238 1282 q 411 1265 345 1282 q 495 1252 461 1252 q 541 1261 524 1252 q 569 1268 555 1268 q 587 1266 578 1268 q 623 1236 612 1259 q 631 1207 631 1222 q 628 1190 631 1198 q 599 1155 621 1166 q 495 1131 557 1131 q 380 1148 443 1131 q 294 1161 327 1161 q 252 1153 267 1161 z "},"ä":{"ha":774,"x_min":119,"x_max":675,"o":"m 397 0 q 200 81 282 0 q 119 278 119 163 l 119 358 q 200 555 119 473 q 371 635 273 627 q 419 617 402 635 q 437 575 437 599 q 420 534 437 551 q 383 516 404 518 q 285 470 326 512 q 238 358 238 424 l 238 278 q 285 166 238 212 q 397 119 331 119 l 556 119 l 556 693 q 508 806 555 759 q 396 852 462 852 q 282 805 330 852 q 240 787 265 787 q 198 804 215 787 q 181 846 181 821 q 197 888 181 870 q 396 972 281 972 q 592 891 511 972 q 675 693 674 810 l 675 60 q 657 17 675 35 q 615 0 640 0 l 397 0 m 253 1270 q 309 1247 286 1270 q 332 1190 332 1223 q 309 1134 332 1158 q 253 1111 286 1111 q 197 1134 220 1111 q 174 1190 174 1158 q 197 1247 174 1223 q 253 1270 220 1270 m 542 1270 q 598 1247 574 1270 q 621 1190 621 1223 q 598 1134 621 1158 q 542 1111 574 1111 q 486 1134 509 1111 q 462 1190 462 1158 q 486 1247 462 1223 q 542 1270 509 1270 z "},"å":{"ha":774,"x_min":119,"x_max":675,"o":"m 397 0 q 200 81 282 0 q 119 278 119 163 l 119 358 q 200 555 119 473 q 371 635 273 627 q 419 617 402 635 q 437 575 437 599 q 420 534 437 551 q 383 516 404 518 q 285 470 326 512 q 238 358 238 424 l 238 278 q 285 166 238 212 q 397 119 331 119 l 556 119 l 556 693 q 508 806 555 759 q 396 852 462 852 q 282 805 330 852 q 240 787 265 787 q 198 804 215 787 q 181 846 181 821 q 197 888 181 870 q 396 972 281 972 q 592 891 511 972 q 675 693 674 810 l 675 60 q 657 17 675 35 q 615 0 640 0 l 397 0 m 397 1348 q 481 1313 446 1348 q 516 1229 516 1279 q 481 1145 516 1180 q 397 1110 446 1110 q 313 1145 347 1110 q 278 1229 278 1180 q 313 1313 278 1279 q 397 1348 347 1348 z "},"æ":{"ha":1230,"x_min":119,"x_max":1111,"o":"m 669 33 q 658 18 665 25 q 615 0 640 0 l 397 0 q 200 81 282 0 q 119 278 119 163 l 119 358 q 200 555 119 473 q 371 635 273 627 q 419 617 402 635 q 437 575 437 599 q 420 534 437 551 q 383 516 404 518 q 285 470 326 512 q 238 358 238 424 l 238 278 q 285 166 238 212 q 397 119 331 119 l 556 119 l 556 693 q 508 806 555 759 q 396 852 462 852 q 282 805 330 852 q 240 787 265 787 q 198 804 215 787 q 181 846 181 821 q 197 888 181 870 q 396 972 281 972 q 592 891 511 972 q 615 866 604 879 q 637 891 625 879 q 833 972 718 972 q 1030 891 948 972 q 1111 694 1111 810 l 1111 456 q 1094 416 1111 434 q 1052 397 1076 398 l 853 397 q 811 414 828 397 q 794 456 794 432 q 811 499 794 481 q 853 516 828 516 l 992 516 l 992 694 q 945 807 992 760 q 833 853 899 853 q 721 807 768 853 q 675 694 675 760 l 675 258 q 721 146 675 192 q 833 99 767 99 q 945 146 899 99 q 989 165 964 165 q 1031 147 1014 165 q 1049 105 1049 130 q 1030 61 1049 81 q 833 -21 948 -21 q 669 33 740 -21 z "},"ç":{"ha":694,"x_min":119,"x_max":613,"o":"m 307 -7 q 200 61 248 13 q 119 257 119 142 l 119 695 q 200 892 119 811 q 397 973 282 973 q 593 892 512 973 q 613 846 613 870 q 596 804 613 821 q 554 787 578 787 q 509 807 529 787 q 397 853 462 853 q 284 807 330 853 q 238 694 238 760 l 238 258 q 284 146 238 192 q 397 99 330 99 q 509 146 462 99 q 554 166 529 166 q 596 148 578 166 q 613 106 613 131 q 593 61 613 82 q 426 -20 522 -11 l 425 -68 q 493 -111 463 -81 q 546 -238 546 -164 q 494 -365 546 -312 q 367 -417 441 -417 l 247 -417 q 205 -399 222 -417 q 188 -357 188 -382 q 205 -315 188 -332 q 247 -298 222 -298 l 366 -298 q 408 -280 391 -298 q 426 -238 426 -263 q 408 -196 426 -213 q 366 -179 391 -179 q 324 -161 341 -179 q 307 -119 307 -143 l 307 -7 z "},"è":{"ha":774,"x_min":119,"x_max":675,"o":"m 417 397 q 375 414 392 397 q 357 456 357 432 q 375 499 357 481 q 417 516 392 516 l 556 516 l 556 694 q 509 807 556 760 q 397 853 462 853 q 285 807 331 853 q 238 694 238 760 l 238 258 q 284 146 238 192 q 397 99 330 99 q 509 146 462 99 q 553 165 528 165 q 595 147 577 165 q 612 105 612 130 q 593 61 612 81 q 397 -21 512 -21 q 200 61 282 -21 q 119 257 119 142 l 119 694 q 200 891 119 810 q 397 972 282 972 q 593 891 512 972 q 675 694 675 810 l 675 456 q 658 416 675 434 q 615 397 640 398 l 417 397 m 414 1301 q 386 1337 408 1324 q 356 1345 372 1345 q 341 1343 349 1345 q 305 1315 317 1336 q 297 1285 297 1301 q 299 1270 297 1278 l 329 1155 q 356 1120 335 1132 q 387 1111 371 1111 q 402 1113 394 1111 q 438 1141 426 1120 q 446 1171 446 1155 q 444 1187 446 1179 l 414 1301 z "},"é":{"ha":774,"x_min":119,"x_max":675,"o":"m 417 397 q 375 414 392 397 q 357 456 357 432 q 375 499 357 481 q 417 516 392 516 l 556 516 l 556 694 q 509 807 556 760 q 397 853 462 853 q 285 807 331 853 q 238 694 238 760 l 238 258 q 284 146 238 192 q 397 99 330 99 q 509 146 462 99 q 553 165 528 165 q 595 147 577 165 q 612 105 612 130 q 593 61 612 81 q 397 -21 512 -21 q 200 61 282 -21 q 119 257 119 142 l 119 694 q 200 891 119 810 q 397 972 282 972 q 593 891 512 972 q 675 694 675 810 l 675 456 q 658 416 675 434 q 615 397 640 398 l 417 397 m 380 1300 q 408 1336 386 1323 q 438 1344 422 1344 q 452 1342 444 1344 q 489 1314 476 1335 q 497 1284 497 1300 q 495 1269 497 1277 l 464 1154 q 438 1119 458 1131 q 407 1110 423 1110 q 392 1112 400 1110 q 356 1140 368 1119 q 347 1170 347 1154 q 349 1186 347 1178 l 380 1300 z "},"ê":{"ha":774,"x_min":119,"x_max":675,"o":"m 417 397 q 375 414 392 397 q 357 456 357 432 q 375 499 357 481 q 417 516 392 516 l 556 516 l 556 694 q 509 807 556 760 q 397 853 462 853 q 285 807 331 853 q 238 694 238 760 l 238 258 q 284 146 238 192 q 397 99 330 99 q 509 146 462 99 q 553 165 528 165 q 595 147 577 165 q 612 105 612 130 q 593 61 612 81 q 397 -21 512 -21 q 200 61 282 -21 q 119 257 119 142 l 119 694 q 200 891 119 810 q 397 972 282 972 q 593 891 512 972 q 675 694 675 810 l 675 456 q 658 416 675 434 q 615 397 640 398 l 417 397 m 548 1215 q 568 1171 568 1195 q 551 1128 568 1146 q 509 1111 534 1111 q 466 1128 484 1111 l 397 1198 l 326 1128 q 285 1111 310 1111 q 243 1128 260 1111 q 225 1171 225 1146 q 242 1212 225 1195 l 354 1324 q 397 1341 372 1341 q 438 1324 422 1341 l 548 1215 z "},"ë":{"ha":774,"x_min":119,"x_max":675,"o":"m 417 397 q 375 414 392 397 q 357 456 357 432 q 375 499 357 481 q 417 516 392 516 l 556 516 l 556 694 q 509 807 556 760 q 397 853 462 853 q 285 807 331 853 q 238 694 238 760 l 238 258 q 284 146 238 192 q 397 99 330 99 q 509 146 462 99 q 553 165 528 165 q 595 147 577 165 q 612 105 612 130 q 593 61 612 81 q 397 -21 512 -21 q 200 61 282 -21 q 119 257 119 142 l 119 694 q 200 891 119 810 q 397 972 282 972 q 593 891 512 972 q 675 694 675 810 l 675 456 q 658 416 675 434 q 615 397 640 398 l 417 397 m 253 1270 q 309 1247 286 1270 q 332 1190 332 1223 q 309 1134 332 1158 q 253 1111 286 1111 q 197 1134 220 1111 q 174 1190 174 1158 q 197 1247 174 1223 q 253 1270 220 1270 m 542 1270 q 598 1247 574 1270 q 621 1190 621 1223 q 598 1134 621 1158 q 542 1111 574 1111 q 486 1134 509 1111 q 462 1190 462 1158 q 486 1247 462 1223 q 542 1270 509 1270 z "},"ì":{"ha":437,"x_min":118,"x_max":278,"o":"m 278 60 q 260 17 278 35 q 218 0 243 0 q 176 17 193 0 q 159 60 159 35 l 159 893 q 176 935 159 918 q 218 952 193 952 q 260 935 243 952 q 278 893 278 918 l 278 60 m 235 1301 q 207 1337 229 1324 q 178 1345 193 1345 q 163 1343 171 1345 q 126 1315 139 1336 q 118 1285 118 1301 q 120 1270 118 1278 l 151 1155 q 178 1120 157 1132 q 208 1111 192 1111 q 223 1113 215 1111 q 259 1141 247 1120 q 268 1171 268 1155 q 266 1187 268 1179 l 235 1301 z "},"í":{"ha":437,"x_min":159,"x_max":318,"o":"m 278 60 q 260 17 278 35 q 218 0 243 0 q 176 17 193 0 q 159 60 159 35 l 159 893 q 176 935 159 918 q 218 952 193 952 q 260 935 243 952 q 278 893 278 918 l 278 60 m 201 1300 q 229 1336 207 1323 q 259 1344 243 1344 q 274 1342 266 1344 q 311 1314 298 1335 q 318 1284 318 1300 q 316 1269 318 1277 l 286 1154 q 259 1119 280 1131 q 228 1110 244 1110 q 213 1112 221 1110 q 178 1140 189 1119 q 169 1170 169 1154 q 171 1186 169 1178 l 201 1300 z "},"î":{"ha":437,"x_min":47,"x_max":390,"o":"m 278 60 q 260 17 278 35 q 218 0 243 0 q 176 17 193 0 q 159 60 159 35 l 159 893 q 176 935 159 918 q 218 952 193 952 q 260 935 243 952 q 278 893 278 918 l 278 60 m 369 1215 q 390 1171 390 1195 q 372 1128 390 1146 q 330 1111 355 1111 q 288 1128 306 1111 l 218 1198 l 148 1128 q 106 1111 131 1111 q 64 1128 81 1111 q 47 1171 47 1146 q 63 1212 47 1195 l 176 1324 q 218 1341 193 1341 q 260 1324 243 1341 l 369 1215 z "},"ï":{"ha":437,"x_min":-5,"x_max":442,"o":"m 279 60 q 261 17 279 35 q 219 0 244 0 q 177 17 194 0 q 160 60 160 35 l 160 893 q 177 935 160 918 q 219 952 194 952 q 261 935 244 952 q 279 893 279 918 l 279 60 m 74 1270 q 130 1247 107 1270 q 154 1190 154 1223 q 130 1134 154 1158 q 74 1111 107 1111 q 18 1134 42 1111 q -5 1190 -5 1158 q 18 1247 -5 1223 q 74 1270 42 1270 m 363 1270 q 419 1247 396 1270 q 442 1190 442 1223 q 419 1134 442 1158 q 363 1111 396 1111 q 307 1134 330 1111 q 284 1190 284 1158 q 307 1247 284 1223 q 363 1270 330 1270 z "},"ð":{"ha":774,"x_min":100,"x_max":656,"o":"m 221 1144 q 181 1160 197 1144 q 165 1185 169 1170 q 164 1188 164 1187 l 133 1303 q 131 1317 131 1311 q 139 1348 131 1333 q 176 1376 152 1369 q 190 1378 184 1378 q 220 1370 206 1378 q 248 1333 242 1357 l 256 1303 q 377 1329 313 1329 q 573 1248 492 1329 q 655 1052 655 1167 l 655 1051 l 656 1051 l 656 257 q 574 61 656 142 q 378 -21 493 -21 q 182 61 263 -21 q 100 257 100 142 l 100 557 q 182 753 100 672 q 352 833 254 825 q 400 815 383 833 q 418 774 418 798 q 401 731 418 749 q 364 714 385 716 q 266 669 308 710 q 219 557 219 622 l 219 257 q 266 145 219 191 q 378 98 313 98 q 490 145 443 98 q 537 257 537 191 l 537 1051 l 536 1051 q 490 1163 536 1116 q 377 1209 443 1209 q 265 1163 312 1209 q 221 1144 246 1144 z "},"ñ":{"ha":853,"x_min":159,"x_max":714,"o":"m 278 60 q 260 17 278 35 q 218 0 243 0 q 176 17 193 0 q 159 60 159 35 l 159 893 q 176 935 159 918 q 218 952 193 952 l 437 952 q 633 871 552 952 q 714 675 714 790 l 714 60 q 697 17 714 35 q 655 0 680 0 q 613 17 630 0 q 595 60 595 35 l 595 675 q 549 787 595 740 q 437 833 502 833 l 278 833 l 278 60 m 292 1153 q 265 1146 279 1146 q 245 1150 255 1146 q 210 1180 221 1158 q 203 1207 203 1193 q 207 1226 203 1216 q 237 1261 214 1250 q 333 1282 278 1282 q 450 1265 385 1282 q 535 1252 501 1252 q 580 1261 563 1252 q 609 1268 594 1268 q 627 1266 618 1268 q 663 1236 652 1259 q 671 1207 671 1222 q 668 1190 671 1198 q 639 1155 661 1166 q 535 1131 596 1131 q 420 1148 483 1131 q 333 1161 367 1161 q 292 1153 307 1161 z "},"ò":{"ha":794,"x_min":119,"x_max":675,"o":"m 490 839 q 474 851 481 843 q 456 893 456 868 q 474 935 456 918 q 516 952 491 952 q 552 941 536 952 q 593 907 573 927 q 675 710 675 825 l 675 243 q 593 47 675 128 q 548 9 571 25 q 516 0 534 0 q 474 18 491 0 q 456 60 456 36 q 474 102 456 84 q 482 109 478 106 q 509 131 496 118 q 556 243 556 178 l 556 710 q 509 822 556 776 q 490 839 500 831 m 243 942 q 278 953 258 953 q 320 936 303 953 q 337 894 337 918 q 320 852 337 869 q 311 843 315 847 q 285 822 297 834 q 238 710 238 776 l 238 243 q 285 131 238 178 q 311 110 297 119 q 319 103 315 107 q 337 61 337 85 q 319 18 337 36 q 278 1 302 1 q 245 10 260 1 q 200 47 221 26 q 119 243 119 128 l 119 710 q 200 907 119 825 q 243 942 221 928 m 414 1301 q 386 1337 408 1324 q 356 1345 372 1345 q 341 1343 349 1345 q 305 1315 317 1336 q 297 1285 297 1301 q 299 1270 297 1278 l 329 1155 q 356 1120 335 1132 q 387 1111 371 1111 q 402 1113 394 1111 q 438 1141 426 1120 q 446 1171 446 1155 q 444 1187 446 1179 l 414 1301 z "},"ó":{"ha":794,"x_min":119,"x_max":675,"o":"m 490 839 q 474 851 481 843 q 456 893 456 868 q 474 935 456 918 q 516 952 491 952 q 552 941 536 952 q 593 907 573 927 q 675 710 675 825 l 675 243 q 593 47 675 128 q 548 9 571 25 q 516 0 534 0 q 474 18 491 0 q 456 60 456 36 q 474 102 456 84 q 482 109 478 106 q 509 131 496 118 q 556 243 556 178 l 556 710 q 509 822 556 776 q 490 839 500 831 m 243 942 q 278 953 258 953 q 320 936 303 953 q 337 894 337 918 q 320 852 337 869 q 311 843 315 847 q 285 822 297 834 q 238 710 238 776 l 238 243 q 285 131 238 178 q 311 110 297 119 q 319 103 315 107 q 337 61 337 85 q 319 18 337 36 q 278 1 302 1 q 245 10 260 1 q 200 47 221 26 q 119 243 119 128 l 119 710 q 200 907 119 825 q 243 942 221 928 m 380 1300 q 408 1336 386 1323 q 438 1344 422 1344 q 452 1342 444 1344 q 489 1314 476 1335 q 497 1284 497 1300 q 495 1269 497 1277 l 464 1154 q 438 1119 458 1131 q 407 1110 423 1110 q 392 1112 400 1110 q 356 1140 368 1119 q 347 1170 347 1154 q 349 1186 347 1178 l 380 1300 z "},"ô":{"ha":794,"x_min":119,"x_max":675,"o":"m 490 839 q 474 851 481 843 q 456 893 456 868 q 474 935 456 918 q 516 952 491 952 q 552 941 536 952 q 593 907 573 927 q 675 710 675 825 l 675 243 q 593 47 675 128 q 548 9 571 25 q 516 0 534 0 q 474 18 491 0 q 456 60 456 36 q 474 102 456 84 q 482 109 478 106 q 509 131 496 118 q 556 243 556 178 l 556 710 q 509 822 556 776 q 490 839 500 831 m 243 942 q 278 953 258 953 q 320 936 303 953 q 337 894 337 918 q 320 852 337 869 q 311 843 315 847 q 285 822 297 834 q 238 710 238 776 l 238 243 q 285 131 238 178 q 311 110 297 119 q 319 103 315 107 q 337 61 337 85 q 319 18 337 36 q 278 1 302 1 q 245 10 260 1 q 200 47 221 26 q 119 243 119 128 l 119 710 q 200 907 119 825 q 243 942 221 928 m 548 1215 q 568 1171 568 1195 q 551 1128 568 1146 q 509 1111 534 1111 q 466 1128 484 1111 l 397 1198 l 326 1128 q 285 1111 310 1111 q 243 1128 260 1111 q 225 1171 225 1146 q 242 1212 225 1195 l 354 1324 q 397 1341 372 1341 q 438 1324 422 1341 l 548 1215 z "},"õ":{"ha":794,"x_min":119,"x_max":675,"o":"m 490 839 q 474 851 481 843 q 456 893 456 868 q 474 935 456 918 q 516 952 491 952 q 552 941 536 952 q 593 907 573 927 q 675 710 675 825 l 675 243 q 593 47 675 128 q 548 9 571 25 q 516 0 534 0 q 474 18 491 0 q 456 60 456 36 q 474 102 456 84 q 482 109 478 106 q 509 131 496 118 q 556 243 556 178 l 556 710 q 509 822 556 776 q 490 839 500 831 m 243 942 q 278 953 258 953 q 320 936 303 953 q 337 894 337 918 q 320 852 337 869 q 311 843 315 847 q 285 822 297 834 q 238 710 238 776 l 238 243 q 285 131 238 178 q 311 110 297 119 q 319 103 315 107 q 337 61 337 85 q 319 18 337 36 q 278 1 302 1 q 245 10 260 1 q 200 47 221 26 q 119 243 119 128 l 119 710 q 200 907 119 825 q 243 942 221 928 m 252 1153 q 225 1146 239 1146 q 205 1150 215 1146 q 171 1180 182 1158 q 164 1207 164 1193 q 168 1226 164 1216 q 197 1261 175 1250 q 294 1282 238 1282 q 411 1265 345 1282 q 495 1252 461 1252 q 541 1261 524 1252 q 569 1268 555 1268 q 587 1266 578 1268 q 623 1236 612 1259 q 631 1207 631 1222 q 628 1190 631 1198 q 599 1155 621 1166 q 495 1131 557 1131 q 380 1148 443 1131 q 294 1161 327 1161 q 252 1153 267 1161 z "},"ö":{"ha":794,"x_min":119,"x_max":675,"o":"m 490 839 q 474 851 481 843 q 456 893 456 868 q 474 935 456 918 q 516 952 491 952 q 552 941 536 952 q 593 907 573 927 q 675 710 675 825 l 675 243 q 593 47 675 128 q 548 9 571 25 q 516 0 534 0 q 474 18 491 0 q 456 60 456 36 q 474 102 456 84 q 482 109 478 106 q 509 131 496 118 q 556 243 556 178 l 556 710 q 509 822 556 776 q 490 839 500 831 m 243 942 q 278 953 258 953 q 320 936 303 953 q 337 894 337 918 q 320 852 337 869 q 311 843 315 847 q 285 822 297 834 q 238 710 238 776 l 238 243 q 285 131 238 178 q 311 110 297 119 q 319 103 315 107 q 337 61 337 85 q 319 18 337 36 q 278 1 302 1 q 245 10 260 1 q 200 47 221 26 q 119 243 119 128 l 119 710 q 200 907 119 825 q 243 942 221 928 m 253 1270 q 309 1247 286 1270 q 332 1190 332 1223 q 309 1134 332 1158 q 253 1111 286 1111 q 197 1134 220 1111 q 174 1190 174 1158 q 197 1247 174 1223 q 253 1270 220 1270 m 542 1270 q 598 1247 574 1270 q 621 1190 621 1223 q 598 1134 621 1158 q 542 1111 574 1111 q 486 1134 509 1111 q 462 1190 462 1158 q 486 1247 462 1223 q 542 1270 509 1270 z "},"÷":{"ha":675,"x_min":80,"x_max":596,"o":"m 140 556 q 98 573 115 556 q 80 615 80 590 q 98 657 80 640 q 140 675 115 675 l 537 675 q 579 657 562 675 q 596 615 596 640 q 579 573 596 590 q 537 556 562 556 l 140 556 m 343 397 q 399 374 376 397 q 423 317 423 350 q 399 261 423 285 q 343 238 376 238 q 287 261 311 238 q 264 317 264 285 q 287 374 264 350 q 343 397 311 397 m 343 1002 q 399 979 376 1002 q 423 923 423 955 q 399 867 423 890 q 343 843 376 843 q 287 867 311 843 q 264 923 264 890 q 287 979 264 955 q 343 1002 311 1002 z "},"ø":{"ha":794,"x_min":139,"x_max":694,"o":"m 476 967 q 613 892 554 951 q 694 695 694 811 l 694 597 q 677 555 694 572 q 635 538 660 538 q 593 555 610 538 q 575 597 575 572 l 575 695 q 529 808 575 761 q 417 854 482 854 q 305 808 351 854 q 258 695 258 761 l 258 597 q 241 555 258 572 q 198 538 223 538 q 156 555 174 538 q 139 597 139 572 l 139 695 q 220 892 139 811 q 357 967 280 951 l 357 1091 q 375 1133 357 1116 q 417 1151 392 1151 q 459 1133 441 1151 q 476 1091 476 1116 l 476 967 m 357 -14 q 220 62 280 2 q 139 258 139 143 l 139 356 q 156 398 139 381 q 198 416 174 416 q 241 398 223 416 q 258 356 258 381 l 258 258 q 305 146 258 192 q 417 99 351 99 q 529 146 482 99 q 575 258 575 192 l 575 356 q 593 398 575 381 q 635 416 610 416 q 677 398 660 416 q 694 356 694 381 l 694 258 q 613 62 694 143 q 476 -14 554 2 l 476 -137 q 459 -179 476 -162 q 417 -196 441 -196 q 375 -179 392 -196 q 357 -137 357 -162 l 357 -14 z "},"ù":{"ha":853,"x_min":139,"x_max":694,"o":"m 575 893 q 593 935 575 918 q 635 952 610 952 q 677 935 660 952 q 694 893 694 918 l 694 60 q 677 17 694 35 q 635 0 660 0 l 417 0 q 220 81 302 0 q 139 278 139 163 l 139 893 q 156 935 139 918 q 198 952 174 952 q 241 935 223 952 q 258 893 258 918 l 258 278 q 305 166 258 212 q 417 119 351 119 l 575 119 l 575 893 m 434 1301 q 406 1337 428 1324 q 376 1345 392 1345 q 361 1343 369 1345 q 324 1315 337 1336 q 316 1285 316 1301 q 318 1270 316 1278 l 349 1155 q 376 1120 355 1132 q 407 1111 391 1111 q 422 1113 414 1111 q 457 1141 445 1120 q 466 1171 466 1155 q 464 1187 466 1179 l 434 1301 z "},"ú":{"ha":853,"x_min":139,"x_max":694,"o":"m 575 893 q 593 935 575 918 q 635 952 610 952 q 677 935 660 952 q 694 893 694 918 l 694 60 q 677 17 694 35 q 635 0 660 0 l 417 0 q 220 81 302 0 q 139 278 139 163 l 139 893 q 156 935 139 918 q 198 952 174 952 q 241 935 223 952 q 258 893 258 918 l 258 278 q 305 166 258 212 q 417 119 351 119 l 575 119 l 575 893 m 400 1300 q 428 1336 406 1323 q 457 1344 441 1344 q 472 1342 464 1344 q 509 1314 496 1335 q 517 1284 517 1300 q 515 1269 517 1277 l 484 1154 q 457 1119 478 1131 q 427 1110 442 1110 q 412 1112 420 1110 q 376 1140 388 1119 q 367 1170 367 1154 q 369 1186 367 1178 l 400 1300 z "},"û":{"ha":853,"x_min":139,"x_max":694,"o":"m 575 893 q 593 935 575 918 q 635 952 610 952 q 677 935 660 952 q 694 893 694 918 l 694 60 q 677 17 694 35 q 635 0 660 0 l 417 0 q 220 81 302 0 q 139 278 139 163 l 139 893 q 156 935 139 918 q 198 952 174 952 q 241 935 223 952 q 258 893 258 918 l 258 278 q 305 166 258 212 q 417 119 351 119 l 575 119 l 575 893 m 567 1215 q 588 1171 588 1195 q 570 1128 588 1146 q 529 1111 554 1111 q 486 1128 504 1111 l 417 1198 l 346 1128 q 305 1111 329 1111 q 263 1128 280 1111 q 245 1171 245 1146 q 262 1212 245 1195 l 374 1324 q 417 1341 392 1341 q 458 1324 441 1341 l 567 1215 z "},"ü":{"ha":853,"x_min":139,"x_max":694,"o":"m 575 893 q 593 935 575 918 q 635 952 610 952 q 677 935 660 952 q 694 893 694 918 l 694 60 q 677 17 694 35 q 635 0 660 0 l 417 0 q 220 81 302 0 q 139 278 139 163 l 139 893 q 156 935 139 918 q 198 952 174 952 q 241 935 223 952 q 258 893 258 918 l 258 278 q 305 166 258 212 q 417 119 351 119 l 575 119 l 575 893 m 273 1270 q 329 1247 306 1270 q 352 1190 352 1223 q 329 1134 352 1158 q 273 1111 306 1111 q 217 1134 240 1111 q 193 1190 193 1158 q 217 1247 193 1223 q 273 1270 240 1270 m 562 1270 q 618 1247 594 1270 q 641 1190 641 1223 q 618 1134 641 1158 q 562 1111 594 1111 q 505 1134 529 1111 q 482 1190 482 1158 q 505 1247 482 1223 q 562 1270 529 1270 z "},"ý":{"ha":833,"x_min":139,"x_max":694,"o":"m 575 893 q 593 935 575 918 q 635 952 610 952 q 677 935 660 952 q 694 893 694 918 l 694 -99 q 625 -267 694 -197 q 456 -337 555 -337 q 289 -268 358 -337 q 246 -212 263 -242 q 238 -179 238 -196 q 254 -137 238 -154 q 296 -120 271 -120 q 336 -135 320 -120 q 347 -150 343 -143 q 373 -184 357 -168 q 456 -218 408 -218 q 541 -184 506 -218 q 575 -99 575 -149 l 575 0 l 417 0 q 220 81 302 0 q 139 278 139 163 l 139 893 q 156 935 139 918 q 198 952 174 952 q 241 935 223 952 q 258 893 258 918 l 258 278 q 305 166 258 212 q 417 119 351 119 l 575 119 l 575 893 m 400 1300 q 428 1336 406 1323 q 457 1344 441 1344 q 472 1342 464 1344 q 509 1314 496 1335 q 517 1284 517 1300 q 515 1269 517 1277 l 484 1154 q 457 1119 478 1131 q 427 1110 442 1110 q 412 1112 420 1110 q 376 1140 388 1119 q 367 1170 367 1154 q 369 1186 367 1178 l 400 1300 z "},"þ":{"ha":833,"x_min":159,"x_max":714,"o":"m 278 951 l 437 951 q 633 870 552 951 q 714 674 714 789 l 714 276 q 633 79 714 161 q 460 -1 561 6 q 414 16 432 -1 q 397 59 397 34 q 415 101 397 83 q 451 118 430 117 q 549 164 508 123 q 595 276 595 210 l 595 674 q 549 786 595 739 q 437 832 502 832 l 278 832 l 278 -299 q 260 -341 278 -323 q 218 -358 243 -358 q 176 -341 193 -358 q 159 -299 159 -323 l 159 1250 q 176 1292 159 1275 q 218 1310 193 1310 q 260 1292 243 1310 q 278 1250 278 1275 l 278 951 z "},"ÿ":{"ha":833,"x_min":139,"x_max":694,"o":"m 575 893 q 593 935 575 918 q 635 952 610 952 q 677 935 660 952 q 694 893 694 918 l 694 -99 q 625 -267 694 -197 q 456 -337 555 -337 q 289 -268 358 -337 q 246 -212 263 -242 q 238 -179 238 -196 q 254 -137 238 -154 q 296 -120 271 -120 q 336 -135 320 -120 q 347 -150 343 -143 q 373 -184 357 -168 q 456 -218 408 -218 q 541 -184 506 -218 q 575 -99 575 -149 l 575 0 l 417 0 q 220 81 302 0 q 139 278 139 163 l 139 893 q 156 935 139 918 q 198 952 174 952 q 241 935 223 952 q 258 893 258 918 l 258 278 q 305 166 258 212 q 417 119 351 119 l 575 119 l 575 893 m 273 1270 q 329 1247 306 1270 q 352 1190 352 1223 q 329 1134 352 1158 q 273 1111 306 1111 q 217 1134 240 1111 q 193 1190 193 1158 q 217 1247 193 1223 q 273 1270 240 1270 m 562 1270 q 618 1247 594 1270 q 641 1190 641 1223 q 618 1134 641 1158 q 562 1111 594 1111 q 505 1134 529 1111 q 482 1190 482 1158 q 505 1247 482 1223 q 562 1270 529 1270 z "},"Ā":{"ha":794,"x_min":20,"x_max":774,"o":"m 397 394 q 439 376 422 394 q 456 334 456 359 q 439 292 456 310 q 397 275 422 275 l 199 275 l 139 50 q 122 18 134 31 q 79 0 104 0 q 37 17 55 0 q 20 60 20 35 q 21 72 20 66 l 338 1257 q 355 1291 342 1276 q 397 1309 373 1309 q 439 1291 422 1309 q 455 1257 451 1276 l 773 72 q 774 60 774 66 q 756 17 774 35 q 714 0 739 0 q 673 18 689 0 q 655 50 660 31 l 397 1016 l 231 394 l 397 394 m 278 1468 q 236 1486 253 1468 q 218 1528 218 1503 q 236 1570 218 1553 q 278 1587 253 1587 l 516 1587 q 558 1570 541 1587 q 575 1528 575 1553 q 558 1486 575 1503 q 516 1468 541 1468 l 278 1468 z "},"ā":{"ha":774,"x_min":119,"x_max":675,"o":"m 397 0 q 200 81 282 0 q 119 278 119 163 l 119 358 q 200 555 119 473 q 371 635 273 627 q 419 617 402 635 q 437 575 437 599 q 420 534 437 551 q 383 516 404 518 q 285 470 326 512 q 238 358 238 424 l 238 278 q 285 166 238 212 q 397 119 331 119 l 556 119 l 556 693 q 508 806 555 759 q 396 852 462 852 q 282 805 330 852 q 240 787 265 787 q 198 804 215 787 q 181 846 181 821 q 197 888 181 870 q 396 972 281 972 q 592 891 511 972 q 675 693 674 810 l 675 60 q 657 17 675 35 q 615 0 640 0 l 397 0 m 278 1111 q 236 1128 253 1111 q 218 1171 218 1146 q 236 1213 218 1195 q 278 1230 253 1230 l 516 1230 q 558 1213 541 1230 q 575 1171 575 1195 q 558 1128 575 1146 q 516 1111 541 1111 l 278 1111 z "},"Ă":{"ha":794,"x_min":20,"x_max":774,"o":"m 397 394 q 439 376 422 394 q 456 334 456 359 q 439 292 456 310 q 397 275 422 275 l 199 275 l 139 50 q 122 18 134 31 q 79 0 104 0 q 37 17 55 0 q 20 60 20 35 q 21 72 20 66 l 338 1257 q 355 1291 342 1276 q 397 1309 373 1309 q 439 1291 422 1309 q 455 1257 451 1276 l 773 72 q 774 60 774 66 q 756 17 774 35 q 714 0 739 0 q 673 18 689 0 q 655 50 660 31 l 397 1016 l 231 394 l 397 394 m 251 1510 q 223 1547 230 1522 q 221 1563 221 1555 q 230 1593 221 1578 q 267 1621 243 1614 q 283 1623 275 1623 q 313 1614 299 1623 q 397 1588 356 1588 q 483 1615 438 1589 q 512 1622 497 1622 q 529 1620 521 1622 q 565 1591 554 1614 q 573 1562 573 1577 q 571 1546 573 1554 q 543 1509 564 1521 q 403 1468 472 1469 l 397 1468 q 251 1510 322 1468 z "},"ă":{"ha":774,"x_min":119,"x_max":675,"o":"m 397 0 q 200 81 282 0 q 119 278 119 163 l 119 358 q 200 555 119 473 q 371 635 273 627 q 419 617 402 635 q 437 575 437 599 q 420 534 437 551 q 383 516 404 518 q 285 470 326 512 q 238 358 238 424 l 238 278 q 285 166 238 212 q 397 119 331 119 l 556 119 l 556 693 q 508 806 555 759 q 396 852 462 852 q 282 805 330 852 q 240 787 265 787 q 198 804 215 787 q 181 846 181 821 q 197 888 181 870 q 396 972 281 972 q 592 891 511 972 q 675 693 674 810 l 675 60 q 657 17 675 35 q 615 0 640 0 l 397 0 m 251 1153 q 223 1189 230 1165 q 221 1205 221 1197 q 230 1236 221 1221 q 267 1264 243 1257 q 283 1266 275 1266 q 313 1257 299 1266 q 397 1231 356 1231 q 483 1258 438 1232 q 512 1265 497 1265 q 529 1263 521 1265 q 565 1234 554 1257 q 573 1204 573 1220 q 571 1188 573 1196 q 543 1152 564 1164 q 403 1111 472 1112 l 397 1111 q 251 1153 322 1111 z "},"Ą":{"ha":794,"x_min":20,"x_max":893,"o":"m 640 104 l 397 1016 l 231 394 l 397 394 q 439 376 422 394 q 456 334 456 359 q 439 292 456 310 q 397 275 422 275 l 199 275 l 139 50 q 122 18 134 31 q 79 0 104 0 q 37 17 55 0 q 20 60 20 35 q 21 72 20 66 l 338 1257 q 355 1291 342 1276 q 397 1309 373 1309 q 439 1291 422 1309 q 455 1257 451 1276 l 773 72 q 774 60 774 66 q 756 18 774 36 q 714 0 739 0 q 672 -17 689 0 q 655 -60 655 -35 q 672 -102 655 -84 q 714 -119 689 -119 l 833 -119 q 875 -136 858 -119 q 893 -179 893 -154 q 875 -221 893 -203 q 833 -238 858 -238 l 713 -238 q 587 -186 639 -238 q 535 -60 535 -134 q 587 67 535 15 q 640 104 611 91 z "},"ą":{"ha":774,"x_min":119,"x_max":794,"o":"m 445 0 l 397 0 q 200 81 282 0 q 119 278 119 163 l 119 358 q 200 555 119 473 q 371 635 273 627 q 419 617 402 635 q 437 575 437 599 q 420 534 437 551 q 383 516 404 518 q 285 470 326 512 q 238 358 238 424 l 238 278 q 285 166 238 212 q 397 119 331 119 l 556 119 l 556 693 q 508 806 555 759 q 396 852 462 852 q 282 805 330 852 q 240 787 265 787 q 198 804 215 787 q 181 846 181 821 q 197 888 181 870 q 396 972 281 972 q 592 891 511 972 q 675 693 674 810 l 675 60 q 657 18 675 36 q 615 0 640 0 q 573 -17 590 0 q 556 -60 556 -35 q 573 -102 556 -84 q 615 -119 590 -119 l 734 -119 q 776 -136 759 -119 q 794 -179 794 -154 q 776 -221 794 -203 q 734 -238 759 -238 l 614 -238 q 488 -186 540 -238 q 436 -60 436 -134 q 445 0 436 -28 z "},"Ć":{"ha":675,"x_min":119,"x_max":613,"o":"m 512 149 q 554 166 529 166 q 596 148 578 166 q 613 106 613 131 q 596 64 613 82 q 397 -21 512 -21 q 200 61 282 -21 q 119 257 119 142 l 119 1053 q 200 1249 119 1168 q 397 1330 282 1330 q 596 1245 512 1330 q 613 1203 613 1227 q 596 1161 613 1179 q 554 1144 578 1144 q 512 1162 529 1144 q 397 1210 462 1210 q 284 1164 330 1210 q 238 1052 238 1117 l 238 258 q 284 146 238 192 q 397 99 330 99 q 512 149 462 99 m 349 1657 q 377 1693 355 1681 q 407 1701 391 1701 q 422 1699 414 1701 q 458 1672 445 1692 q 466 1641 466 1657 q 464 1626 466 1634 l 434 1511 q 407 1476 428 1488 q 376 1467 392 1467 q 361 1469 369 1467 q 325 1497 337 1476 q 316 1527 316 1511 q 318 1543 316 1535 l 349 1657 z "},"ć":{"ha":694,"x_min":119,"x_max":613,"o":"m 509 146 q 554 166 529 166 q 596 148 578 166 q 613 106 613 131 q 593 61 613 82 q 397 -21 512 -21 q 200 61 282 -21 q 119 257 119 142 l 119 695 q 200 892 119 811 q 397 973 282 973 q 593 892 512 973 q 613 846 613 870 q 596 804 613 821 q 554 787 578 787 q 509 807 529 787 q 397 853 462 853 q 284 807 330 853 q 238 694 238 760 l 238 258 q 284 146 238 192 q 397 99 330 99 q 509 146 462 99 m 349 1300 q 377 1336 355 1323 q 407 1344 391 1344 q 422 1342 414 1344 q 458 1314 445 1335 q 466 1284 466 1300 q 464 1269 466 1277 l 434 1154 q 407 1119 428 1131 q 376 1110 392 1110 q 361 1112 369 1110 q 325 1140 337 1119 q 316 1170 316 1154 q 318 1186 316 1178 l 349 1300 z "},"Ĉ":{"ha":675,"x_min":119,"x_max":613,"o":"m 512 149 q 554 166 529 166 q 596 148 578 166 q 613 106 613 131 q 596 64 613 82 q 397 -21 512 -21 q 200 61 282 -21 q 119 257 119 142 l 119 1053 q 200 1249 119 1168 q 397 1330 282 1330 q 596 1245 512 1330 q 613 1203 613 1227 q 596 1161 613 1179 q 554 1144 578 1144 q 512 1162 529 1144 q 397 1210 462 1210 q 284 1164 330 1210 q 238 1052 238 1117 l 238 258 q 284 146 238 192 q 397 99 330 99 q 512 149 462 99 m 517 1572 q 538 1528 538 1553 q 520 1485 538 1503 q 478 1468 503 1468 q 436 1485 453 1468 l 366 1556 l 296 1485 q 254 1468 279 1468 q 212 1485 229 1468 q 194 1528 194 1503 q 211 1569 194 1553 l 323 1682 q 366 1698 341 1698 q 408 1682 391 1698 l 517 1572 z "},"ĉ":{"ha":694,"x_min":119,"x_max":613,"o":"m 509 146 q 554 166 529 166 q 596 148 578 166 q 613 106 613 131 q 593 61 613 82 q 397 -21 512 -21 q 200 61 282 -21 q 119 257 119 142 l 119 695 q 200 892 119 811 q 397 973 282 973 q 593 892 512 973 q 613 846 613 870 q 596 804 613 821 q 554 787 578 787 q 509 807 529 787 q 397 853 462 853 q 284 807 330 853 q 238 694 238 760 l 238 258 q 284 146 238 192 q 397 99 330 99 q 509 146 462 99 m 517 1215 q 538 1171 538 1195 q 520 1128 538 1146 q 478 1111 503 1111 q 436 1128 453 1111 l 366 1198 l 296 1128 q 254 1111 279 1111 q 212 1128 229 1111 q 194 1171 194 1146 q 211 1212 194 1195 l 323 1324 q 366 1341 341 1341 q 408 1324 391 1341 l 517 1215 z "},"Ċ":{"ha":675,"x_min":119,"x_max":613,"o":"m 512 149 q 554 166 529 166 q 596 148 578 166 q 613 106 613 131 q 596 64 613 82 q 397 -21 512 -21 q 200 61 282 -21 q 119 257 119 142 l 119 1053 q 200 1249 119 1168 q 397 1330 282 1330 q 596 1245 512 1330 q 613 1203 613 1227 q 596 1161 613 1179 q 554 1144 578 1144 q 512 1162 529 1144 q 397 1210 462 1210 q 284 1164 330 1210 q 238 1052 238 1117 l 238 258 q 284 146 238 192 q 397 99 330 99 q 512 149 462 99 z "},"ċ":{"ha":694,"x_min":119,"x_max":613,"o":"m 509 146 q 554 166 529 166 q 596 148 578 166 q 613 106 613 131 q 593 61 613 82 q 397 -21 512 -21 q 200 61 282 -21 q 119 257 119 142 l 119 695 q 200 892 119 811 q 397 973 282 973 q 593 892 512 973 q 613 846 613 870 q 596 804 613 821 q 554 787 578 787 q 509 807 529 787 q 397 853 462 853 q 284 807 330 853 q 238 694 238 760 l 238 258 q 284 146 238 192 q 397 99 330 99 q 509 146 462 99 z "},"Č":{"ha":675,"x_min":119,"x_max":613,"o":"m 512 149 q 554 166 529 166 q 596 148 578 166 q 613 106 613 131 q 596 64 613 82 q 397 -21 512 -21 q 200 61 282 -21 q 119 257 119 142 l 119 1053 q 200 1249 119 1168 q 397 1330 282 1330 q 596 1245 512 1330 q 613 1203 613 1227 q 596 1161 613 1179 q 554 1144 578 1144 q 512 1162 529 1144 q 397 1210 462 1210 q 284 1164 330 1210 q 238 1052 238 1117 l 238 258 q 284 146 238 192 q 397 99 330 99 q 512 149 462 99 z "},"č":{"ha":694,"x_min":119,"x_max":613,"o":"m 509 146 q 554 166 529 166 q 596 148 578 166 q 613 106 613 131 q 593 61 613 82 q 397 -21 512 -21 q 200 61 282 -21 q 119 257 119 142 l 119 695 q 200 892 119 811 q 397 973 282 973 q 593 892 512 973 q 613 846 613 870 q 596 804 613 821 q 554 787 578 787 q 509 807 529 787 q 397 853 462 853 q 284 807 330 853 q 238 694 238 760 l 238 258 q 284 146 238 192 q 397 99 330 99 q 509 146 462 99 z "},"Ď":{"ha":794,"x_min":159,"x_max":714,"o":"m 451 119 q 549 165 508 124 q 595 276 595 210 l 595 1032 q 549 1144 595 1097 q 437 1190 502 1190 l 278 1190 l 278 60 q 260 17 278 35 q 218 0 243 0 q 176 17 193 0 q 159 60 159 35 l 159 1250 q 176 1292 159 1275 q 218 1310 193 1310 l 437 1310 q 633 1228 552 1310 q 714 1032 714 1147 l 714 276 q 633 80 714 161 q 460 0 561 7 q 414 17 432 0 q 397 60 397 35 q 415 101 397 84 q 451 119 430 117 z "},"ď":{"ha":992,"x_min":119,"x_max":983,"o":"m 382 833 q 419 851 404 835 q 437 893 437 868 q 419 935 437 918 q 373 952 402 952 q 200 872 273 945 q 119 676 119 791 l 119 278 q 200 81 119 163 q 397 0 282 0 l 615 0 q 657 17 640 0 q 675 60 675 35 l 675 1250 q 657 1292 675 1275 q 615 1310 640 1310 q 573 1292 590 1310 q 556 1250 556 1275 l 556 119 l 397 119 q 285 166 331 119 q 238 278 238 212 l 238 676 q 285 788 238 741 q 382 833 325 828 z "},"Đ":{"ha":794,"x_min":39,"x_max":712,"o":"m 157 714 l 157 1250 q 174 1292 157 1275 q 216 1310 191 1310 l 435 1310 q 631 1228 550 1310 q 712 1032 712 1147 l 712 276 q 631 80 712 161 q 458 0 559 7 q 412 17 430 0 q 395 60 395 35 q 413 101 395 84 q 449 119 428 117 q 547 165 506 124 q 593 276 593 210 l 593 1032 q 547 1144 593 1097 q 435 1190 500 1190 l 276 1190 l 276 714 l 335 714 q 377 697 360 714 q 395 655 395 680 q 377 613 395 630 q 335 595 360 595 l 276 595 l 276 60 q 258 17 276 35 q 216 0 241 0 q 174 17 191 0 q 157 60 157 35 l 157 595 l 98 595 q 56 613 73 595 q 39 655 39 630 q 56 697 39 680 q 98 714 73 714 l 157 714 z "},"đ":{"ha":833,"x_min":120,"x_max":755,"o":"m 676 1072 l 676 60 q 658 17 676 35 q 616 0 641 0 l 398 0 q 201 81 283 0 q 120 278 120 163 l 120 676 q 201 872 120 791 q 374 952 274 945 q 420 935 403 952 q 438 893 438 918 q 421 850 438 868 q 383 833 405 834 q 286 788 326 828 q 239 676 239 741 l 239 278 q 286 166 239 212 q 398 119 332 119 l 557 119 l 557 1072 l 455 1072 q 413 1090 431 1072 q 396 1132 396 1107 q 413 1174 396 1157 q 455 1191 431 1191 l 557 1191 l 557 1250 q 574 1292 557 1275 q 616 1310 591 1310 q 658 1292 641 1310 q 676 1250 676 1275 l 676 1191 l 695 1191 q 738 1174 720 1191 q 755 1132 755 1157 q 738 1090 755 1107 q 695 1072 720 1072 l 676 1072 z "},"Ē":{"ha":714,"x_min":159,"x_max":656,"o":"m 159 1250 q 176 1292 159 1275 q 218 1310 193 1310 l 596 1310 q 638 1292 621 1310 q 656 1250 656 1275 q 638 1208 656 1226 q 596 1190 621 1190 l 278 1190 l 278 714 l 536 714 q 578 697 561 714 q 595 655 595 680 q 578 613 595 630 q 536 595 561 595 l 278 595 l 278 119 l 596 119 q 638 102 621 119 q 656 60 656 84 q 638 18 656 36 q 596 0 621 0 l 218 0 q 176 17 193 0 q 159 60 159 35 l 159 1250 m 289 1468 q 247 1486 264 1468 q 229 1528 229 1503 q 247 1570 229 1553 q 289 1587 264 1587 l 527 1587 q 569 1570 552 1587 q 586 1528 586 1553 q 569 1486 586 1503 q 527 1468 552 1468 l 289 1468 z "},"ē":{"ha":774,"x_min":119,"x_max":675,"o":"m 417 397 q 375 414 392 397 q 357 456 357 432 q 375 499 357 481 q 417 516 392 516 l 556 516 l 556 694 q 509 807 556 760 q 397 853 462 853 q 285 807 331 853 q 238 694 238 760 l 238 258 q 284 146 238 192 q 397 99 330 99 q 509 146 462 99 q 553 165 528 165 q 595 147 577 165 q 612 105 612 130 q 593 61 612 81 q 397 -21 512 -21 q 200 61 282 -21 q 119 257 119 142 l 119 694 q 200 891 119 810 q 397 972 282 972 q 593 891 512 972 q 675 694 675 810 l 675 456 q 658 416 675 434 q 615 397 640 398 l 417 397 m 278 1111 q 236 1128 253 1111 q 218 1171 218 1146 q 236 1213 218 1195 q 278 1230 253 1230 l 516 1230 q 558 1213 541 1230 q 575 1171 575 1195 q 558 1128 575 1146 q 516 1111 541 1111 l 278 1111 z "},"Ĕ":{"ha":714,"x_min":159,"x_max":656,"o":"m 159 1250 q 176 1292 159 1275 q 218 1310 193 1310 l 596 1310 q 638 1292 621 1310 q 656 1250 656 1275 q 638 1208 656 1226 q 596 1190 621 1190 l 278 1190 l 278 714 l 536 714 q 578 697 561 714 q 595 655 595 680 q 578 613 595 630 q 536 595 561 595 l 278 595 l 278 119 l 596 119 q 638 102 621 119 q 656 60 656 84 q 638 18 656 36 q 596 0 621 0 l 218 0 q 176 17 193 0 q 159 60 159 35 l 159 1250 m 261 1510 q 233 1547 240 1522 q 231 1563 231 1555 q 240 1593 231 1578 q 277 1621 253 1614 q 293 1623 285 1623 q 323 1614 309 1623 q 407 1588 366 1588 q 493 1615 448 1589 q 522 1622 507 1622 q 539 1620 531 1622 q 575 1591 563 1614 q 583 1562 583 1577 q 581 1546 583 1554 q 553 1509 574 1521 q 413 1468 482 1469 l 407 1468 q 261 1510 332 1468 z "},"ĕ":{"ha":774,"x_min":119,"x_max":675,"o":"m 417 397 q 375 414 392 397 q 357 456 357 432 q 375 499 357 481 q 417 516 392 516 l 556 516 l 556 694 q 509 807 556 760 q 397 853 462 853 q 285 807 331 853 q 238 694 238 760 l 238 258 q 284 146 238 192 q 397 99 330 99 q 509 146 462 99 q 553 165 528 165 q 595 147 577 165 q 612 105 612 130 q 593 61 612 81 q 397 -21 512 -21 q 200 61 282 -21 q 119 257 119 142 l 119 694 q 200 891 119 810 q 397 972 282 972 q 593 891 512 972 q 675 694 675 810 l 675 456 q 658 416 675 434 q 615 397 640 398 l 417 397 m 251 1153 q 223 1189 230 1165 q 221 1205 221 1197 q 230 1236 221 1221 q 267 1264 243 1257 q 283 1266 275 1266 q 313 1257 299 1266 q 397 1231 356 1231 q 483 1258 438 1232 q 512 1265 497 1265 q 529 1263 521 1265 q 565 1234 554 1257 q 573 1204 573 1220 q 571 1188 573 1196 q 543 1152 564 1164 q 403 1111 472 1112 l 397 1111 q 251 1153 322 1111 z "},"Ė":{"ha":714,"x_min":159,"x_max":656,"o":"m 159 1250 q 176 1292 159 1275 q 218 1310 193 1310 l 596 1310 q 638 1292 621 1310 q 656 1250 656 1275 q 638 1208 656 1226 q 596 1190 621 1190 l 278 1190 l 278 714 l 536 714 q 578 697 561 714 q 595 655 595 680 q 578 613 595 630 q 536 595 561 595 l 278 595 l 278 119 l 596 119 q 638 102 621 119 q 656 60 656 84 q 638 18 656 36 q 596 0 621 0 l 218 0 q 176 17 193 0 q 159 60 159 35 l 159 1250 z "},"ė":{"ha":774,"x_min":119,"x_max":675,"o":"m 417 397 q 375 414 392 397 q 357 456 357 432 q 375 499 357 481 q 417 516 392 516 l 556 516 l 556 694 q 509 807 556 760 q 397 853 462 853 q 285 807 331 853 q 238 694 238 760 l 238 258 q 284 146 238 192 q 397 99 330 99 q 509 146 462 99 q 553 165 528 165 q 595 147 577 165 q 612 105 612 130 q 593 61 612 81 q 397 -21 512 -21 q 200 61 282 -21 q 119 257 119 142 l 119 694 q 200 891 119 810 q 397 972 282 972 q 593 891 512 972 q 675 694 675 810 l 675 456 q 658 416 675 434 q 615 397 640 398 l 417 397 z "},"Ę":{"ha":714,"x_min":159,"x_max":775,"o":"m 427 0 l 218 0 q 176 17 193 0 q 159 60 159 35 l 159 1250 q 176 1292 159 1275 q 218 1310 193 1310 l 596 1310 q 638 1292 621 1310 q 656 1250 656 1275 q 638 1208 656 1226 q 596 1190 621 1190 l 278 1190 l 278 714 l 536 714 q 578 697 561 714 q 595 655 595 680 q 578 613 595 630 q 536 595 561 595 l 278 595 l 278 119 l 596 119 q 638 102 621 119 q 656 60 656 84 q 638 18 656 36 q 596 0 621 0 q 554 -17 571 0 q 537 -60 537 -35 q 554 -102 537 -84 q 596 -119 571 -119 l 715 -119 q 757 -136 740 -119 q 775 -179 775 -154 q 757 -221 775 -203 q 715 -238 740 -238 l 595 -238 q 469 -186 521 -238 q 417 -60 417 -134 q 427 0 417 -28 z "},"ę":{"ha":774,"x_min":119,"x_max":675,"o":"m 324 -12 q 200 61 255 6 q 119 257 119 142 l 119 694 q 200 891 119 810 q 397 972 282 972 q 593 891 512 972 q 675 694 675 810 l 675 456 q 658 416 675 434 q 615 397 640 398 l 417 397 q 375 414 392 397 q 357 456 357 432 q 375 499 357 481 q 417 516 392 516 l 556 516 l 556 694 q 509 807 556 760 q 397 853 462 853 q 285 807 331 853 q 238 694 238 760 l 238 258 q 284 146 238 192 q 397 99 330 99 q 509 146 462 99 q 553 165 528 165 q 595 147 577 165 q 612 105 612 130 q 593 61 612 81 q 471 -12 540 7 q 454 -23 461 -16 q 437 -65 437 -41 q 454 -108 437 -90 q 496 -125 471 -125 l 615 -125 q 657 -142 640 -125 q 675 -185 675 -160 q 657 -227 675 -209 q 615 -244 640 -244 l 495 -244 q 369 -192 421 -244 q 316 -65 316 -140 q 324 -12 316 -37 z "},"Ě":{"ha":714,"x_min":159,"x_max":656,"o":"m 159 1250 q 176 1292 159 1275 q 218 1310 193 1310 l 596 1310 q 638 1292 621 1310 q 656 1250 656 1275 q 638 1208 656 1226 q 596 1190 621 1190 l 278 1190 l 278 714 l 536 714 q 578 697 561 714 q 595 655 595 680 q 578 613 595 630 q 536 595 561 595 l 278 595 l 278 119 l 596 119 q 638 102 621 119 q 656 60 656 84 q 638 18 656 36 q 596 0 621 0 l 218 0 q 176 17 193 0 q 159 60 159 35 l 159 1250 z "},"ě":{"ha":774,"x_min":119,"x_max":675,"o":"m 417 397 q 375 414 392 397 q 357 456 357 432 q 375 499 357 481 q 417 516 392 516 l 556 516 l 556 694 q 509 807 556 760 q 397 853 462 853 q 285 807 331 853 q 238 694 238 760 l 238 258 q 284 146 238 192 q 397 99 330 99 q 509 146 462 99 q 553 165 528 165 q 595 147 577 165 q 612 105 612 130 q 593 61 612 81 q 397 -21 512 -21 q 200 61 282 -21 q 119 257 119 142 l 119 694 q 200 891 119 810 q 397 972 282 972 q 593 891 512 972 q 675 694 675 810 l 675 456 q 658 416 675 434 q 615 397 640 398 l 417 397 z "},"Ĝ":{"ha":795,"x_min":119,"x_max":675,"o":"m 596 1245 q 613 1203 613 1227 q 596 1161 613 1179 q 554 1144 578 1144 q 512 1162 529 1144 q 397 1210 462 1210 q 284 1164 330 1210 q 238 1052 238 1117 l 238 278 q 284 166 238 212 q 397 119 330 119 l 556 119 l 556 575 l 496 575 q 454 593 471 575 q 437 635 437 611 q 454 677 437 660 q 496 694 471 694 l 616 694 q 658 677 641 694 q 675 635 675 660 l 675 60 q 657 18 675 36 q 615 0 640 0 l 397 0 q 200 81 282 0 q 119 277 119 162 l 119 1053 q 200 1249 119 1168 q 397 1330 282 1330 q 596 1245 512 1330 m 548 1572 q 568 1528 568 1553 q 551 1485 568 1503 q 509 1468 534 1468 q 466 1485 484 1468 l 397 1556 l 326 1485 q 285 1468 310 1468 q 243 1485 260 1468 q 225 1528 225 1503 q 242 1569 225 1553 l 354 1682 q 397 1698 372 1698 q 438 1682 422 1698 l 548 1572 z "},"ĝ":{"ha":833,"x_min":119,"x_max":675,"o":"m 375 120 q 420 101 403 117 q 437 61 437 84 q 419 18 437 36 q 377 1 402 1 l 372 1 q 200 81 273 9 q 119 278 119 163 l 119 675 q 200 871 119 790 q 397 952 282 952 l 615 952 q 657 935 640 952 q 675 893 675 918 l 675 -40 l 674 -40 l 674 -41 q 592 -237 674 -156 q 396 -318 511 -318 q 199 -237 281 -318 q 181 -192 181 -216 q 198 -150 181 -168 q 240 -133 215 -133 q 284 -152 265 -133 q 396 -198 330 -198 q 508 -152 462 -198 q 555 -40 555 -105 l 556 -40 l 556 833 l 397 833 q 285 787 331 833 q 238 675 238 740 l 238 278 q 285 166 238 212 q 375 120 323 127 m 548 1215 q 568 1171 568 1195 q 551 1128 568 1146 q 509 1111 534 1111 q 466 1128 484 1111 l 397 1198 l 326 1128 q 285 1111 310 1111 q 243 1128 260 1111 q 225 1171 225 1146 q 242 1212 225 1195 l 354 1324 q 397 1341 372 1341 q 438 1324 422 1341 l 548 1215 z "},"Ğ":{"ha":795,"x_min":119,"x_max":675,"o":"m 596 1245 q 613 1203 613 1227 q 596 1161 613 1179 q 554 1144 578 1144 q 512 1162 529 1144 q 397 1210 462 1210 q 284 1164 330 1210 q 238 1052 238 1117 l 238 278 q 284 166 238 212 q 397 119 330 119 l 556 119 l 556 575 l 496 575 q 454 593 471 575 q 437 635 437 611 q 454 677 437 660 q 496 694 471 694 l 616 694 q 658 677 641 694 q 675 635 675 660 l 675 60 q 657 18 675 36 q 615 0 640 0 l 397 0 q 200 81 282 0 q 119 277 119 162 l 119 1053 q 200 1249 119 1168 q 397 1330 282 1330 q 596 1245 512 1330 m 251 1510 q 223 1547 230 1522 q 221 1563 221 1555 q 230 1593 221 1578 q 267 1621 243 1614 q 283 1623 275 1623 q 313 1614 299 1623 q 397 1588 356 1588 q 483 1615 438 1589 q 512 1622 497 1622 q 529 1620 521 1622 q 565 1591 554 1614 q 573 1562 573 1577 q 571 1546 573 1554 q 543 1509 564 1521 q 403 1468 472 1469 l 397 1468 q 251 1510 322 1468 z "},"ğ":{"ha":833,"x_min":119,"x_max":675,"o":"m 375 120 q 420 101 403 117 q 437 61 437 84 q 419 18 437 36 q 377 1 402 1 l 372 1 q 200 81 273 9 q 119 278 119 163 l 119 675 q 200 871 119 790 q 397 952 282 952 l 615 952 q 657 935 640 952 q 675 893 675 918 l 675 -40 l 674 -40 l 674 -41 q 592 -237 674 -156 q 396 -318 511 -318 q 199 -237 281 -318 q 181 -192 181 -216 q 198 -150 181 -168 q 240 -133 215 -133 q 284 -152 265 -133 q 396 -198 330 -198 q 508 -152 462 -198 q 555 -40 555 -105 l 556 -40 l 556 833 l 397 833 q 285 787 331 833 q 238 675 238 740 l 238 278 q 285 166 238 212 q 375 120 323 127 m 251 1153 q 223 1189 230 1165 q 221 1205 221 1197 q 230 1236 221 1221 q 267 1264 243 1257 q 283 1266 275 1266 q 313 1257 299 1266 q 397 1231 356 1231 q 483 1258 438 1232 q 512 1265 497 1265 q 529 1263 521 1265 q 565 1234 554 1257 q 573 1204 573 1220 q 571 1188 573 1196 q 543 1152 564 1164 q 403 1111 472 1112 l 397 1111 q 251 1153 322 1111 z "},"Ġ":{"ha":795,"x_min":119,"x_max":675,"o":"m 596 1245 q 613 1203 613 1227 q 596 1161 613 1179 q 554 1144 578 1144 q 512 1162 529 1144 q 397 1210 462 1210 q 284 1164 330 1210 q 238 1052 238 1117 l 238 278 q 284 166 238 212 q 397 119 330 119 l 556 119 l 556 575 l 496 575 q 454 593 471 575 q 437 635 437 611 q 454 677 437 660 q 496 694 471 694 l 616 694 q 658 677 641 694 q 675 635 675 660 l 675 60 q 657 18 675 36 q 615 0 640 0 l 397 0 q 200 81 282 0 q 119 277 119 162 l 119 1053 q 200 1249 119 1168 q 397 1330 282 1330 q 596 1245 512 1330 z "},"ġ":{"ha":833,"x_min":119,"x_max":675,"o":"m 375 120 q 420 101 403 117 q 437 61 437 84 q 419 18 437 36 q 377 1 402 1 l 372 1 q 200 81 273 9 q 119 278 119 163 l 119 675 q 200 871 119 790 q 397 952 282 952 l 615 952 q 657 935 640 952 q 675 893 675 918 l 675 -40 l 674 -40 l 674 -41 q 592 -237 674 -156 q 396 -318 511 -318 q 199 -237 281 -318 q 181 -192 181 -216 q 198 -150 181 -168 q 240 -133 215 -133 q 284 -152 265 -133 q 396 -198 330 -198 q 508 -152 462 -198 q 555 -40 555 -105 l 556 -40 l 556 833 l 397 833 q 285 787 331 833 q 238 675 238 740 l 238 278 q 285 166 238 212 q 375 120 323 127 z "},"Ģ":{"ha":795,"x_min":119,"x_max":675,"o":"m 596 1245 q 613 1203 613 1227 q 596 1161 613 1179 q 554 1144 578 1144 q 512 1162 529 1144 q 397 1210 462 1210 q 284 1164 330 1210 q 238 1052 238 1117 l 238 278 q 284 166 238 212 q 397 119 330 119 l 556 119 l 556 575 l 496 575 q 454 593 471 575 q 437 635 437 611 q 454 677 437 660 q 496 694 471 694 l 616 694 q 658 677 641 694 q 675 635 675 660 l 675 60 q 657 18 675 36 q 615 0 640 0 l 397 0 q 200 81 282 0 q 119 277 119 162 l 119 1053 q 200 1249 119 1168 q 397 1330 282 1330 q 596 1245 512 1330 z "},"ģ":{"ha":833,"x_min":119,"x_max":675,"o":"m 375 120 q 420 101 403 117 q 437 61 437 84 q 419 18 437 36 q 377 1 402 1 l 372 1 q 200 81 273 9 q 119 278 119 163 l 119 675 q 200 871 119 790 q 397 952 282 952 l 615 952 q 657 935 640 952 q 675 893 675 918 l 675 -40 l 674 -40 l 674 -41 q 592 -237 674 -156 q 396 -318 511 -318 q 199 -237 281 -318 q 181 -192 181 -216 q 198 -150 181 -168 q 240 -133 215 -133 q 284 -152 265 -133 q 396 -198 330 -198 q 508 -152 462 -198 q 555 -40 555 -105 l 556 -40 l 556 833 l 397 833 q 285 787 331 833 q 238 675 238 740 l 238 278 q 285 166 238 212 q 375 120 323 127 m 430 1300 q 457 1336 436 1323 q 487 1344 471 1344 q 502 1342 494 1344 q 539 1314 526 1335 q 547 1284 547 1300 q 545 1269 547 1277 l 514 1154 q 487 1119 508 1131 q 456 1110 472 1110 q 441 1112 449 1110 q 406 1140 418 1119 q 397 1170 397 1154 q 399 1186 397 1178 l 430 1300 z "},"Ĥ":{"ha":913,"x_min":159,"x_max":753,"o":"m 159 1250 q 176 1292 159 1275 q 218 1310 193 1310 q 260 1292 243 1310 q 278 1250 278 1275 l 278 714 l 634 714 l 634 1250 q 651 1292 634 1275 q 693 1310 669 1310 q 736 1292 718 1310 q 753 1250 753 1275 l 753 60 q 736 17 753 35 q 693 0 718 0 q 651 17 669 0 q 634 60 634 35 l 634 595 l 278 595 l 278 60 q 260 17 278 35 q 218 0 243 0 q 176 17 193 0 q 159 60 159 35 l 159 1250 m 607 1572 q 628 1528 628 1553 q 610 1485 628 1503 q 568 1468 593 1468 q 526 1485 544 1468 l 456 1556 l 386 1485 q 344 1468 369 1468 q 303 1485 319 1468 q 285 1528 285 1503 q 302 1569 285 1553 l 414 1682 q 456 1698 432 1698 q 498 1682 481 1698 l 607 1572 z "},"ĥ":{"ha":853,"x_min":159,"x_max":714,"o":"m 278 832 l 278 60 q 260 17 278 35 q 218 0 243 0 q 176 17 193 0 q 159 60 159 35 l 159 1250 q 176 1292 159 1275 q 218 1310 193 1310 q 260 1292 243 1310 q 278 1250 278 1275 l 278 951 l 437 951 q 633 870 552 951 q 714 674 714 789 l 714 60 q 697 17 714 35 q 655 0 680 0 q 613 17 630 0 q 595 60 595 35 l 595 674 q 549 786 595 739 q 437 832 502 832 l 278 832 m 587 1572 q 608 1528 608 1553 q 590 1485 608 1503 q 549 1468 573 1468 q 506 1485 524 1468 l 437 1556 l 366 1485 q 324 1468 349 1468 q 283 1485 300 1468 q 265 1528 265 1503 q 282 1569 265 1553 l 394 1682 q 437 1698 412 1698 q 478 1682 461 1698 l 587 1572 z "},"Ħ":{"ha":913,"x_min":40,"x_max":753,"o":"m 159 1190 l 159 1250 q 176 1292 159 1275 q 218 1310 193 1310 q 260 1292 243 1310 q 278 1250 278 1275 l 278 1190 l 436 1190 q 478 1173 460 1190 q 495 1131 495 1156 q 478 1089 495 1106 q 436 1071 460 1071 l 278 1071 l 278 714 l 634 714 l 634 1250 q 651 1292 634 1275 q 693 1310 669 1310 q 736 1292 718 1310 q 753 1250 753 1275 l 753 60 q 736 17 753 35 q 693 0 718 0 q 651 17 669 0 q 634 60 634 35 l 634 595 l 278 595 l 278 60 q 260 17 278 35 q 218 0 243 0 q 176 17 193 0 q 159 60 159 35 l 159 1071 l 99 1071 q 57 1089 74 1071 q 40 1131 40 1106 q 57 1173 40 1156 q 99 1190 74 1190 l 159 1190 z "},"ħ":{"ha":853,"x_min":159,"x_max":714,"o":"m 278 1191 l 278 951 l 437 951 q 633 870 552 951 q 714 674 714 789 l 714 60 q 697 17 714 35 q 655 0 680 0 q 613 17 630 0 q 595 60 595 35 l 595 674 q 549 786 595 739 q 437 832 502 832 l 278 832 l 278 60 q 260 17 278 35 q 218 0 243 0 q 176 17 193 0 q 159 60 159 35 l 159 1251 q 176 1293 159 1276 q 218 1311 193 1311 l 654 1311 q 696 1293 679 1311 q 713 1251 713 1276 q 696 1209 713 1226 q 654 1191 679 1191 l 278 1191 z "},"Ĩ":{"ha":437,"x_min":-15,"x_max":452,"o":"m 160 1250 q 177 1292 160 1275 q 219 1310 194 1310 q 261 1292 244 1310 q 279 1250 279 1275 l 279 60 q 261 17 279 35 q 219 0 244 0 q 177 17 194 0 q 160 60 160 35 l 160 1250 m 73 1510 q 47 1503 61 1503 q 27 1507 37 1503 q -8 1537 3 1515 q -15 1564 -15 1551 q -11 1583 -15 1573 q 19 1618 -4 1607 q 115 1639 60 1639 q 232 1622 167 1639 q 316 1609 283 1609 q 362 1618 345 1609 q 391 1625 376 1625 q 409 1623 400 1625 q 444 1593 434 1616 q 452 1564 452 1579 q 449 1548 452 1556 q 421 1512 442 1523 q 316 1488 378 1488 q 201 1505 265 1488 q 115 1518 149 1518 q 73 1510 88 1518 z "},"ĩ":{"ha":437,"x_min":-15,"x_max":452,"o":"m 279 60 q 261 17 279 35 q 219 0 244 0 q 177 17 194 0 q 160 60 160 35 l 160 893 q 177 935 160 918 q 219 952 194 952 q 261 935 244 952 q 279 893 279 918 l 279 60 m 73 1153 q 47 1146 61 1146 q 27 1150 37 1146 q -8 1180 3 1158 q -15 1207 -15 1193 q -11 1226 -15 1216 q 19 1261 -4 1250 q 115 1282 60 1282 q 232 1265 167 1282 q 316 1252 283 1252 q 362 1261 345 1252 q 391 1268 376 1268 q 409 1266 400 1268 q 444 1236 434 1259 q 452 1207 452 1222 q 449 1190 452 1198 q 421 1155 442 1166 q 316 1131 378 1131 q 201 1148 265 1131 q 115 1161 149 1161 q 73 1153 88 1161 z "},"Ī":{"ha":437,"x_min":40,"x_max":397,"o":"m 159 1250 q 176 1292 159 1275 q 218 1310 193 1310 q 260 1292 243 1310 q 278 1250 278 1275 l 278 60 q 260 17 278 35 q 218 0 243 0 q 176 17 193 0 q 159 60 159 35 l 159 1250 m 99 1468 q 57 1486 74 1468 q 40 1528 40 1503 q 57 1570 40 1553 q 99 1587 74 1587 l 337 1587 q 379 1570 362 1587 q 397 1528 397 1553 q 379 1486 397 1503 q 337 1468 362 1468 l 99 1468 z "},"ī":{"ha":437,"x_min":40,"x_max":397,"o":"m 278 60 q 260 17 278 35 q 218 0 243 0 q 176 17 193 0 q 159 60 159 35 l 159 893 q 176 935 159 918 q 218 952 193 952 q 260 935 243 952 q 278 893 278 918 l 278 60 m 99 1111 q 57 1128 74 1111 q 40 1171 40 1146 q 57 1213 40 1195 q 99 1230 74 1230 l 337 1230 q 379 1213 362 1230 q 397 1171 397 1195 q 379 1128 397 1146 q 337 1111 362 1111 l 99 1111 z "},"Ĭ":{"ha":437,"x_min":43,"x_max":395,"o":"m 160 1250 q 177 1292 160 1275 q 219 1310 194 1310 q 261 1292 244 1310 q 279 1250 279 1275 l 279 60 q 261 17 279 35 q 219 0 244 0 q 177 17 194 0 q 160 60 160 35 l 160 1250 m 72 1510 q 45 1547 52 1522 q 43 1563 43 1555 q 52 1593 43 1578 q 88 1621 64 1614 q 104 1623 96 1623 q 135 1614 120 1623 q 218 1588 178 1588 q 305 1615 260 1589 q 333 1622 318 1622 q 350 1620 342 1622 q 387 1591 375 1614 q 395 1562 395 1577 q 393 1546 395 1554 q 364 1509 386 1521 q 224 1468 294 1469 l 218 1468 q 72 1510 144 1468 z "},"ĭ":{"ha":437,"x_min":43,"x_max":395,"o":"m 279 60 q 261 17 279 35 q 219 0 244 0 q 177 17 194 0 q 160 60 160 35 l 160 893 q 177 935 160 918 q 219 952 194 952 q 261 935 244 952 q 279 893 279 918 l 279 60 m 72 1153 q 45 1189 52 1165 q 43 1205 43 1197 q 52 1236 43 1221 q 88 1264 64 1257 q 104 1266 96 1266 q 135 1257 120 1266 q 218 1231 178 1231 q 305 1258 260 1232 q 333 1265 318 1265 q 350 1263 342 1265 q 387 1234 375 1257 q 395 1204 395 1220 q 393 1188 395 1196 q 364 1152 386 1164 q 224 1111 294 1112 l 218 1111 q 72 1153 144 1111 z "},"Į":{"ha":437,"x_min":39,"x_max":397,"o":"m 159 110 l 159 1250 q 176 1292 159 1275 q 218 1310 193 1310 q 260 1292 243 1310 q 278 1250 278 1275 l 278 60 q 260 18 278 36 q 218 0 243 0 q 176 -17 193 0 q 159 -60 159 -35 q 176 -102 159 -84 q 218 -119 193 -119 l 337 -119 q 379 -136 362 -119 q 397 -179 397 -154 q 379 -221 397 -203 q 337 -238 362 -238 l 217 -238 q 91 -186 143 -238 q 39 -60 39 -134 q 91 67 39 15 q 159 110 121 97 z "},"į":{"ha":437,"x_min":39,"x_max":397,"o":"m 281 1247 q 293 1235 281 1247 q 305 1190 305 1223 q 281 1134 305 1158 q 225 1111 258 1111 q 169 1134 192 1111 q 146 1190 146 1158 q 169 1247 146 1223 q 225 1270 192 1270 q 281 1247 258 1270 m 159 110 l 159 893 q 176 935 159 918 q 218 952 193 952 q 260 935 243 952 q 278 893 278 918 l 278 60 q 260 18 278 36 q 218 0 243 0 q 176 -17 193 0 q 159 -60 159 -35 q 176 -102 159 -84 q 218 -119 193 -119 l 337 -119 q 379 -136 362 -119 q 397 -179 397 -154 q 379 -221 397 -203 q 337 -238 362 -238 l 217 -238 q 91 -186 143 -238 q 39 -60 39 -134 q 91 67 39 15 q 159 110 121 97 z "},"İ":{"ha":437,"x_min":139,"x_max":298,"o":"m 159 1250 q 176 1292 159 1275 q 218 1310 193 1310 q 260 1292 243 1310 q 278 1250 278 1275 l 278 60 q 260 17 278 35 q 218 0 243 0 q 176 17 193 0 q 159 60 159 35 l 159 1250 z "},"ı":{"ha":437,"x_min":159,"x_max":278,"o":"m 278 60 q 260 17 278 35 q 218 0 243 0 q 176 17 193 0 q 159 60 159 35 l 159 893 q 176 935 159 918 q 218 952 193 952 q 260 935 243 952 q 278 893 278 918 l 278 60 z "},"Ĳ":{"ha":933,"x_min":159,"x_max":793,"o":"m 159 1250 q 176 1292 159 1275 q 218 1310 193 1310 q 260 1292 243 1310 q 278 1250 278 1275 l 278 60 q 260 17 278 35 q 218 0 243 0 q 176 17 193 0 q 159 60 159 35 l 159 1250 m 594 1190 q 552 1208 569 1190 q 535 1250 535 1225 q 552 1292 535 1275 q 594 1310 569 1310 l 733 1310 q 775 1292 758 1310 q 793 1250 793 1275 l 793 237 q 724 69 793 139 q 556 0 655 0 q 512 18 530 0 q 495 60 495 36 q 512 102 495 84 q 555 119 530 119 q 639 153 607 121 q 674 237 674 188 l 674 1190 l 594 1190 z "},"ĳ":{"ha":873,"x_min":136,"x_max":739,"o":"m 275 60 q 257 17 275 35 q 215 0 240 0 q 173 17 190 0 q 156 60 156 35 l 156 893 q 173 935 156 918 q 215 952 190 952 q 257 935 240 952 q 275 893 275 918 l 275 60 m 215 1270 q 271 1247 248 1270 q 295 1190 295 1223 q 271 1134 295 1158 q 215 1111 248 1111 q 159 1134 183 1111 q 136 1190 136 1158 q 159 1247 136 1223 q 215 1270 183 1270 m 594 0 l 594 893 q 612 935 594 918 q 654 952 629 952 q 696 935 679 952 q 713 893 713 918 l 713 0 q 643 -168 713 -98 q 475 -238 573 -238 q 433 -220 450 -238 q 416 -179 416 -202 q 433 -136 416 -154 q 475 -119 450 -119 q 560 -84 525 -119 q 594 0 594 -50 m 660 1270 q 716 1247 692 1270 q 739 1190 739 1223 q 716 1134 739 1158 q 660 1111 692 1111 q 604 1134 627 1111 q 580 1190 580 1158 q 604 1247 580 1223 q 660 1270 627 1270 z "},"Ĵ":{"ha":496,"x_min":59,"x_max":419,"o":"m 158 1190 q 116 1208 133 1190 q 98 1250 98 1225 q 116 1292 98 1275 q 158 1310 133 1310 l 297 1310 q 339 1292 321 1310 q 356 1250 356 1275 l 356 237 q 287 69 356 139 q 119 0 218 0 q 76 18 93 0 q 59 60 59 36 q 76 102 59 84 q 118 119 93 119 q 202 153 171 121 q 237 237 237 188 l 237 1190 l 158 1190 m 398 1572 q 419 1528 419 1553 q 401 1485 419 1503 q 359 1468 384 1468 q 316 1485 334 1468 l 247 1556 l 177 1485 q 135 1468 160 1468 q 93 1485 110 1468 q 75 1528 75 1503 q 92 1569 75 1553 l 204 1682 q 247 1698 222 1698 q 289 1682 272 1698 l 398 1572 z "},"ĵ":{"ha":437,"x_min":-21,"x_max":391,"o":"m 158 0 l 158 893 q 175 935 158 918 q 217 952 192 952 q 259 935 242 952 q 277 893 277 918 l 277 0 q 207 -168 277 -98 q 39 -238 137 -238 q -3 -220 14 -238 q -21 -179 -21 -202 q -3 -136 -21 -154 q 39 -119 14 -119 q 123 -84 88 -119 q 158 0 158 -50 m 370 1215 q 391 1171 391 1195 q 373 1128 391 1146 q 331 1111 356 1111 q 289 1128 307 1111 l 219 1198 l 149 1128 q 107 1111 132 1111 q 65 1128 82 1111 q 48 1171 48 1146 q 64 1212 48 1195 l 177 1324 q 219 1341 194 1341 q 261 1324 244 1341 l 370 1215 z "},"Ķ":{"ha":833,"x_min":159,"x_max":745,"o":"m 159 1250 q 176 1292 159 1275 q 218 1310 193 1310 q 260 1292 243 1310 q 278 1250 278 1275 l 278 60 q 260 17 278 35 q 218 0 243 0 q 176 17 193 0 q 159 60 159 35 l 159 1250 m 634 1277 q 646 1293 638 1285 q 688 1310 663 1310 q 729 1293 712 1310 q 745 1251 745 1276 q 737 1217 745 1232 l 482 645 l 737 93 q 745 59 745 77 q 729 17 745 34 q 688 0 712 0 q 646 17 663 0 q 634 33 638 25 l 365 614 q 357 645 357 628 q 365 676 357 662 l 634 1277 z "},"ķ":{"ha":774,"x_min":159,"x_max":686,"o":"m 676 91 q 686 60 686 73 q 683 42 686 51 q 653 7 675 18 q 626 0 640 0 q 608 3 617 0 q 572 33 584 11 l 354 428 q 341 474 341 451 q 356 525 341 500 l 574 922 q 585 936 578 929 q 627 952 602 952 q 669 935 652 952 q 686 893 686 918 q 677 859 686 874 l 486 516 q 475 474 475 495 q 485 436 475 455 l 676 91 m 159 1250 q 176 1292 159 1275 q 218 1310 193 1310 q 260 1292 243 1310 q 278 1250 278 1275 l 278 60 q 260 17 278 35 q 218 0 243 0 q 176 17 193 0 q 159 60 159 35 l 159 1250 z "},"ĸ":{"ha":794,"x_min":159,"x_max":727,"o":"m 159 893 q 176 935 159 918 q 218 952 193 952 q 260 935 243 952 q 278 893 278 918 l 278 60 q 260 17 278 35 q 218 0 243 0 q 176 17 193 0 q 159 60 159 35 l 159 893 m 365 449 q 361 458 363 454 q 358 476 358 467 q 365 503 358 490 l 615 922 q 626 936 619 929 q 668 952 643 952 q 710 935 692 952 q 727 893 727 918 q 715 857 725 872 l 487 475 l 714 95 q 719 86 717 91 q 726 60 726 73 q 723 42 726 51 q 693 7 715 18 q 667 0 681 0 q 649 3 658 0 q 613 33 625 11 l 365 449 z "},"Ĺ":{"ha":635,"x_min":159,"x_max":615,"o":"m 159 1250 q 176 1292 159 1275 q 218 1310 193 1310 q 260 1292 243 1310 q 278 1250 278 1275 l 278 119 l 556 119 q 598 102 580 119 q 615 60 615 84 q 598 17 615 35 q 556 0 580 0 l 218 0 q 176 17 193 0 q 159 60 159 35 l 159 1250 m 370 1657 q 398 1693 376 1681 q 428 1701 412 1701 q 442 1699 435 1701 q 479 1672 466 1692 q 487 1641 487 1657 q 485 1626 487 1634 l 454 1511 q 428 1476 448 1488 q 397 1467 413 1467 q 382 1469 390 1467 q 346 1497 358 1476 q 337 1527 337 1511 q 339 1543 337 1535 l 370 1657 z "},"ĺ":{"ha":437,"x_min":159,"x_max":309,"o":"m 159 1250 q 176 1292 159 1275 q 218 1310 193 1310 q 260 1292 243 1310 q 278 1250 278 1275 l 278 60 q 260 17 278 35 q 218 0 243 0 q 176 17 193 0 q 159 60 159 35 l 159 1250 m 191 1657 q 219 1693 197 1681 q 249 1701 233 1701 q 264 1699 256 1701 q 301 1672 288 1692 q 309 1641 309 1657 q 307 1626 309 1634 l 276 1511 q 249 1476 270 1488 q 218 1467 234 1467 q 203 1469 211 1467 q 168 1497 180 1476 q 159 1527 159 1511 q 161 1543 159 1535 l 191 1657 z "},"Ļ":{"ha":635,"x_min":159,"x_max":615,"o":"m 159 1250 q 176 1292 159 1275 q 218 1310 193 1310 q 260 1292 243 1310 q 278 1250 278 1275 l 278 119 l 556 119 q 598 102 580 119 q 615 60 615 84 q 598 17 615 35 q 556 0 580 0 l 218 0 q 176 17 193 0 q 159 60 159 35 l 159 1250 z "},"ļ":{"ha":437,"x_min":129,"x_max":279,"o":"m 159 1250 q 176 1292 159 1275 q 218 1310 193 1310 q 260 1292 243 1310 q 278 1250 278 1275 l 278 60 q 260 17 278 35 q 218 0 243 0 q 176 17 193 0 q 159 60 159 35 l 159 1250 z "},"Ľ":{"ha":635,"x_min":159,"x_max":626,"o":"m 159 1250 q 176 1292 159 1275 q 218 1310 193 1310 q 260 1292 243 1310 q 278 1250 278 1275 l 278 119 l 556 119 q 598 102 580 119 q 615 60 615 84 q 598 17 615 35 q 556 0 580 0 l 218 0 q 176 17 193 0 q 159 60 159 35 l 159 1250 z "},"ľ":{"ha":675,"x_min":159,"x_max":626,"o":"m 159 1250 q 176 1292 159 1275 q 218 1310 193 1310 q 260 1292 243 1310 q 278 1250 278 1275 l 278 60 q 260 17 278 35 q 218 0 243 0 q 176 17 193 0 q 159 60 159 35 l 159 1250 z "},"Ŀ":{"ha":635,"x_min":159,"x_max":615,"o":"m 159 1250 q 176 1292 159 1275 q 218 1310 193 1310 q 260 1292 243 1310 q 278 1250 278 1275 l 278 119 l 556 119 q 598 102 580 119 q 615 60 615 84 q 598 17 615 35 q 556 0 580 0 l 218 0 q 176 17 193 0 q 159 60 159 35 l 159 1250 m 515 744 q 571 721 548 744 q 594 665 594 697 q 571 609 594 632 q 515 585 548 585 q 459 609 482 585 q 436 665 436 632 q 459 721 436 697 q 515 744 482 744 z "},"ŀ":{"ha":595,"x_min":159,"x_max":594,"o":"m 159 1250 q 176 1292 159 1275 q 218 1310 193 1310 q 260 1292 243 1310 q 278 1250 278 1275 l 278 60 q 260 17 278 35 q 218 0 243 0 q 176 17 193 0 q 159 60 159 35 l 159 1250 m 515 744 q 571 721 548 744 q 594 665 594 697 q 571 609 594 632 q 515 585 548 585 q 459 609 482 585 q 436 665 436 632 q 459 721 436 697 q 515 744 482 744 z "},"Ł":{"ha":635,"x_min":28,"x_max":616,"o":"m 160 699 l 160 1250 q 177 1292 160 1275 q 219 1310 194 1310 q 261 1292 244 1310 q 279 1250 279 1275 l 279 819 l 353 894 q 396 911 371 911 q 438 894 420 911 q 455 852 455 876 q 438 810 455 827 l 279 650 l 279 119 l 557 119 q 599 102 581 119 q 616 60 616 84 q 599 17 616 35 q 557 0 581 0 l 219 0 q 177 17 194 0 q 160 60 160 35 l 160 531 l 130 501 q 87 484 112 484 q 46 501 63 484 q 28 544 28 519 q 46 585 28 568 l 160 699 z "},"ł":{"ha":437,"x_min":0,"x_max":428,"o":"m 160 727 l 160 1250 q 177 1292 160 1275 q 219 1310 194 1310 q 261 1292 244 1310 q 279 1250 279 1275 l 279 847 l 325 894 q 368 911 343 911 q 410 894 392 911 q 428 852 428 876 q 410 810 428 827 l 279 679 l 279 60 q 261 17 279 35 q 219 0 244 0 q 177 17 194 0 q 160 60 160 35 l 160 559 l 102 501 q 60 484 84 484 q 18 501 35 484 q 0 544 0 519 q 18 585 0 568 l 160 727 z "},"Ń":{"ha":992,"x_min":159,"x_max":833,"o":"m 278 60 q 260 17 278 35 q 218 0 243 0 q 176 17 193 0 q 159 60 159 35 l 159 1251 q 176 1293 159 1276 q 218 1311 193 1311 q 261 1294 243 1311 q 271 1280 267 1287 l 714 326 l 714 1251 q 732 1293 714 1276 q 774 1311 749 1311 q 816 1293 799 1311 q 833 1251 833 1276 l 833 59 q 816 18 833 35 q 774 0 799 0 q 732 18 749 0 q 717 40 723 27 l 278 989 l 278 60 m 479 1657 q 507 1693 485 1681 q 537 1701 521 1701 q 552 1699 544 1701 q 588 1672 575 1692 q 596 1641 596 1657 q 594 1626 596 1634 l 563 1511 q 537 1476 558 1488 q 506 1467 522 1467 q 491 1469 499 1467 q 455 1497 467 1476 q 446 1527 446 1511 q 448 1543 446 1535 l 479 1657 z "},"ń":{"ha":853,"x_min":159,"x_max":714,"o":"m 278 60 q 260 17 278 35 q 218 0 243 0 q 176 17 193 0 q 159 60 159 35 l 159 893 q 176 935 159 918 q 218 952 193 952 l 437 952 q 633 871 552 952 q 714 675 714 790 l 714 60 q 697 17 714 35 q 655 0 680 0 q 613 17 630 0 q 595 60 595 35 l 595 675 q 549 787 595 740 q 437 833 502 833 l 278 833 l 278 60 m 420 1300 q 447 1336 426 1323 q 477 1344 461 1344 q 492 1342 484 1344 q 529 1314 516 1335 q 537 1284 537 1300 q 535 1269 537 1277 l 504 1154 q 477 1119 498 1131 q 446 1110 462 1110 q 432 1112 439 1110 q 396 1140 408 1119 q 387 1170 387 1154 q 389 1186 387 1178 l 420 1300 z "},"Ņ":{"ha":992,"x_min":159,"x_max":833,"o":"m 278 60 q 260 17 278 35 q 218 0 243 0 q 176 17 193 0 q 159 60 159 35 l 159 1251 q 176 1293 159 1276 q 218 1311 193 1311 q 261 1294 243 1311 q 271 1280 267 1287 l 714 326 l 714 1251 q 732 1293 714 1276 q 774 1311 749 1311 q 816 1293 799 1311 q 833 1251 833 1276 l 833 59 q 816 18 833 35 q 774 0 799 0 q 732 18 749 0 q 717 40 723 27 l 278 989 l 278 60 z "},"ņ":{"ha":853,"x_min":159,"x_max":714,"o":"m 278 60 q 260 17 278 35 q 218 0 243 0 q 176 17 193 0 q 159 60 159 35 l 159 893 q 176 935 159 918 q 218 952 193 952 l 437 952 q 633 871 552 952 q 714 675 714 790 l 714 60 q 697 17 714 35 q 655 0 680 0 q 613 17 630 0 q 595 60 595 35 l 595 675 q 549 787 595 740 q 437 833 502 833 l 278 833 l 278 60 z "},"Ň":{"ha":992,"x_min":159,"x_max":833,"o":"m 278 60 q 260 17 278 35 q 218 0 243 0 q 176 17 193 0 q 159 60 159 35 l 159 1251 q 176 1293 159 1276 q 218 1311 193 1311 q 261 1294 243 1311 q 271 1280 267 1287 l 714 326 l 714 1251 q 732 1293 714 1276 q 774 1311 749 1311 q 816 1293 799 1311 q 833 1251 833 1276 l 833 59 q 816 18 833 35 q 774 0 799 0 q 732 18 749 0 q 717 40 723 27 l 278 989 l 278 60 z "},"ň":{"ha":853,"x_min":159,"x_max":714,"o":"m 278 60 q 260 17 278 35 q 218 0 243 0 q 176 17 193 0 q 159 60 159 35 l 159 893 q 176 935 159 918 q 218 952 193 952 l 437 952 q 633 871 552 952 q 714 675 714 790 l 714 60 q 697 17 714 35 q 655 0 680 0 q 613 17 630 0 q 595 60 595 35 l 595 675 q 549 787 595 740 q 437 833 502 833 l 278 833 l 278 60 z "},"ŉ":{"ha":853,"x_min":39,"x_max":713,"o":"m 71 1300 q 99 1336 77 1323 q 129 1344 113 1344 q 144 1342 136 1344 q 181 1314 168 1335 q 188 1284 188 1300 q 187 1269 188 1277 l 156 1154 q 129 1119 150 1131 q 98 1110 114 1110 q 83 1112 91 1110 q 48 1140 60 1119 q 39 1170 39 1154 q 41 1186 39 1178 l 71 1300 m 277 60 q 259 17 277 35 q 217 0 242 0 q 175 17 192 0 q 158 60 158 35 l 158 893 q 175 935 158 918 q 217 952 192 952 l 436 952 q 632 871 551 952 q 713 675 713 790 l 713 60 q 696 17 713 35 q 654 0 679 0 q 612 17 629 0 q 594 60 594 35 l 594 675 q 548 787 594 740 q 436 833 501 833 l 277 833 l 277 60 z "},"Ŋ":{"ha":992,"x_min":159,"x_max":833,"o":"m 714 46 l 278 989 l 278 60 q 260 17 278 35 q 218 0 243 0 q 176 17 193 0 q 159 60 159 35 l 159 1251 q 176 1293 159 1276 q 218 1311 193 1311 q 261 1294 243 1311 q 271 1280 267 1287 l 714 326 l 714 1251 q 732 1293 714 1276 q 774 1311 749 1311 q 816 1293 799 1311 q 833 1251 833 1276 l 833 -40 q 763 -208 833 -138 q 595 -278 693 -278 q 552 -260 569 -278 q 535 -218 535 -243 q 552 -176 535 -193 q 595 -159 569 -159 q 680 -124 645 -159 q 714 -40 714 -89 l 714 46 z "},"ŋ":{"ha":853,"x_min":159,"x_max":714,"o":"m 595 675 q 549 787 595 740 q 437 833 502 833 l 278 833 l 278 60 q 260 17 278 35 q 218 0 243 0 q 176 17 193 0 q 159 60 159 35 l 159 893 q 176 935 159 918 q 218 952 193 952 l 437 952 q 633 871 552 952 q 714 675 714 790 l 714 -40 q 644 -208 714 -138 q 476 -278 574 -278 q 433 -260 450 -278 q 416 -218 416 -243 q 433 -176 416 -193 q 476 -159 450 -159 q 561 -124 526 -159 q 595 -40 595 -89 l 595 675 z "},"Ō":{"ha":794,"x_min":119,"x_max":675,"o":"m 490 1195 q 474 1207 481 1199 q 456 1249 456 1224 q 474 1291 456 1274 q 516 1309 491 1309 q 552 1298 536 1309 q 593 1263 573 1283 q 675 1066 675 1182 l 675 242 q 593 46 675 127 q 548 8 571 24 q 516 -1 534 -1 q 474 17 491 -1 q 456 59 456 35 q 474 101 456 83 q 482 108 478 105 q 509 130 496 117 q 556 242 556 177 l 556 1066 q 509 1179 556 1132 q 490 1195 500 1188 m 243 1299 q 278 1310 258 1310 q 320 1292 303 1310 q 337 1250 337 1274 q 320 1208 337 1225 q 311 1199 315 1203 q 285 1179 297 1190 q 238 1066 238 1132 l 238 242 q 285 130 238 177 q 311 109 297 118 q 319 102 315 106 q 337 60 337 84 q 319 17 337 35 q 278 0 302 0 q 245 9 260 0 q 200 46 221 25 q 119 242 119 127 l 119 1066 q 200 1263 119 1182 q 243 1299 221 1284 m 278 1468 q 236 1486 253 1468 q 218 1528 218 1503 q 236 1570 218 1553 q 278 1587 253 1587 l 516 1587 q 558 1570 541 1587 q 575 1528 575 1553 q 558 1486 575 1503 q 516 1468 541 1468 l 278 1468 z "},"ō":{"ha":794,"x_min":119,"x_max":675,"o":"m 490 839 q 474 851 481 843 q 456 893 456 868 q 474 935 456 918 q 516 952 491 952 q 552 941 536 952 q 593 907 573 927 q 675 710 675 825 l 675 243 q 593 47 675 128 q 548 9 571 25 q 516 0 534 0 q 474 18 491 0 q 456 60 456 36 q 474 102 456 84 q 482 109 478 106 q 509 131 496 118 q 556 243 556 178 l 556 710 q 509 822 556 776 q 490 839 500 831 m 243 942 q 278 953 258 953 q 320 936 303 953 q 337 894 337 918 q 320 852 337 869 q 311 843 315 847 q 285 822 297 834 q 238 710 238 776 l 238 243 q 285 131 238 178 q 311 110 297 119 q 319 103 315 107 q 337 61 337 85 q 319 18 337 36 q 278 1 302 1 q 245 10 260 1 q 200 47 221 26 q 119 243 119 128 l 119 710 q 200 907 119 825 q 243 942 221 928 m 278 1111 q 236 1128 253 1111 q 218 1171 218 1146 q 236 1213 218 1195 q 278 1230 253 1230 l 516 1230 q 558 1213 541 1230 q 575 1171 575 1195 q 558 1128 575 1146 q 516 1111 541 1111 l 278 1111 z "},"Ŏ":{"ha":794,"x_min":119,"x_max":675,"o":"m 490 1195 q 474 1207 481 1199 q 456 1249 456 1224 q 474 1291 456 1274 q 516 1309 491 1309 q 552 1298 536 1309 q 593 1263 573 1283 q 675 1066 675 1182 l 675 242 q 593 46 675 127 q 548 8 571 24 q 516 -1 534 -1 q 474 17 491 -1 q 456 59 456 35 q 474 101 456 83 q 482 108 478 105 q 509 130 496 117 q 556 242 556 177 l 556 1066 q 509 1179 556 1132 q 490 1195 500 1188 m 243 1299 q 278 1310 258 1310 q 320 1292 303 1310 q 337 1250 337 1274 q 320 1208 337 1225 q 311 1199 315 1203 q 285 1179 297 1190 q 238 1066 238 1132 l 238 242 q 285 130 238 177 q 311 109 297 118 q 319 102 315 106 q 337 60 337 84 q 319 17 337 35 q 278 0 302 0 q 245 9 260 0 q 200 46 221 25 q 119 242 119 127 l 119 1066 q 200 1263 119 1182 q 243 1299 221 1284 m 251 1510 q 223 1547 230 1522 q 221 1563 221 1555 q 230 1593 221 1578 q 267 1621 243 1614 q 283 1623 275 1623 q 313 1614 299 1623 q 397 1588 356 1588 q 483 1615 438 1589 q 512 1622 497 1622 q 529 1620 521 1622 q 565 1591 554 1614 q 573 1562 573 1577 q 571 1546 573 1554 q 543 1509 564 1521 q 403 1468 472 1469 l 397 1468 q 251 1510 322 1468 z "},"ŏ":{"ha":794,"x_min":119,"x_max":675,"o":"m 490 839 q 474 851 481 843 q 456 893 456 868 q 474 935 456 918 q 516 952 491 952 q 552 941 536 952 q 593 907 573 927 q 675 710 675 825 l 675 243 q 593 47 675 128 q 548 9 571 25 q 516 0 534 0 q 474 18 491 0 q 456 60 456 36 q 474 102 456 84 q 482 109 478 106 q 509 131 496 118 q 556 243 556 178 l 556 710 q 509 822 556 776 q 490 839 500 831 m 243 942 q 278 953 258 953 q 320 936 303 953 q 337 894 337 918 q 320 852 337 869 q 311 843 315 847 q 285 822 297 834 q 238 710 238 776 l 238 243 q 285 131 238 178 q 311 110 297 119 q 319 103 315 107 q 337 61 337 85 q 319 18 337 36 q 278 1 302 1 q 245 10 260 1 q 200 47 221 26 q 119 243 119 128 l 119 710 q 200 907 119 825 q 243 942 221 928 m 251 1153 q 223 1189 230 1165 q 221 1205 221 1197 q 230 1236 221 1221 q 267 1264 243 1257 q 283 1266 275 1266 q 313 1257 299 1266 q 397 1231 356 1231 q 483 1258 438 1232 q 512 1265 497 1265 q 529 1263 521 1265 q 565 1234 554 1257 q 573 1204 573 1220 q 571 1188 573 1196 q 543 1152 564 1164 q 403 1111 472 1112 l 397 1111 q 251 1153 322 1111 z "},"Ő":{"ha":794,"x_min":119,"x_max":675,"o":"m 490 1195 q 474 1207 481 1199 q 456 1249 456 1224 q 474 1291 456 1274 q 516 1309 491 1309 q 552 1298 536 1309 q 593 1263 573 1283 q 675 1066 675 1182 l 675 242 q 593 46 675 127 q 548 8 571 24 q 516 -1 534 -1 q 474 17 491 -1 q 456 59 456 35 q 474 101 456 83 q 482 108 478 105 q 509 130 496 117 q 556 242 556 177 l 556 1066 q 509 1179 556 1132 q 490 1195 500 1188 m 243 1299 q 278 1310 258 1310 q 320 1292 303 1310 q 337 1250 337 1274 q 320 1208 337 1225 q 311 1199 315 1203 q 285 1179 297 1190 q 238 1066 238 1132 l 238 242 q 285 130 238 177 q 311 109 297 118 q 319 102 315 106 q 337 60 337 84 q 319 17 337 35 q 278 0 302 0 q 245 9 260 0 q 200 46 221 25 q 119 242 119 127 l 119 1066 q 200 1263 119 1182 q 243 1299 221 1284 m 333 1500 q 297 1470 320 1477 q 279 1468 288 1468 q 252 1475 265 1468 q 226 1511 232 1487 q 224 1526 224 1519 q 233 1558 224 1543 l 288 1651 q 323 1681 300 1674 q 340 1684 332 1684 q 368 1676 355 1684 q 395 1640 389 1664 q 396 1625 396 1632 q 388 1593 396 1609 l 333 1500 m 566 1500 q 531 1471 555 1478 q 513 1468 521 1468 q 486 1476 499 1468 q 459 1512 465 1488 q 458 1527 458 1519 q 466 1559 458 1543 l 521 1652 q 558 1682 534 1675 q 574 1684 566 1684 q 601 1677 589 1684 q 628 1640 622 1665 q 630 1626 630 1633 q 621 1594 630 1609 l 566 1500 z "},"ő":{"ha":794,"x_min":119,"x_max":675,"o":"m 490 839 q 474 851 481 843 q 456 893 456 868 q 474 935 456 918 q 516 952 491 952 q 552 941 536 952 q 593 907 573 927 q 675 710 675 825 l 675 243 q 593 47 675 128 q 548 9 571 25 q 516 0 534 0 q 474 18 491 0 q 456 60 456 36 q 474 102 456 84 q 482 109 478 106 q 509 131 496 118 q 556 243 556 178 l 556 710 q 509 822 556 776 q 490 839 500 831 m 243 942 q 278 953 258 953 q 320 936 303 953 q 337 894 337 918 q 320 852 337 869 q 311 843 315 847 q 285 822 297 834 q 238 710 238 776 l 238 243 q 285 131 238 178 q 311 110 297 119 q 319 103 315 107 q 337 61 337 85 q 319 18 337 36 q 278 1 302 1 q 245 10 260 1 q 200 47 221 26 q 119 243 119 128 l 119 710 q 200 907 119 825 q 243 942 221 928 m 333 1143 q 297 1113 320 1120 q 279 1111 288 1111 q 252 1118 265 1111 q 226 1154 232 1130 q 224 1169 224 1162 q 233 1200 224 1186 l 288 1294 q 323 1323 300 1316 q 340 1326 332 1326 q 368 1318 355 1326 q 395 1283 389 1307 q 396 1268 396 1275 q 388 1236 396 1252 l 333 1143 m 566 1143 q 531 1114 555 1121 q 513 1111 521 1111 q 486 1119 499 1111 q 459 1155 465 1131 q 458 1170 458 1162 q 466 1201 458 1186 l 521 1295 q 558 1324 534 1317 q 574 1326 566 1326 q 601 1319 589 1326 q 628 1283 622 1308 q 630 1269 630 1276 q 621 1237 630 1252 l 566 1143 z "},"Œ":{"ha":1111,"x_min":119,"x_max":1053,"o":"m 278 1310 q 320 1292 303 1310 q 337 1250 337 1274 q 320 1208 337 1225 q 311 1199 315 1203 q 285 1179 297 1190 q 238 1066 238 1132 l 238 242 q 285 130 238 177 q 311 109 297 118 q 319 102 315 106 q 337 60 337 84 q 319 17 337 35 q 278 0 302 0 q 245 9 260 0 q 200 46 221 25 q 119 242 119 127 l 119 1066 q 200 1263 119 1182 q 243 1299 221 1284 q 278 1310 258 1310 m 556 1066 q 509 1179 556 1132 q 490 1195 500 1188 q 474 1207 481 1199 q 456 1249 456 1224 q 474 1291 456 1274 q 516 1309 491 1309 q 552 1298 536 1309 q 567 1286 560 1292 q 573 1293 569 1289 q 615 1310 590 1310 l 993 1310 q 1035 1292 1018 1310 q 1053 1250 1053 1275 q 1035 1208 1053 1226 q 993 1190 1018 1190 l 675 1190 l 675 714 l 933 714 q 975 697 957 714 q 992 655 992 680 q 975 613 992 630 q 933 595 957 595 l 675 595 l 675 119 l 993 119 q 1035 102 1018 119 q 1053 60 1053 84 q 1035 18 1053 36 q 993 0 1018 0 l 615 0 q 573 18 590 0 q 568 23 570 20 q 548 8 558 15 q 516 -1 534 -1 q 474 17 491 -1 q 456 59 456 35 q 474 101 456 83 q 482 108 478 105 q 509 130 496 117 q 556 242 556 177 l 556 1066 z "},"œ":{"ha":1218,"x_min":119,"x_max":1111,"o":"m 278 953 q 320 936 303 953 q 337 894 337 918 q 320 852 337 869 q 311 843 315 847 q 285 822 297 834 q 238 710 238 776 l 238 243 q 285 131 238 178 q 311 110 297 119 q 319 103 315 107 q 337 61 337 85 q 319 18 337 36 q 278 1 302 1 q 245 10 260 1 q 200 47 221 26 q 119 243 119 128 l 119 710 q 200 907 119 825 q 243 942 221 928 q 278 953 258 953 m 556 710 q 509 822 556 776 q 490 839 500 831 q 474 851 481 843 q 456 893 456 868 q 474 935 456 918 q 516 952 491 952 q 552 941 536 952 q 593 907 573 927 q 621 874 609 891 q 637 891 629 883 q 833 972 718 972 q 1030 891 948 972 q 1111 694 1111 810 l 1111 456 q 1094 416 1111 434 q 1052 397 1076 398 l 853 397 q 811 414 828 397 q 794 456 794 432 q 811 499 794 481 q 853 516 828 516 l 992 516 l 992 694 q 945 807 992 760 q 833 853 899 853 q 721 807 768 853 q 675 694 675 760 l 675 258 q 721 146 675 192 q 833 99 767 99 q 945 146 899 99 q 989 165 964 165 q 1031 147 1014 165 q 1049 105 1049 130 q 1030 61 1049 81 q 833 -21 948 -21 q 637 61 718 -21 q 621 78 628 69 q 593 47 608 62 q 548 9 571 25 q 516 0 534 0 q 474 18 491 0 q 456 60 456 36 q 474 102 456 84 q 482 109 478 106 q 509 131 496 118 q 556 243 556 178 l 556 710 z "},"Ŕ":{"ha":833,"x_min":159,"x_max":754,"o":"m 509 540 q 561 570 537 548 q 595 655 595 605 l 595 1071 q 560 1156 595 1121 q 476 1190 525 1190 l 278 1190 l 278 60 q 260 17 278 35 q 218 0 243 0 q 176 17 193 0 q 159 60 159 35 l 159 1250 q 176 1292 159 1275 q 218 1310 193 1310 l 476 1310 q 644 1240 574 1310 q 714 1071 714 1170 l 714 655 q 645 487 714 557 q 599 450 623 465 l 748 85 q 754 60 754 72 q 751 42 754 51 q 721 7 743 18 q 694 0 708 0 q 677 2 686 0 q 641 33 653 10 l 471 453 q 464 482 464 466 q 482 525 464 507 q 509 540 494 537 m 439 1657 q 467 1693 445 1681 q 497 1701 481 1701 q 512 1699 504 1701 q 549 1672 536 1692 q 557 1641 557 1657 q 555 1626 557 1634 l 524 1511 q 497 1476 518 1488 q 466 1467 482 1467 q 451 1469 459 1467 q 416 1497 428 1476 q 407 1527 407 1511 q 409 1543 407 1535 l 439 1657 z "},"ŕ":{"ha":476,"x_min":139,"x_max":438,"o":"m 258 59 q 241 16 258 34 q 198 -1 223 -1 q 156 16 174 -1 q 139 59 139 34 l 139 714 q 209 882 139 813 q 377 952 279 952 q 420 935 403 952 q 438 893 438 918 q 420 851 438 868 q 377 833 403 833 q 293 799 327 833 q 258 714 258 764 l 258 59 m 271 1300 q 299 1336 277 1323 q 328 1344 313 1344 q 343 1342 335 1344 q 380 1314 367 1335 q 388 1284 388 1300 q 386 1269 388 1277 l 355 1154 q 328 1119 349 1131 q 298 1110 313 1110 q 283 1112 291 1110 q 247 1140 259 1119 q 238 1170 238 1154 q 240 1186 238 1178 l 271 1300 z "},"Ŗ":{"ha":833,"x_min":159,"x_max":754,"o":"m 509 540 q 561 570 537 548 q 595 655 595 605 l 595 1071 q 560 1156 595 1121 q 476 1190 525 1190 l 278 1190 l 278 60 q 260 17 278 35 q 218 0 243 0 q 176 17 193 0 q 159 60 159 35 l 159 1250 q 176 1292 159 1275 q 218 1310 193 1310 l 476 1310 q 644 1240 574 1310 q 714 1071 714 1170 l 714 655 q 645 487 714 557 q 599 450 623 465 l 748 85 q 754 60 754 72 q 751 42 754 51 q 721 7 743 18 q 694 0 708 0 q 677 2 686 0 q 641 33 653 10 l 471 453 q 464 482 464 466 q 482 525 464 507 q 509 540 494 537 z "},"ŗ":{"ha":476,"x_min":119,"x_max":438,"o":"m 258 59 q 241 16 258 34 q 198 -1 223 -1 q 156 16 174 -1 q 139 59 139 34 l 139 714 q 209 882 139 813 q 377 952 279 952 q 420 935 403 952 q 438 893 438 918 q 420 851 438 868 q 377 833 403 833 q 293 799 327 833 q 258 714 258 764 l 258 59 z "},"Ř":{"ha":833,"x_min":159,"x_max":754,"o":"m 509 540 q 561 570 537 548 q 595 655 595 605 l 595 1071 q 560 1156 595 1121 q 476 1190 525 1190 l 278 1190 l 278 60 q 260 17 278 35 q 218 0 243 0 q 176 17 193 0 q 159 60 159 35 l 159 1250 q 176 1292 159 1275 q 218 1310 193 1310 l 476 1310 q 644 1240 574 1310 q 714 1071 714 1170 l 714 655 q 645 487 714 557 q 599 450 623 465 l 748 85 q 754 60 754 72 q 751 42 754 51 q 721 7 743 18 q 694 0 708 0 q 677 2 686 0 q 641 33 653 10 l 471 453 q 464 482 464 466 q 482 525 464 507 q 509 540 494 537 z "},"ř":{"ha":476,"x_min":117,"x_max":460,"o":"m 259 59 q 242 16 259 34 q 199 -1 224 -1 q 157 16 175 -1 q 140 59 140 34 l 140 714 q 210 882 140 813 q 378 952 280 952 q 421 935 404 952 q 438 893 438 918 q 421 851 438 868 q 378 833 404 833 q 294 799 328 833 q 259 714 259 764 l 259 59 z "},"Ś":{"ha":635,"x_min":63,"x_max":581,"o":"m 96 71 q 77 118 77 93 q 97 160 79 143 q 140 175 114 175 q 185 152 165 173 q 295 99 229 103 l 303 99 q 409 141 363 99 q 461 250 457 185 l 461 263 q 262 647 461 427 q 63 1050 63 866 l 63 1065 q 156 1259 70 1182 q 339 1329 235 1329 l 356 1329 q 548 1238 471 1323 q 566 1191 566 1216 q 547 1151 564 1167 q 507 1135 530 1135 q 460 1158 479 1136 q 349 1209 415 1206 l 338 1209 q 235 1170 280 1209 q 183 1060 187 1125 l 183 1051 q 384 691 183 913 q 581 266 581 473 q 580 244 581 255 q 488 51 573 128 q 304 -21 409 -21 l 288 -21 q 96 71 173 -14 m 306 1657 q 333 1693 312 1681 q 363 1701 347 1701 q 378 1699 370 1701 q 415 1672 402 1692 q 423 1641 423 1657 q 421 1626 423 1634 l 390 1511 q 363 1476 384 1488 q 332 1467 348 1467 q 317 1469 325 1467 q 282 1497 294 1476 q 273 1527 273 1511 q 275 1543 273 1535 l 306 1657 z "},"ś":{"ha":694,"x_min":89,"x_max":609,"o":"m 564 880 q 584 833 584 857 q 565 792 583 809 q 526 776 549 776 q 477 799 498 777 q 361 851 433 845 q 339 852 349 852 q 253 824 283 852 q 204 724 206 792 q 407 519 204 624 q 609 238 609 415 q 529 46 605 113 q 337 -21 453 -21 q 133 67 212 -17 q 114 114 114 89 q 133 156 115 139 q 173 172 150 172 q 222 147 200 171 q 336 98 268 102 l 353 98 q 445 123 411 98 q 494 243 492 166 l 494 246 q 296 456 494 354 q 89 728 89 568 q 175 909 93 844 q 358 968 251 968 l 371 968 q 564 880 486 963 m 332 1300 q 360 1336 338 1323 q 390 1344 374 1344 q 405 1342 397 1344 q 441 1314 429 1335 q 449 1284 449 1300 q 447 1269 449 1277 l 417 1154 q 390 1119 411 1131 q 359 1110 375 1110 q 344 1112 352 1110 q 309 1140 320 1119 q 300 1170 300 1154 q 302 1186 300 1178 l 332 1300 z "},"Ŝ":{"ha":635,"x_min":63,"x_max":581,"o":"m 96 71 q 77 118 77 93 q 97 160 79 143 q 140 175 114 175 q 185 152 165 173 q 295 99 229 103 l 303 99 q 409 141 363 99 q 461 250 457 185 l 461 263 q 262 647 461 427 q 63 1050 63 866 l 63 1065 q 156 1259 70 1182 q 339 1329 235 1329 l 356 1329 q 548 1238 471 1323 q 566 1191 566 1216 q 547 1151 564 1167 q 507 1135 530 1135 q 460 1158 479 1136 q 349 1209 415 1206 l 338 1209 q 235 1170 280 1209 q 183 1060 187 1125 l 183 1051 q 384 691 183 913 q 581 266 581 473 q 580 244 581 255 q 488 51 573 128 q 304 -21 409 -21 l 288 -21 q 96 71 173 -14 m 473 1572 q 494 1528 494 1553 q 476 1485 494 1503 q 435 1468 459 1468 q 392 1485 410 1468 l 322 1556 l 252 1485 q 210 1468 235 1468 q 169 1485 186 1468 q 151 1528 151 1503 q 168 1569 151 1553 l 280 1682 q 322 1698 298 1698 q 364 1682 347 1698 l 473 1572 z "},"ŝ":{"ha":694,"x_min":89,"x_max":609,"o":"m 564 880 q 584 833 584 857 q 565 792 583 809 q 526 776 549 776 q 477 799 498 777 q 361 851 433 845 q 339 852 349 852 q 253 824 283 852 q 204 724 206 792 q 407 519 204 624 q 609 238 609 415 q 529 46 605 113 q 337 -21 453 -21 q 133 67 212 -17 q 114 114 114 89 q 133 156 115 139 q 173 172 150 172 q 222 147 200 171 q 336 98 268 102 l 353 98 q 445 123 411 98 q 494 243 492 166 l 494 246 q 296 456 494 354 q 89 728 89 568 q 175 909 93 844 q 358 968 251 968 l 371 968 q 564 880 486 963 m 500 1215 q 521 1171 521 1195 q 503 1128 521 1146 q 461 1111 486 1111 q 419 1128 437 1111 l 349 1198 l 279 1128 q 237 1111 262 1111 q 195 1128 212 1111 q 178 1171 178 1146 q 194 1212 178 1195 l 307 1324 q 349 1341 324 1341 q 391 1324 374 1341 l 500 1215 z "},"Ş":{"ha":635,"x_min":63,"x_max":581,"o":"m 263 -19 q 96 71 165 -5 q 77 118 77 93 q 97 160 79 143 q 140 175 114 175 q 185 152 165 173 q 295 99 229 103 l 303 99 q 409 141 363 99 q 461 250 457 185 l 461 263 q 262 647 461 427 q 63 1050 63 866 l 63 1065 q 156 1259 70 1182 q 339 1329 235 1329 l 356 1329 q 548 1238 471 1323 q 566 1191 566 1216 q 547 1151 564 1167 q 507 1135 530 1135 q 460 1158 479 1136 q 349 1209 415 1206 l 338 1209 q 235 1170 280 1209 q 183 1060 187 1125 l 183 1051 q 384 691 183 913 q 581 266 581 473 q 580 244 581 255 q 488 51 573 128 q 382 -10 439 7 l 382 -68 q 450 -111 420 -81 q 502 -238 502 -164 q 450 -365 502 -312 q 323 -417 398 -417 l 203 -417 q 161 -399 179 -417 q 144 -357 144 -382 q 161 -315 144 -332 q 203 -298 179 -298 l 322 -298 q 365 -280 347 -298 q 382 -238 382 -263 q 365 -196 382 -213 q 322 -179 347 -179 q 280 -161 298 -179 q 263 -119 263 -143 l 263 -19 z "},"ş":{"ha":694,"x_min":89,"x_max":609,"o":"m 290 -16 q 133 67 196 0 q 114 114 114 89 q 133 156 115 139 q 173 172 150 172 q 222 147 200 171 q 336 98 268 102 l 353 98 q 445 123 411 98 q 494 243 492 166 l 494 246 q 296 456 494 354 q 89 728 89 568 q 175 909 93 844 q 358 968 251 968 l 371 968 q 564 880 486 963 q 584 833 584 857 q 565 792 583 809 q 526 776 549 776 q 477 799 498 777 q 361 851 433 845 q 339 852 349 852 q 253 824 283 852 q 204 724 206 792 q 407 519 204 624 q 609 238 609 415 q 530 47 605 113 q 409 -14 478 1 l 409 -68 q 477 -111 446 -81 q 529 -238 529 -164 q 477 -365 529 -312 q 350 -417 425 -417 l 230 -417 q 188 -399 205 -417 q 171 -357 171 -382 q 188 -315 171 -332 q 230 -298 205 -298 l 349 -298 q 391 -280 374 -298 q 409 -238 409 -263 q 391 -196 409 -213 q 349 -179 374 -179 q 307 -161 324 -179 q 290 -119 290 -143 l 290 -16 z "},"Š":{"ha":635,"x_min":63,"x_max":581,"o":"m 96 71 q 77 118 77 93 q 97 160 79 143 q 140 175 114 175 q 185 152 165 173 q 295 99 229 103 l 303 99 q 409 141 363 99 q 461 250 457 185 l 461 263 q 262 647 461 427 q 63 1050 63 866 l 63 1065 q 156 1259 70 1182 q 339 1329 235 1329 l 356 1329 q 548 1238 471 1323 q 566 1191 566 1216 q 547 1151 564 1167 q 507 1135 530 1135 q 460 1158 479 1136 q 349 1209 415 1206 l 338 1209 q 235 1170 280 1209 q 183 1060 187 1125 l 183 1051 q 384 691 183 913 q 581 266 581 473 q 580 244 581 255 q 488 51 573 128 q 304 -21 409 -21 l 288 -21 q 96 71 173 -14 z "},"š":{"ha":694,"x_min":89,"x_max":609,"o":"m 564 880 q 584 833 584 857 q 565 792 583 809 q 526 776 549 776 q 477 799 498 777 q 361 851 433 845 q 339 852 349 852 q 253 824 283 852 q 204 724 206 792 q 407 519 204 624 q 609 238 609 415 q 529 46 605 113 q 337 -21 453 -21 q 133 67 212 -17 q 114 114 114 89 q 133 156 115 139 q 173 172 150 172 q 222 147 200 171 q 336 98 268 102 l 353 98 q 445 123 411 98 q 494 243 492 166 l 494 246 q 296 456 494 354 q 89 728 89 568 q 175 909 93 844 q 358 968 251 968 l 371 968 q 564 880 486 963 z "},"Ţ":{"ha":595,"x_min":10,"x_max":565,"o":"m 228 1190 l 69 1190 q 27 1208 45 1190 q 10 1250 10 1225 q 27 1292 10 1275 q 69 1310 45 1310 l 506 1310 q 548 1292 531 1310 q 565 1250 565 1275 q 548 1208 565 1225 q 506 1190 531 1190 l 347 1190 l 346 -68 q 415 -111 385 -81 q 467 -238 467 -164 q 415 -365 467 -312 q 289 -417 363 -417 l 169 -417 q 126 -399 144 -417 q 109 -357 109 -382 q 126 -315 109 -332 q 169 -298 144 -298 l 288 -298 q 330 -280 313 -298 q 347 -238 347 -263 q 330 -196 347 -213 q 288 -179 313 -179 q 246 -161 263 -179 q 228 -119 228 -143 l 228 1190 z "},"ţ":{"ha":516,"x_min":98,"x_max":477,"o":"m 229 70 q 159 238 159 140 l 159 833 l 158 833 q 116 851 133 833 q 98 893 98 869 q 116 935 98 918 q 158 952 133 952 l 159 952 l 159 1130 q 177 1172 159 1155 q 218 1189 194 1189 q 260 1172 243 1189 q 278 1130 278 1155 l 278 952 l 397 952 q 439 935 422 952 q 456 893 456 918 q 439 851 456 868 q 397 833 422 833 l 278 833 l 278 238 q 313 154 278 188 q 397 119 347 119 q 440 101 423 119 q 457 60 457 83 q 440 17 457 35 q 397 0 423 0 q 357 3 376 0 l 356 -68 q 425 -111 395 -81 q 477 -238 477 -164 q 425 -365 477 -312 q 299 -417 373 -417 l 179 -417 q 136 -399 154 -417 q 119 -357 119 -382 q 136 -315 119 -332 q 179 -298 154 -298 l 298 -298 q 340 -280 322 -298 q 357 -238 357 -263 q 340 -196 357 -213 q 298 -179 322 -179 q 255 -161 273 -179 q 238 -119 238 -143 l 238 62 l 229 70 z "},"Ť":{"ha":595,"x_min":10,"x_max":565,"o":"m 69 1190 q 27 1208 45 1190 q 10 1250 10 1225 q 27 1292 10 1275 q 69 1310 45 1310 l 506 1310 q 548 1292 531 1310 q 565 1250 565 1275 q 548 1208 565 1225 q 506 1190 531 1190 l 347 1190 l 347 60 q 330 17 347 35 q 288 0 313 0 q 246 17 263 0 q 228 60 228 35 l 228 1190 l 69 1190 z "},"ť":{"ha":595,"x_min":98,"x_max":585,"o":"m 397 952 q 439 935 422 952 q 456 893 456 918 q 439 851 456 868 q 397 833 422 833 l 278 833 l 278 238 q 313 154 278 188 q 397 119 347 119 q 440 101 423 119 q 457 60 457 83 q 440 17 457 35 q 397 0 423 0 q 229 70 299 0 q 159 238 159 140 l 159 833 l 158 833 q 116 851 133 833 q 98 893 98 869 q 116 935 98 918 q 158 952 133 952 l 159 952 l 159 1130 q 177 1172 159 1155 q 218 1189 194 1189 q 260 1172 243 1189 q 278 1130 278 1155 l 278 952 l 397 952 z "},"Ŧ":{"ha":595,"x_min":10,"x_max":565,"o":"m 228 714 l 228 1190 l 69 1190 q 27 1208 45 1190 q 10 1250 10 1225 q 27 1292 10 1275 q 69 1310 45 1310 l 506 1310 q 548 1292 531 1310 q 565 1250 565 1275 q 548 1208 565 1225 q 506 1190 531 1190 l 347 1190 l 347 714 l 506 714 q 548 697 531 714 q 565 655 565 680 q 548 613 565 630 q 506 595 531 595 l 347 595 l 347 60 q 330 17 347 35 q 288 0 313 0 q 246 17 263 0 q 228 60 228 35 l 228 595 l 70 595 q 28 613 46 595 q 11 655 11 630 q 28 697 11 680 q 70 714 46 714 l 228 714 z "},"ŧ":{"ha":516,"x_min":99,"x_max":458,"o":"m 160 536 l 160 833 l 159 833 q 117 851 134 833 q 99 893 99 869 q 117 935 99 918 q 159 952 134 952 l 160 952 l 160 1130 q 178 1172 160 1155 q 219 1189 195 1189 q 261 1172 244 1189 q 279 1130 279 1155 l 279 952 l 398 952 q 440 935 423 952 q 457 893 457 918 q 440 851 457 868 q 398 833 423 833 l 279 833 l 279 536 l 398 536 q 440 518 423 536 q 457 476 457 501 q 440 434 457 451 q 398 417 423 417 l 279 417 l 279 238 q 313 154 279 188 q 398 119 348 119 q 441 101 424 119 q 458 60 458 83 q 441 17 458 35 q 398 0 424 0 q 230 70 300 0 q 160 238 160 140 l 160 417 l 159 417 q 117 434 134 417 q 99 476 99 451 q 117 518 99 501 q 159 536 134 536 l 160 536 z "},"Ũ":{"ha":833,"x_min":139,"x_max":694,"o":"m 139 1249 q 156 1291 139 1274 q 198 1309 174 1309 q 241 1291 223 1309 q 258 1249 258 1274 l 258 258 q 305 146 258 192 q 417 99 351 99 q 529 146 482 99 q 575 258 575 192 l 575 1249 q 593 1291 575 1274 q 635 1309 610 1309 q 677 1291 660 1309 q 694 1249 694 1274 l 694 258 q 613 62 694 143 q 417 -20 532 -20 q 220 62 302 -20 q 139 258 139 143 l 139 1249 m 272 1510 q 245 1503 259 1503 q 225 1507 235 1503 q 190 1537 201 1515 q 184 1564 184 1551 q 188 1583 184 1573 q 217 1618 194 1607 q 313 1639 258 1639 q 431 1622 365 1639 q 515 1609 481 1609 q 561 1618 544 1609 q 589 1625 574 1625 q 607 1623 598 1625 q 643 1593 632 1616 q 651 1564 651 1579 q 648 1548 651 1556 q 619 1512 641 1523 q 515 1488 576 1488 q 400 1505 463 1488 q 313 1518 347 1518 q 272 1510 287 1518 z "},"ũ":{"ha":853,"x_min":139,"x_max":694,"o":"m 575 893 q 593 935 575 918 q 635 952 610 952 q 677 935 660 952 q 694 893 694 918 l 694 60 q 677 17 694 35 q 635 0 660 0 l 417 0 q 220 81 302 0 q 139 278 139 163 l 139 893 q 156 935 139 918 q 198 952 174 952 q 241 935 223 952 q 258 893 258 918 l 258 278 q 305 166 258 212 q 417 119 351 119 l 575 119 l 575 893 m 272 1153 q 245 1146 259 1146 q 225 1150 235 1146 q 190 1180 201 1158 q 184 1207 184 1193 q 188 1226 184 1216 q 217 1261 194 1250 q 313 1282 258 1282 q 431 1265 365 1282 q 515 1252 481 1252 q 561 1261 544 1252 q 589 1268 574 1268 q 607 1266 598 1268 q 643 1236 632 1259 q 651 1207 651 1222 q 648 1190 651 1198 q 619 1155 641 1166 q 515 1131 576 1131 q 400 1148 463 1131 q 313 1161 347 1161 q 272 1153 287 1161 z "},"Ū":{"ha":833,"x_min":139,"x_max":694,"o":"m 139 1249 q 156 1291 139 1274 q 198 1309 174 1309 q 241 1291 223 1309 q 258 1249 258 1274 l 258 258 q 305 146 258 192 q 417 99 351 99 q 529 146 482 99 q 575 258 575 192 l 575 1249 q 593 1291 575 1274 q 635 1309 610 1309 q 677 1291 660 1309 q 694 1249 694 1274 l 694 258 q 613 62 694 143 q 417 -20 532 -20 q 220 62 302 -20 q 139 258 139 143 l 139 1249 m 298 1468 q 255 1486 273 1468 q 238 1528 238 1503 q 255 1570 238 1553 q 298 1587 273 1587 l 536 1587 q 578 1570 561 1587 q 595 1528 595 1553 q 578 1486 595 1503 q 536 1468 561 1468 l 298 1468 z "},"ū":{"ha":853,"x_min":139,"x_max":694,"o":"m 575 893 q 593 935 575 918 q 635 952 610 952 q 677 935 660 952 q 694 893 694 918 l 694 60 q 677 17 694 35 q 635 0 660 0 l 417 0 q 220 81 302 0 q 139 278 139 163 l 139 893 q 156 935 139 918 q 198 952 174 952 q 241 935 223 952 q 258 893 258 918 l 258 278 q 305 166 258 212 q 417 119 351 119 l 575 119 l 575 893 m 298 1111 q 255 1128 273 1111 q 238 1171 238 1146 q 255 1213 238 1195 q 298 1230 273 1230 l 536 1230 q 578 1213 561 1230 q 595 1171 595 1195 q 578 1128 595 1146 q 536 1111 561 1111 l 298 1111 z "},"Ŭ":{"ha":833,"x_min":139,"x_max":694,"o":"m 139 1249 q 156 1291 139 1274 q 198 1309 174 1309 q 241 1291 223 1309 q 258 1249 258 1274 l 258 258 q 305 146 258 192 q 417 99 351 99 q 529 146 482 99 q 575 258 575 192 l 575 1249 q 593 1291 575 1274 q 635 1309 610 1309 q 677 1291 660 1309 q 694 1249 694 1274 l 694 258 q 613 62 694 143 q 417 -20 532 -20 q 220 62 302 -20 q 139 258 139 143 l 139 1249 m 271 1510 q 243 1547 250 1522 q 241 1563 241 1555 q 250 1593 241 1578 q 287 1621 263 1614 q 303 1623 295 1623 q 333 1614 318 1623 q 417 1588 376 1588 q 503 1615 458 1589 q 532 1622 517 1622 q 549 1620 541 1622 q 585 1591 573 1614 q 593 1562 593 1577 q 591 1546 593 1554 q 563 1509 584 1521 q 423 1468 492 1469 l 417 1468 q 271 1510 342 1468 z "},"ŭ":{"ha":853,"x_min":139,"x_max":694,"o":"m 575 893 q 593 935 575 918 q 635 952 610 952 q 677 935 660 952 q 694 893 694 918 l 694 60 q 677 17 694 35 q 635 0 660 0 l 417 0 q 220 81 302 0 q 139 278 139 163 l 139 893 q 156 935 139 918 q 198 952 174 952 q 241 935 223 952 q 258 893 258 918 l 258 278 q 305 166 258 212 q 417 119 351 119 l 575 119 l 575 893 m 271 1153 q 243 1189 250 1165 q 241 1205 241 1197 q 250 1236 241 1221 q 287 1264 263 1257 q 303 1266 295 1266 q 333 1257 318 1266 q 417 1231 376 1231 q 503 1258 458 1232 q 532 1265 517 1265 q 549 1263 541 1265 q 585 1234 573 1257 q 593 1204 593 1220 q 591 1188 593 1196 q 563 1152 584 1164 q 423 1111 492 1112 l 417 1111 q 271 1153 342 1111 z "},"Ů":{"ha":833,"x_min":139,"x_max":694,"o":"m 139 1249 q 156 1291 139 1274 q 198 1309 174 1309 q 241 1291 223 1309 q 258 1249 258 1274 l 258 258 q 305 146 258 192 q 417 99 351 99 q 529 146 482 99 q 575 258 575 192 l 575 1249 q 593 1291 575 1274 q 635 1309 610 1309 q 677 1291 660 1309 q 694 1249 694 1274 l 694 258 q 613 62 694 143 q 417 -20 532 -20 q 220 62 302 -20 q 139 258 139 143 l 139 1249 m 417 1705 q 501 1671 466 1705 q 536 1586 536 1636 q 501 1502 536 1537 q 417 1467 466 1467 q 332 1502 367 1467 q 298 1586 298 1537 q 332 1671 298 1636 q 417 1705 367 1705 z "},"ů":{"ha":853,"x_min":139,"x_max":694,"o":"m 575 893 q 593 935 575 918 q 635 952 610 952 q 677 935 660 952 q 694 893 694 918 l 694 60 q 677 17 694 35 q 635 0 660 0 l 417 0 q 220 81 302 0 q 139 278 139 163 l 139 893 q 156 935 139 918 q 198 952 174 952 q 241 935 223 952 q 258 893 258 918 l 258 278 q 305 166 258 212 q 417 119 351 119 l 575 119 l 575 893 m 417 1348 q 501 1313 466 1348 q 536 1229 536 1279 q 501 1145 536 1180 q 417 1110 466 1110 q 332 1145 367 1110 q 298 1229 298 1180 q 332 1313 298 1279 q 417 1348 367 1348 z "},"Ű":{"ha":833,"x_min":139,"x_max":694,"o":"m 139 1249 q 156 1291 139 1274 q 198 1309 174 1309 q 241 1291 223 1309 q 258 1249 258 1274 l 258 258 q 305 146 258 192 q 417 99 351 99 q 529 146 482 99 q 575 258 575 192 l 575 1249 q 593 1291 575 1274 q 635 1309 610 1309 q 677 1291 660 1309 q 694 1249 694 1274 l 694 258 q 613 62 694 143 q 417 -20 532 -20 q 220 62 302 -20 q 139 258 139 143 l 139 1249 m 353 1500 q 316 1470 340 1477 q 299 1468 308 1468 q 272 1475 285 1468 q 246 1511 252 1487 q 244 1526 244 1519 q 253 1558 244 1543 l 308 1651 q 343 1681 319 1674 q 360 1684 352 1684 q 388 1676 375 1684 q 415 1640 409 1664 q 416 1625 416 1632 q 408 1593 416 1609 l 353 1500 m 586 1500 q 551 1471 574 1478 q 533 1468 541 1468 q 506 1476 519 1468 q 479 1512 485 1488 q 478 1527 478 1519 q 486 1559 478 1543 l 541 1652 q 577 1682 554 1675 q 594 1684 586 1684 q 621 1677 609 1684 q 648 1640 642 1665 q 650 1626 650 1633 q 641 1594 650 1609 l 586 1500 z "},"ű":{"ha":853,"x_min":139,"x_max":694,"o":"m 575 893 q 593 935 575 918 q 635 952 610 952 q 677 935 660 952 q 694 893 694 918 l 694 60 q 677 17 694 35 q 635 0 660 0 l 417 0 q 220 81 302 0 q 139 278 139 163 l 139 893 q 156 935 139 918 q 198 952 174 952 q 241 935 223 952 q 258 893 258 918 l 258 278 q 305 166 258 212 q 417 119 351 119 l 575 119 l 575 893 m 353 1143 q 316 1113 340 1120 q 299 1111 308 1111 q 272 1118 285 1111 q 246 1154 252 1130 q 244 1169 244 1162 q 253 1200 244 1186 l 308 1294 q 343 1323 319 1316 q 360 1326 352 1326 q 388 1318 375 1326 q 415 1283 409 1307 q 416 1268 416 1275 q 408 1236 416 1252 l 353 1143 m 586 1143 q 551 1114 574 1121 q 533 1111 541 1111 q 506 1119 519 1111 q 479 1155 485 1131 q 478 1170 478 1162 q 486 1201 478 1186 l 541 1295 q 577 1324 554 1317 q 594 1326 586 1326 q 621 1319 609 1326 q 648 1283 642 1308 q 650 1269 650 1276 q 641 1237 650 1252 l 586 1143 z "},"Ų":{"ha":833,"x_min":139,"x_max":694,"o":"m 269 22 q 220 62 243 39 q 139 258 139 143 l 139 1249 q 156 1291 139 1274 q 198 1309 174 1309 q 241 1291 223 1309 q 258 1249 258 1274 l 258 258 q 305 146 258 192 q 417 99 351 99 q 529 146 482 99 q 575 258 575 192 l 575 1249 q 593 1291 575 1274 q 635 1309 610 1309 q 677 1291 660 1309 q 694 1249 694 1274 l 694 258 q 613 62 694 143 q 419 -20 533 -19 l 418 -20 q 375 -37 393 -20 q 358 -79 358 -55 q 375 -122 358 -104 q 418 -139 393 -139 l 537 -139 q 579 -156 562 -139 q 596 -198 596 -174 q 579 -241 596 -223 q 537 -258 562 -258 l 417 -258 q 290 -206 342 -258 q 238 -79 238 -154 q 269 22 238 -22 z "},"ų":{"ha":853,"x_min":139,"x_max":814,"o":"m 466 0 l 417 0 q 220 81 302 0 q 139 278 139 163 l 139 893 q 156 935 139 918 q 198 952 174 952 q 241 935 223 952 q 258 893 258 918 l 258 278 q 305 166 258 212 q 417 119 351 119 l 575 119 l 575 893 q 593 935 575 918 q 635 952 610 952 q 677 935 660 952 q 694 893 694 918 l 694 71 q 695 60 695 65 q 678 18 695 36 q 636 0 661 0 q 594 -17 611 0 q 576 -60 576 -35 q 594 -102 576 -84 q 636 -119 611 -119 l 755 -119 q 797 -136 780 -119 q 814 -179 814 -154 q 797 -221 814 -203 q 755 -238 780 -238 l 635 -238 q 508 -186 561 -238 q 456 -60 456 -134 q 466 0 456 -28 z "},"Ŵ":{"ha":1190,"x_min":4,"x_max":1185,"o":"m 896 52 q 879 18 893 33 q 837 0 861 0 q 796 18 813 0 q 779 52 783 33 l 594 802 l 411 53 q 393 18 407 33 q 351 0 375 0 q 310 18 326 0 q 292 52 296 33 l 5 1237 q 4 1250 4 1243 q 21 1292 4 1275 q 63 1310 39 1310 q 106 1293 88 1310 q 123 1260 119 1279 l 351 314 l 531 1052 q 554 1095 538 1079 q 595 1111 570 1111 q 636 1094 620 1111 q 658 1052 652 1077 l 837 314 l 1065 1260 q 1083 1293 1069 1279 q 1125 1310 1100 1310 q 1167 1292 1150 1310 q 1185 1250 1185 1275 q 1184 1237 1185 1243 l 896 52 m 745 1372 q 766 1327 766 1352 q 748 1285 766 1303 q 706 1268 731 1268 q 664 1285 682 1268 l 594 1355 l 524 1285 q 482 1268 507 1268 q 440 1285 457 1268 q 423 1327 423 1303 q 439 1369 423 1352 l 552 1481 q 594 1498 569 1498 q 636 1481 619 1498 l 745 1372 z "},"ŵ":{"ha":1130,"x_min":20,"x_max":1095,"o":"m 376 48 q 360 18 371 31 q 317 0 342 0 q 276 18 294 0 q 259 51 264 32 l 23 874 q 20 893 20 883 q 37 935 20 918 q 79 952 55 952 q 122 936 104 952 q 136 913 132 925 l 318 270 l 500 906 q 517 936 504 923 q 559 952 534 952 q 601 936 583 952 q 615 913 611 925 l 798 270 l 979 907 q 996 936 983 923 q 1038 952 1014 952 q 1079 935 1063 952 q 1095 893 1095 918 q 1092 869 1095 880 l 855 48 q 839 18 850 31 q 797 0 821 0 q 755 18 773 0 q 738 51 743 32 l 558 679 l 376 48 m 708 1215 q 729 1171 729 1195 q 711 1128 729 1146 q 670 1111 694 1111 q 627 1128 645 1111 l 558 1198 l 487 1128 q 445 1111 470 1111 q 404 1128 421 1111 q 386 1171 386 1146 q 403 1212 386 1195 l 515 1324 q 558 1341 533 1341 q 599 1324 582 1341 l 708 1215 z "},"Ŷ":{"ha":635,"x_min":21,"x_max":616,"o":"m 23 1231 q 21 1250 21 1240 q 38 1292 21 1275 q 79 1310 55 1310 q 122 1293 104 1310 q 136 1270 132 1282 l 318 627 l 500 1264 q 517 1293 504 1280 q 559 1310 535 1310 q 600 1292 583 1310 q 616 1250 616 1275 q 613 1226 616 1237 l 377 409 l 377 60 q 360 17 377 35 q 317 0 342 0 q 276 17 294 0 q 258 60 258 35 l 258 410 l 23 1231 m 469 1572 q 490 1528 490 1553 q 472 1485 490 1503 q 431 1468 455 1468 q 388 1485 406 1468 l 318 1556 l 248 1485 q 206 1468 231 1468 q 165 1485 182 1468 q 147 1528 147 1503 q 164 1569 147 1553 l 276 1682 q 318 1698 294 1698 q 360 1682 343 1698 l 469 1572 z "},"ŷ":{"ha":833,"x_min":139,"x_max":694,"o":"m 575 893 q 593 935 575 918 q 635 952 610 952 q 677 935 660 952 q 694 893 694 918 l 694 -99 q 625 -267 694 -197 q 456 -337 555 -337 q 289 -268 358 -337 q 246 -212 263 -242 q 238 -179 238 -196 q 254 -137 238 -154 q 296 -120 271 -120 q 336 -135 320 -120 q 347 -150 343 -143 q 373 -184 357 -168 q 456 -218 408 -218 q 541 -184 506 -218 q 575 -99 575 -149 l 575 0 l 417 0 q 220 81 302 0 q 139 278 139 163 l 139 893 q 156 935 139 918 q 198 952 174 952 q 241 935 223 952 q 258 893 258 918 l 258 278 q 305 166 258 212 q 417 119 351 119 l 575 119 l 575 893 m 567 1215 q 588 1171 588 1195 q 570 1128 588 1146 q 529 1111 554 1111 q 486 1128 504 1111 l 417 1198 l 346 1128 q 305 1111 329 1111 q 263 1128 280 1111 q 245 1171 245 1146 q 262 1212 245 1195 l 374 1324 q 417 1341 392 1341 q 458 1324 441 1341 l 567 1215 z "},"Ÿ":{"ha":635,"x_min":21,"x_max":616,"o":"m 23 1231 q 21 1250 21 1240 q 38 1292 21 1275 q 79 1310 55 1310 q 122 1293 104 1310 q 136 1270 132 1282 l 318 627 l 500 1264 q 517 1293 504 1280 q 559 1310 535 1310 q 600 1292 583 1310 q 616 1250 616 1275 q 613 1226 616 1237 l 377 409 l 377 60 q 360 17 377 35 q 317 0 342 0 q 276 17 294 0 q 258 60 258 35 l 258 410 l 23 1231 m 175 1627 q 231 1604 207 1627 q 254 1548 254 1580 q 231 1492 254 1515 q 175 1468 207 1468 q 119 1492 142 1468 q 95 1548 95 1515 q 119 1604 95 1580 q 175 1627 142 1627 m 463 1627 q 519 1604 496 1627 q 543 1548 543 1580 q 519 1492 543 1515 q 463 1468 496 1468 q 407 1492 431 1468 q 384 1548 384 1515 q 407 1604 384 1580 q 463 1627 431 1627 z "},"Ź":{"ha":670,"x_min":40,"x_max":615,"o":"m 99 1190 q 57 1208 74 1190 q 40 1250 40 1225 q 57 1292 40 1275 q 99 1310 74 1310 l 556 1310 q 598 1292 580 1310 q 615 1250 615 1275 q 611 1227 615 1238 l 187 119 l 556 119 q 598 102 580 119 q 615 60 615 84 q 598 18 615 36 q 556 0 580 0 l 99 0 q 58 18 75 0 q 41 60 41 36 q 46 86 41 74 l 468 1190 l 99 1190 m 311 1657 q 338 1693 316 1681 q 368 1701 352 1701 q 383 1699 375 1701 q 420 1672 407 1692 q 428 1641 428 1657 q 426 1626 428 1634 l 395 1511 q 368 1476 389 1488 q 337 1467 353 1467 q 322 1469 330 1467 q 287 1497 299 1476 q 278 1527 278 1511 q 280 1543 278 1535 l 311 1657 z "},"ź":{"ha":635,"x_min":40,"x_max":595,"o":"m 99 833 q 57 851 74 833 q 40 893 40 868 q 57 935 40 918 q 99 952 74 952 l 536 952 q 578 935 561 952 q 595 893 595 918 q 591 870 595 881 l 197 119 l 536 119 q 578 102 561 119 q 595 60 595 84 q 578 18 595 36 q 536 0 561 0 l 99 0 q 58 18 75 0 q 40 60 40 36 q 46 86 40 74 l 438 833 l 99 833 m 301 1300 q 328 1336 307 1323 q 358 1344 342 1344 q 373 1342 365 1344 q 410 1314 397 1335 q 418 1284 418 1300 q 416 1269 418 1277 l 385 1154 q 358 1119 379 1131 q 327 1110 343 1110 q 313 1112 320 1110 q 277 1140 289 1119 q 268 1170 268 1154 q 270 1186 268 1178 l 301 1300 z "},"Ż":{"ha":670,"x_min":40,"x_max":615,"o":"m 99 1190 q 57 1208 74 1190 q 40 1250 40 1225 q 57 1292 40 1275 q 99 1310 74 1310 l 556 1310 q 598 1292 580 1310 q 615 1250 615 1275 q 611 1227 615 1238 l 187 119 l 556 119 q 598 102 580 119 q 615 60 615 84 q 598 18 615 36 q 556 0 580 0 l 99 0 q 58 18 75 0 q 41 60 41 36 q 46 86 41 74 l 468 1190 l 99 1190 z "},"ż":{"ha":635,"x_min":40,"x_max":595,"o":"m 99 833 q 57 851 74 833 q 40 893 40 868 q 57 935 40 918 q 99 952 74 952 l 536 952 q 578 935 561 952 q 595 893 595 918 q 591 870 595 881 l 197 119 l 536 119 q 578 102 561 119 q 595 60 595 84 q 578 18 595 36 q 536 0 561 0 l 99 0 q 58 18 75 0 q 40 60 40 36 q 46 86 40 74 l 438 833 l 99 833 z "},"Ž":{"ha":670,"x_min":40,"x_max":615,"o":"m 99 1190 q 57 1208 74 1190 q 40 1250 40 1225 q 57 1292 40 1275 q 99 1310 74 1310 l 556 1310 q 598 1292 580 1310 q 615 1250 615 1275 q 611 1227 615 1238 l 187 119 l 556 119 q 598 102 580 119 q 615 60 615 84 q 598 18 615 36 q 556 0 580 0 l 99 0 q 58 18 75 0 q 41 60 41 36 q 46 86 41 74 l 468 1190 l 99 1190 z "},"ž":{"ha":635,"x_min":40,"x_max":595,"o":"m 99 833 q 57 851 74 833 q 40 893 40 868 q 57 935 40 918 q 99 952 74 952 l 536 952 q 578 935 561 952 q 595 893 595 918 q 591 870 595 881 l 197 119 l 536 119 q 578 102 561 119 q 595 60 595 84 q 578 18 595 36 q 536 0 561 0 l 99 0 q 58 18 75 0 q 40 60 40 36 q 46 86 40 74 l 438 833 l 99 833 z "},"ſ":{"ha":437,"x_min":119,"x_max":417,"o":"m 238 60 q 220 17 237 35 q 178 0 202 0 q 136 17 154 0 q 119 60 119 35 l 119 1070 q 188 1240 119 1170 q 357 1310 258 1310 q 399 1292 382 1310 q 417 1250 417 1275 q 399 1208 417 1225 q 357 1190 382 1190 q 272 1156 307 1190 q 238 1070 238 1121 l 238 60 z "},"ˆ":{"ha":427,"x_min":40,"x_max":383,"o":"m 362 1215 q 383 1171 383 1195 q 365 1128 383 1146 q 323 1111 348 1111 q 281 1128 299 1111 l 211 1198 l 141 1128 q 99 1111 124 1111 q 58 1128 74 1111 q 40 1171 40 1146 q 57 1212 40 1195 l 169 1324 q 211 1341 187 1341 q 253 1324 236 1341 l 362 1215 z "},"ˇ":{"ha":427,"x_min":40,"x_max":383,"o":"m 61 1237 q 40 1282 40 1257 q 58 1324 40 1307 q 99 1341 74 1341 q 142 1324 124 1341 l 211 1254 l 282 1324 q 323 1341 299 1341 q 365 1324 348 1341 q 383 1282 383 1307 q 366 1240 383 1257 l 254 1128 q 211 1111 236 1111 q 170 1128 187 1111 l 61 1237 z "},"ˉ":{"ha":516,"x_min":79,"x_max":437,"o":"m 139 1111 q 97 1128 114 1111 q 79 1171 79 1146 q 97 1213 79 1195 q 139 1230 114 1230 l 377 1230 q 419 1213 402 1230 q 437 1171 437 1195 q 419 1128 437 1146 q 377 1111 402 1111 l 139 1111 z "},"˘":{"ha":437,"x_min":40,"x_max":392,"o":"m 69 1153 q 42 1189 49 1165 q 40 1205 40 1197 q 49 1236 40 1221 q 85 1264 62 1257 q 101 1266 93 1266 q 132 1257 117 1266 q 215 1231 175 1231 q 302 1258 257 1232 q 330 1265 315 1265 q 347 1263 339 1265 q 384 1234 372 1257 q 392 1204 392 1220 q 390 1188 392 1196 q 361 1152 383 1164 q 221 1111 291 1112 l 215 1111 q 69 1153 141 1111 z "},"˙":{"ha":238,"x_min":40,"x_max":198,"o":"m 119 1270 q 175 1247 152 1270 q 198 1190 198 1223 q 175 1134 198 1158 q 119 1111 152 1111 q 63 1134 86 1111 q 40 1190 40 1158 q 63 1247 40 1223 q 119 1270 86 1270 z "},"˚":{"ha":437,"x_min":99,"x_max":337,"o":"m 218 1348 q 303 1313 268 1348 q 337 1229 337 1279 q 303 1145 337 1180 q 218 1110 268 1110 q 134 1145 169 1110 q 99 1229 99 1180 q 134 1313 99 1279 q 218 1348 169 1348 z "},"˛":{"ha":476,"x_min":79,"x_max":438,"o":"m 259 119 q 301 102 284 119 q 318 60 318 84 q 301 18 318 36 q 259 0 284 0 q 217 -17 234 0 q 199 -60 199 -35 q 217 -102 199 -84 q 259 -119 234 -119 l 378 -119 q 420 -136 403 -119 q 438 -179 438 -154 q 420 -221 438 -203 q 378 -238 403 -238 l 258 -238 q 131 -186 184 -238 q 79 -60 79 -134 q 131 67 79 15 q 258 119 184 119 l 259 119 z "},"˜":{"ha":556,"x_min":40,"x_max":507,"o":"m 128 1153 q 101 1146 115 1146 q 81 1150 91 1146 q 47 1180 58 1158 q 40 1207 40 1193 q 44 1226 40 1216 q 73 1261 51 1250 q 170 1282 114 1282 q 287 1265 221 1282 q 371 1252 337 1252 q 417 1261 400 1252 q 445 1268 431 1268 q 463 1266 454 1268 q 499 1236 488 1259 q 507 1207 507 1222 q 504 1190 507 1198 q 475 1155 497 1166 q 371 1131 433 1131 q 256 1148 319 1131 q 170 1161 203 1161 q 128 1153 143 1161 z "},"˝":{"ha":476,"x_min":40,"x_max":445,"o":"m 149 1143 q 112 1113 136 1120 q 94 1111 103 1111 q 67 1118 80 1111 q 42 1154 48 1130 q 40 1169 40 1162 q 49 1200 40 1186 l 103 1294 q 139 1323 115 1316 q 156 1326 148 1326 q 184 1318 171 1326 q 210 1283 204 1307 q 211 1268 211 1275 q 203 1236 211 1252 l 149 1143 m 382 1143 q 346 1114 370 1121 q 328 1111 336 1111 q 302 1119 314 1111 q 275 1155 281 1131 q 274 1170 274 1162 q 282 1201 274 1186 l 336 1295 q 373 1324 349 1317 q 390 1326 382 1326 q 417 1319 405 1326 q 443 1283 438 1308 q 445 1269 445 1276 q 437 1237 445 1252 l 382 1143 z "},"̕":{"ha":238,"x_min":40,"x_max":189,"o":"m 72 1382 q 100 1419 78 1406 q 130 1427 114 1427 q 145 1425 137 1427 q 182 1397 169 1418 q 189 1366 189 1382 q 188 1351 189 1359 l 157 1236 q 130 1201 151 1213 q 99 1192 115 1192 q 84 1194 92 1192 q 49 1222 61 1201 q 40 1252 40 1236 q 42 1268 40 1260 l 72 1382 z "},"̦":{"ha":238,"x_min":39,"x_max":188,"o":"m 71 -205 q 99 -169 77 -182 q 129 -161 113 -161 q 144 -163 136 -161 q 181 -190 168 -170 q 188 -221 188 -205 q 187 -236 188 -228 l 156 -351 q 129 -386 150 -374 q 98 -395 114 -395 q 83 -393 91 -395 q 48 -365 60 -386 q 39 -335 39 -351 q 41 -319 39 -327 l 71 -205 z "},"‐":{"ha":516,"x_min":79,"x_max":438,"o":"m 139 556 q 97 573 114 556 q 79 615 79 590 q 97 657 79 640 q 139 675 114 675 l 378 675 q 420 657 403 675 q 438 615 438 640 q 420 573 438 590 q 378 556 403 556 l 139 556 z "},"–":{"ha":675,"x_min":79,"x_max":595,"o":"m 139 556 q 97 573 114 556 q 79 615 79 590 q 97 657 79 640 q 139 675 114 675 l 536 675 q 578 657 561 675 q 595 615 595 640 q 578 573 595 590 q 536 556 561 556 l 139 556 z "},"—":{"ha":794,"x_min":79,"x_max":714,"o":"m 140 556 q 97 573 115 556 q 79 615 79 590 q 97 657 79 639 q 140 675 115 675 l 654 675 q 696 657 679 675 q 714 615 714 639 q 696 573 714 590 q 654 556 679 556 l 140 556 z "},"‘":{"ha":238,"x_min":39,"x_max":188,"o":"m 156 1382 q 128 1419 150 1406 q 98 1427 114 1427 q 83 1425 91 1427 q 47 1397 60 1418 q 39 1366 39 1382 q 41 1351 39 1359 l 71 1236 q 98 1201 77 1213 q 129 1192 113 1192 q 144 1194 136 1192 q 180 1222 168 1201 q 188 1252 188 1236 q 187 1268 188 1260 l 156 1382 z "},"’":{"ha":238,"x_min":39,"x_max":188,"o":"m 71 1382 q 99 1419 77 1406 q 129 1427 113 1427 q 144 1425 136 1427 q 181 1397 168 1418 q 188 1366 188 1382 q 187 1351 188 1359 l 156 1236 q 129 1201 150 1213 q 98 1192 114 1192 q 83 1194 91 1192 q 48 1222 60 1201 q 39 1252 39 1236 q 41 1268 39 1260 l 71 1382 z "},"‚":{"ha":238,"x_min":40,"x_max":189,"o":"m 72 75 q 100 112 78 99 q 130 120 114 120 q 145 118 137 120 q 182 90 169 111 q 189 60 189 75 q 188 45 189 53 l 157 -70 q 130 -105 151 -93 q 99 -114 115 -114 q 84 -112 92 -114 q 49 -84 61 -105 q 40 -55 40 -70 q 42 -39 40 -47 l 72 75 z "},"“":{"ha":437,"x_min":40,"x_max":397,"o":"m 364 1382 q 336 1419 358 1406 q 307 1427 322 1427 q 292 1425 300 1427 q 255 1397 268 1418 q 247 1366 247 1382 q 249 1351 247 1359 l 280 1236 q 307 1201 286 1213 q 337 1192 321 1192 q 352 1194 344 1192 q 388 1222 376 1201 q 397 1252 397 1236 q 395 1268 397 1260 l 364 1382 m 157 1381 q 129 1418 151 1405 q 99 1426 115 1426 q 84 1424 92 1426 q 48 1396 61 1417 q 40 1365 40 1381 q 42 1350 40 1358 l 72 1235 q 99 1200 78 1212 q 130 1191 114 1191 q 145 1193 137 1191 q 181 1221 169 1200 q 189 1251 189 1235 q 188 1267 189 1259 l 157 1381 z "},"”":{"ha":437,"x_min":40,"x_max":397,"o":"m 72 1382 q 100 1419 78 1406 q 130 1427 114 1427 q 145 1425 137 1427 q 182 1397 169 1418 q 189 1366 189 1382 q 188 1351 189 1359 l 157 1236 q 130 1201 151 1213 q 99 1192 115 1192 q 84 1194 92 1192 q 49 1222 61 1201 q 40 1252 40 1236 q 42 1268 40 1260 l 72 1382 m 280 1381 q 308 1418 286 1405 q 337 1426 321 1426 q 352 1424 344 1426 q 389 1396 376 1417 q 397 1365 397 1381 q 395 1350 397 1358 l 364 1235 q 337 1200 358 1212 q 307 1191 322 1191 q 292 1193 300 1191 q 256 1221 268 1200 q 247 1251 247 1235 q 249 1267 247 1259 l 280 1381 z "},"„":{"ha":437,"x_min":40,"x_max":397,"o":"m 72 73 q 100 110 78 97 q 130 118 114 118 q 145 116 137 118 q 182 88 169 109 q 189 58 189 73 q 188 43 189 51 l 157 -72 q 130 -107 151 -95 q 99 -116 115 -116 q 84 -114 92 -116 q 49 -86 61 -107 q 40 -57 40 -72 q 42 -41 40 -49 l 72 73 m 280 72 q 308 109 286 96 q 337 117 321 117 q 352 115 344 117 q 389 87 376 108 q 397 57 397 72 q 395 42 397 50 l 364 -73 q 337 -108 358 -96 q 307 -117 322 -117 q 292 -115 300 -117 q 256 -87 268 -108 q 247 -58 247 -73 q 249 -42 247 -50 l 280 72 z "},"†":{"ha":437,"x_min":40,"x_max":398,"o":"m 160 1072 l 160 1250 q 177 1292 160 1275 q 219 1310 194 1310 q 261 1292 244 1310 q 279 1250 279 1275 l 279 1072 l 338 1072 q 380 1055 363 1072 q 398 1013 398 1038 q 380 971 398 988 q 338 953 363 953 l 279 953 l 279 60 q 261 17 279 35 q 219 0 244 0 q 177 17 194 0 q 160 60 160 35 l 160 953 l 99 953 q 57 971 74 953 q 40 1013 40 988 q 57 1055 40 1038 q 99 1072 74 1072 l 160 1072 z "},"‡":{"ha":437,"x_min":40,"x_max":399,"o":"m 161 357 l 161 953 l 100 953 q 58 971 75 953 q 41 1013 41 988 q 58 1055 41 1038 q 100 1072 75 1072 l 161 1072 l 161 1250 q 178 1292 161 1275 q 220 1310 195 1310 q 262 1292 245 1310 q 280 1250 280 1275 l 280 1072 l 339 1072 q 381 1055 364 1072 q 399 1013 399 1038 q 381 971 399 988 q 339 953 364 953 l 280 953 l 280 357 l 338 357 q 380 340 363 357 q 398 298 398 322 q 380 255 398 273 q 338 238 363 238 l 280 238 l 280 60 q 262 17 280 35 q 220 0 245 0 q 178 17 195 0 q 161 60 161 35 l 161 238 l 99 238 q 57 255 74 238 q 40 298 40 273 q 57 340 40 322 q 99 357 74 357 l 161 357 z "},"•":{"ha":357,"x_min":79,"x_max":286,"o":"m 183 759 q 256 728 225 759 q 286 655 286 698 q 256 583 286 613 q 183 552 225 552 q 110 583 140 552 q 80 655 80 613 q 110 728 80 698 q 183 759 140 759 z "}}}
